{"glyphs":{"0":{"ha":1085,"x_min":3000,"x_max":4045,"o":"m 3487 -469 q 3259 -388 3356 -466 q 3101 -195 3162 -311 q 3023 38 3041 -79 q 3000 333 3000 182 q 3077 856 3000 611 q 3191 1073 3115 975 q 3360 1215 3268 1171 q 3541 1259 3453 1259 q 3615 1253 3577 1259 q 3953 959 3847 1207 q 4045 444 4045 742 q 3835 -291 4045 -24 q 3681 -420 3771 -372 q 3487 -469 3591 -468 m 3511 -164 q 3529 -162 3520 -164 q 3607 -112 3573 -151 q 3662 -29 3642 -73 q 3709 147 3699 55 q 3721 332 3720 239 l 3723 393 q 3727 497 3727 445 q 3657 886 3727 792 q 3552 942 3613 942 q 3445 886 3491 942 q 3382 741 3397 819 q 3364 581 3368 662 q 3361 537 3363 559 q 3353 324 3353 431 q 3360 121 3353 265 q 3375 -15 3362 53 q 3438 -132 3389 -82 l 3439 -132 q 3511 -164 3476 -164 z "},"1":{"ha":734,"x_min":-6698,"x_max":-6005,"o":"m -6228 -507 q -6295 -498 -6264 -507 q -6361 -444 -6335 -488 q -6382 -370 -6379 -406 q -6386 -302 -6386 -333 l -6375 218 q -6365 723 -6370 470 q -6420 672 -6391 695 q -6510 639 -6463 639 q -6568 651 -6540 639 q -6639 698 -6608 668 q -6683 755 -6667 724 q -6698 815 -6698 786 q -6672 890 -6698 854 q -6628 941 -6651 918 l -6368 1203 q -6314 1253 -6342 1230 q -6211 1291 -6267 1291 q -6114 1265 -6163 1291 q -6030 1190 -6060 1240 q -6009 1122 -6012 1156 q -6005 1062 -6005 1089 q -6016 383 -6005 1022 l -6026 -263 q -6030 -347 -6026 -305 q -6114 -492 -6041 -467 q -6205 -506 -6156 -506 l -6228 -507 z "},"2":{"ha":1067,"x_min":-5934,"x_max":-4908,"o":"m -5031 -506 l -5787 -506 q -5918 -416 -5884 -506 q -5934 -319 -5934 -376 q -5923 -208 -5934 -250 q -5882 -125 -5912 -166 q -5716 92 -5817 -35 q -5400 515 -5518 339 q -5252 823 -5258 736 q -5247 871 -5247 838 q -5269 962 -5247 913 q -5362 1021 -5292 1011 l -5373 1022 q -5465 982 -5426 1022 q -5521 882 -5504 943 q -5532 810 -5532 845 q -5528 769 -5532 789 q -5524 737 -5524 752 q -5675 611 -5524 642 q -5750 602 -5715 602 q -5819 612 -5779 602 q -5876 693 -5859 623 q -5890 814 -5890 756 q -5853 995 -5890 897 q -5699 1182 -5816 1093 q -5372 1289 -5552 1289 q -5134 1232 -5247 1289 q -4908 844 -4908 1112 q -4987 536 -4908 703 q -5174 221 -5058 388 q -5436 -129 -5290 54 l -5495 -203 l -5022 -203 q -4957 -227 -4978 -203 q -4928 -287 -4935 -250 q -4921 -368 -4921 -325 q -4930 -443 -4921 -412 q -4964 -490 -4940 -474 q -5031 -506 -4987 -506 z "},"3":{"ha":1151,"x_min":-4877,"x_max":-3767,"o":"m -4393 -555 q -4483 -551 -4430 -555 q -4638 -518 -4560 -545 q -4743 -434 -4732 -486 q -4746 -405 -4746 -420 q -4726 -313 -4746 -370 q -4693 -233 -4711 -264 q -4625 -184 -4666 -184 q -4571 -200 -4603 -184 q -4415 -245 -4498 -235 q -4380 -247 -4397 -247 q -4274 -225 -4327 -247 q -4113 -54 -4165 -173 q -4093 44 -4093 -7 q -4098 103 -4093 60 q -4172 193 -4103 146 q -4309 241 -4234 230 q -4460 252 -4384 252 l -4461 252 q -4591 414 -4591 252 q -4481 552 -4591 532 q -4436 568 -4478 552 q -4239 692 -4314 613 q -4186 823 -4186 749 q -4201 904 -4186 862 q -4251 975 -4217 946 q -4353 1013 -4299 1013 q -4393 1008 -4373 1013 q -4524 925 -4466 987 q -4613 794 -4583 863 q -4667 752 -4630 752 q -4812 823 -4711 752 q -4869 888 -4851 850 q -4877 922 -4877 904 q -4863 975 -4877 947 q -4604 1223 -4776 1139 q -4348 1284 -4479 1284 q -4166 1251 -4249 1284 q -3950 1074 -4032 1194 q -3869 817 -3869 956 q -3873 743 -3869 804 q -3929 592 -3876 682 q -4081 460 -3982 502 q -3944 405 -4021 460 q -3783 162 -3824 317 q -3767 34 -3767 98 q -3794 -141 -3767 -37 q -3918 -354 -3821 -245 q -4129 -503 -4004 -450 q -4393 -555 -4254 -555 z "},"4":{"ha":1205,"x_min":-3728,"x_max":-2563,"o":"m -2810 -496 q -2884 -488 -2847 -496 q -2935 -422 -2921 -479 q -2939 -373 -2939 -403 q -2941 -246 -2941 -340 q -2939 21 -2941 -117 q -2955 33 -2947 26 q -3008 40 -2965 37 q -3043 41 -3023 41 q -3144 37 -3083 41 q -3437 -1 -3306 21 q -3572 -18 -3543 -18 q -3629 -1 -3603 -18 q -3682 57 -3655 17 q -3722 128 -3709 92 q -3728 160 -3728 144 q -3717 203 -3728 182 q -3610 481 -3661 313 q -3535 817 -3559 650 q -3522 970 -3522 901 q -3534 1090 -3522 1038 q -3537 1120 -3537 1106 q -3411 1218 -3537 1190 q -3330 1232 -3366 1232 q -3288 1227 -3317 1232 q -3242 1165 -3259 1223 q -3221 977 -3221 1080 q -3227 850 -3221 941 q -3267 605 -3234 758 q -3347 317 -3301 452 q -3049 342 -3174 342 q -2932 335 -2984 342 q -2932 374 -2932 354 q -2917 870 -2925 669 q -2907 1089 -2912 1037 q -2804 1194 -2896 1175 q -2705 1201 -2764 1201 q -2636 1192 -2666 1201 q -2586 1133 -2606 1183 q -2563 867 -2563 1072 q -2569 627 -2563 768 l -2571 582 q -2580 77 -2578 300 l -2584 -38 q -2587 -193 -2587 -115 q -2583 -362 -2587 -277 l -2582 -380 q -2755 -494 -2582 -491 q -2810 -496 -2784 -496 z "},"5":{"ha":1213,"x_min":-2515,"x_max":-1343,"o":"m -2074 -614 q -2426 -485 -2294 -613 q -2463 -402 -2463 -446 q -2452 -349 -2463 -387 q -2386 -258 -2441 -311 q -2262 -193 -2335 -207 l -2254 -192 q -2205 -221 -2234 -192 q -2187 -237 -2196 -230 q -2018 -294 -2110 -294 q -1925 -278 -1971 -294 q -1754 -131 -1821 -233 q -1679 109 -1679 -16 q -1734 345 -1679 241 q -1879 468 -1790 448 q -1898 469 -1888 469 q -2037 411 -1960 469 q -2158 246 -2114 352 q -2252 162 -2189 173 q -2298 158 -2275 158 q -2383 170 -2339 158 q -2441 191 -2412 177 q -2509 275 -2496 216 q -2515 344 -2515 304 q -2497 660 -2515 442 q -2456 1060 -2471 973 q -2410 1152 -2446 1114 q -2323 1202 -2374 1190 q -1805 1213 -2289 1213 q -1590 1208 -1636 1213 q -1512 1150 -1529 1197 q -1499 1082 -1499 1120 q -1503 1040 -1499 1062 q -1533 946 -1510 983 q -1611 908 -1556 909 l -1630 909 q -1800 911 -1663 911 q -2116 909 -1937 911 l -2141 608 q -1992 723 -2079 698 q -1860 742 -1926 742 q -1565 644 -1692 742 q -1394 407 -1454 557 q -1343 116 -1343 279 q -1479 -321 -1343 -138 q -1808 -564 -1600 -484 q -2074 -614 -1945 -614 z "},"6":{"ha":1165,"x_min":-1268,"x_max":-144,"o":"m -760 -572 q -853 -567 -804 -572 q -1078 -483 -977 -557 q -1225 -277 -1183 -403 q -1268 -81 -1267 -152 q -1268 -5 -1268 -9 q -1249 240 -1268 127 q -1094 828 -1199 546 q -894 1239 -989 1111 q -802 1292 -852 1292 q -680 1240 -747 1292 q -606 1156 -621 1194 q -591 1096 -591 1118 q -610 1023 -591 1061 q -703 825 -637 972 q -818 543 -769 677 q -748 614 -806 576 q -631 665 -676 664 q -578 667 -586 667 q -434 636 -505 667 q -297 544 -356 603 q -144 149 -144 385 q -218 -186 -144 -22 q -450 -477 -300 -368 q -760 -572 -580 -572 m -774 -324 q -694 -309 -733 -324 q -580 -234 -631 -284 q -498 -124 -529 -184 q -425 193 -425 26 l -425 210 q -469 354 -426 289 q -565 423 -522 421 q -614 425 -609 425 q -749 373 -690 425 q -832 243 -804 317 q -907 -66 -896 95 l -907 -71 q -909 -132 -909 -99 l -909 -174 q -829 -317 -904 -296 q -774 -324 -801 -324 z "},"7":{"ha":1131,"x_min":-315,"x_max":774,"o":"m 96 -513 q -11 -498 62 -513 q -43 -492 -15 -496 q -138 -463 -102 -483 q -168 -404 -168 -447 q -166 -384 -168 -394 q -51 -59 -161 -323 q 321 793 58 205 l 355 869 l -224 869 q -285 888 -266 869 q -310 940 -304 907 q -315 1015 -315 973 q -310 1092 -315 1057 q -224 1170 -298 1170 l 622 1170 q 754 1054 705 1170 q 774 970 774 1002 q 746 870 774 930 q 647 648 669 695 l 475 261 q 186 -438 215 -328 q 149 -500 178 -485 q 96 -513 127 -513 z "},"8":{"ha":1005,"x_min":831,"x_max":1796,"o":"m 1333 -523 q 1208 -517 1271 -523 q 1089 -490 1145 -511 q 992 -429 1033 -470 q 903 -285 943 -380 q 867 -72 867 -201 l 867 -41 q 920 188 877 83 q 1007 372 962 292 l 1023 401 l 1001 419 q 885 536 918 483 q 831 741 831 627 q 857 909 831 822 q 1040 1192 908 1082 q 1262 1296 1140 1272 q 1356 1305 1310 1305 q 1521 1274 1429 1305 q 1693 1135 1614 1243 q 1781 927 1756 1041 q 1796 791 1796 858 q 1790 705 1796 747 q 1674 414 1767 551 q 1667 390 1667 402 q 1672 369 1667 380 q 1785 9 1785 174 q 1780 -64 1785 -26 q 1649 -382 1754 -259 q 1333 -523 1530 -523 m 1310 -247 q 1389 -215 1350 -247 q 1455 -131 1428 -183 q 1485 -6 1485 -71 q 1372 205 1485 128 q 1314 237 1331 231 q 1299 243 1305 243 q 1287 233 1293 243 l 1276 205 q 1223 77 1248 146 q 1192 -79 1192 -9 q 1223 -191 1192 -140 q 1310 -247 1261 -247 m 1465 545 q 1493 634 1478 569 l 1495 640 q 1515 790 1515 715 q 1472 990 1515 912 q 1419 1047 1451 1026 q 1371 1062 1398 1062 q 1282 1023 1324 1062 q 1205 916 1235 981 q 1175 783 1175 850 q 1176 747 1175 782 q 1222 660 1176 712 q 1299 607 1255 626 q 1390 572 1343 587 q 1465 545 1429 560 z "},"9":{"ha":1180,"x_min":1845,"x_max":2985,"o":"m 2391 -576 q 2373 -573 2382 -576 q 2276 -514 2325 -560 q 2210 -427 2220 -464 q 2199 -374 2199 -391 q 2226 -292 2199 -334 q 2336 -103 2257 -245 q 2476 167 2415 38 q 2400 102 2457 131 q 2264 73 2336 73 q 2168 85 2218 73 q 1957 213 2041 117 q 1859 406 1873 316 q 1845 545 1845 496 q 1870 732 1845 634 q 2094 1122 1925 959 q 2488 1276 2263 1276 q 2811 1164 2673 1276 q 2965 906 2925 1073 q 2985 718 2985 812 q 2976 597 2985 657 q 2902 297 2956 444 q 2778 14 2847 149 q 2623 -278 2702 -142 q 2443 -547 2544 -414 q 2391 -576 2420 -576 m 2301 302 q 2422 342 2369 302 q 2654 748 2610 488 q 2662 837 2662 798 q 2630 972 2662 921 q 2551 1029 2604 1011 q 2496 1037 2525 1037 q 2401 1017 2450 1037 q 2250 907 2311 981 q 2157 741 2189 833 q 2116 526 2116 625 q 2129 429 2116 477 q 2203 330 2147 368 q 2301 302 2248 302 z "}," ":{"ha":345,"x_min":0,"x_max":0,"o":""}," ":{"ha":345,"x_min":0,"x_max":0,"o":""},"!":{"ha":378,"x_min":20,"x_max":357,"o":"m 336 -509 l 338 -508 l 335 -509 l 337 -508 l 340 -507 l 340 -508 l 336 -509 m 180 -578 q 130 -575 154 -578 q 50 -544 73 -570 q 22 -477 26 -517 q 20 -431 20 -454 q 22 -393 20 -412 l 31 172 q 31 224 31 198 l 45 1179 q 95 1247 47 1227 q 216 1267 142 1267 l 224 1267 q 321 1245 285 1267 q 357 1177 357 1223 l 357 1176 q 347 794 351 985 q 328 -380 328 79 l 328 -501 q 294 -557 327 -541 q 180 -578 256 -578 m 189 -908 q 117 -904 149 -908 q 65 -882 84 -899 q 46 -825 46 -865 l 46 -711 q 65 -658 46 -673 q 115 -638 84 -642 q 163 -635 138 -635 q 264 -640 231 -635 q 311 -661 294 -644 q 328 -718 328 -678 l 332 -841 q 312 -889 332 -875 q 261 -905 293 -903 q 189 -908 229 -908 z "},"\"":{"ha":713,"x_min":20,"x_max":692,"o":"m 139 728 q 106 741 119 728 q 43 852 43 800 q 74 910 43 884 q 126 1032 111 943 q 71 1042 95 1034 q 34 1070 47 1050 q 20 1124 20 1089 l 20 1251 q 42 1312 20 1294 q 98 1333 63 1329 q 164 1337 129 1337 q 266 1332 231 1337 q 319 1309 300 1328 q 338 1244 338 1289 q 339 1185 338 1215 q 340 1134 340 1160 q 204 751 340 867 q 139 728 173 728 m 491 728 q 457 741 471 728 q 423 781 444 754 q 394 850 394 816 q 426 910 394 884 q 478 1032 463 943 q 423 1042 447 1034 q 386 1070 399 1050 q 372 1124 372 1089 l 372 1251 q 394 1312 372 1294 q 450 1333 415 1329 q 516 1337 481 1337 q 617 1332 583 1337 q 671 1309 652 1328 q 690 1244 690 1289 q 691 1185 690 1215 q 692 1134 692 1160 q 555 751 692 866 q 491 728 525 728 z "},"#":{"ha":1311,"x_min":20,"x_max":1291,"o":"m 887 -322 q 856 -320 876 -322 q 816 -301 835 -318 q 797 -245 797 -283 q 803 -54 797 -223 q 540 -55 669 -54 q 536 -189 536 -165 q 514 -253 536 -232 q 457 -279 493 -273 q 377 -286 420 -286 q 297 -279 333 -286 q 240 -253 261 -273 q 218 -189 218 -232 q 222 -58 218 -161 l 185 -58 q 132 -41 153 -58 q 103 5 112 -23 q 94 66 94 34 q 115 148 94 116 q 185 180 136 180 l 233 180 l 242 406 q 102 402 140 405 l 99 402 q 39 437 54 402 q 20 550 20 479 q 30 609 20 582 q 87 640 39 635 q 253 644 126 642 l 261 817 q 312 901 266 881 q 400 917 349 917 q 536 891 488 917 q 578 806 578 867 q 570 648 578 798 l 831 648 l 840 897 q 885 967 844 952 q 960 978 917 978 q 1081 959 1041 978 q 1118 888 1118 941 l 1108 645 q 1229 638 1200 643 q 1286 593 1276 629 q 1291 554 1291 576 q 1286 508 1291 533 q 1275 454 1282 478 q 1253 416 1267 431 q 1209 402 1238 402 q 1191 404 1200 402 q 1099 408 1170 406 l 1090 183 q 1177 179 1151 182 q 1230 134 1223 172 q 1232 97 1232 117 q 1228 45 1232 73 q 1220 -17 1225 5 q 1203 -47 1215 -37 q 1164 -58 1191 -58 q 1150 -57 1157 -58 q 1080 -54 1131 -56 q 1074 -245 1074 -219 q 1036 -303 1072 -290 q 963 -315 1000 -315 l 937 -318 q 887 -322 910 -322 m 550 183 l 812 184 l 821 410 l 559 410 l 550 183 z "},"$":{"ha":1066,"x_min":20,"x_max":1046,"o":"m 478 -465 q 447 -463 463 -465 q 405 -402 405 -460 l 405 -349 q 236 -295 311 -338 q 121 -175 161 -253 q 112 -141 112 -156 q 193 -66 112 -102 l 214 -56 q 272 -35 245 -37 q 328 -73 297 -35 q 407 -113 345 -97 l 410 323 q 184 432 285 368 q 20 708 20 542 l 21 724 q 191 1000 31 905 q 416 1070 292 1057 l 416 1094 q 428 1178 416 1143 q 481 1223 439 1213 q 551 1230 517 1230 q 580 1229 557 1230 q 631 1206 603 1229 q 667 1099 667 1175 q 666 1068 667 1072 q 886 1013 817 1048 q 924 958 924 993 q 923 937 924 956 q 899 874 922 918 q 820 798 863 798 q 782 808 802 798 q 662 838 726 833 l 657 475 q 869 368 772 432 q 1046 56 1046 244 q 935 -192 1046 -85 q 654 -335 831 -292 l 654 -402 q 530 -464 654 -463 l 500 -464 l 478 -465 m 412 570 l 414 838 q 407 836 410 836 q 401 835 404 836 q 268 791 310 819 q 230 726 230 766 q 412 570 230 648 m 654 -100 q 781 -55 724 -87 q 852 49 838 -24 q 854 63 854 56 q 802 151 854 111 q 656 230 750 192 l 654 -100 z "},"%":{"ha":1050,"x_min":20,"x_max":1029,"o":"m 273 -565 q 150 -534 232 -565 l 149 -534 q 98 -514 118 -524 q 66 -469 66 -498 q 76 -429 66 -452 q 668 1126 204 -90 q 771 1236 707 1236 q 787 1235 779 1236 q 874 1211 833 1227 q 948 1109 948 1180 q 929 1025 948 1073 q 334 -529 642 299 q 273 -565 321 -565 m 273 722 q 174 739 225 722 q 101 782 129 754 q 33 913 51 839 q 20 1004 20 958 l 21 1025 q 150 1263 34 1172 q 274 1301 206 1301 l 288 1301 q 412 1261 356 1301 q 496 1134 473 1213 q 507 1031 507 1090 q 420 777 507 872 q 273 722 363 722 m 262 825 q 307 854 284 825 q 345 935 330 883 q 361 1051 361 986 q 349 1123 361 1092 q 322 1173 338 1154 q 295 1192 307 1191 q 281 1192 283 1192 q 204 1114 241 1192 q 184 1010 184 1072 q 191 933 184 973 q 260 825 206 831 l 262 825 m 795 -559 q 696 -542 749 -559 q 623 -500 651 -528 q 555 -369 573 -443 q 543 -277 543 -323 l 543 -256 q 672 -18 556 -109 q 798 20 729 20 l 810 20 q 934 -20 878 20 q 1019 -147 996 -68 q 1029 -250 1029 -191 q 941 -505 1029 -409 q 795 -559 886 -559 m 783 -456 q 829 -428 806 -456 q 867 -347 852 -399 q 883 -231 883 -295 q 871 -158 883 -189 q 844 -109 860 -127 q 818 -90 829 -90 q 805 -89 806 -89 q 726 -168 763 -89 q 706 -272 706 -210 q 736 -422 706 -366 q 782 -456 753 -453 l 783 -456 z "},"&":{"ha":1500,"x_min":20,"x_max":1480,"o":"m 509 -838 l 500 -838 q 261 -787 378 -838 q 72 -623 140 -734 q 20 -392 20 -531 q 41 -233 20 -311 q 150 26 75 -100 q 319 276 225 153 q 167 743 199 484 q 156 913 156 831 q 224 1261 156 1112 q 487 1504 309 1436 q 724 1552 612 1552 l 734 1552 q 956 1494 861 1552 q 1102 1339 1059 1432 q 1145 1151 1145 1246 q 1132 1017 1145 1089 q 1039 751 1102 878 q 892 506 976 625 q 718 273 809 387 q 1052 64 857 135 q 1090 176 1074 125 l 1097 193 q 1150 260 1118 253 q 1198 268 1181 268 q 1276 253 1234 268 q 1372 199 1341 232 q 1402 129 1402 165 q 1391 73 1402 109 q 1359 -14 1368 9 q 1450 -52 1424 -33 q 1478 -87 1476 -71 q 1480 -112 1480 -104 q 1475 -160 1480 -133 q 1472 -181 1473 -170 q 1433 -269 1464 -241 q 1338 -304 1402 -296 q 1297 -307 1320 -307 q 1236 -304 1270 -307 q 1147 -464 1198 -380 q 875 -733 1042 -633 q 509 -838 707 -834 m 508 -581 q 876 -298 703 -581 q 920 -224 900 -260 q 609 -52 762 -165 q 524 20 564 -18 q 338 -395 338 -231 q 404 -553 338 -510 q 508 -581 450 -581 m 536 555 q 714 817 637 685 q 822 1082 791 949 q 833 1185 833 1139 q 787 1317 833 1282 q 736 1331 766 1331 q 648 1304 696 1331 q 551 1206 595 1274 q 490 1056 507 1139 q 474 903 474 974 q 536 555 474 720 z "},"'":{"ha":360,"x_min":20,"x_max":340,"o":"m 138 728 q 105 741 119 728 q 71 781 91 754 q 42 852 42 816 q 73 910 42 884 q 126 1032 112 943 q 71 1042 95 1034 q 34 1070 47 1050 q 20 1124 20 1089 l 20 1251 q 42 1312 20 1294 q 98 1333 63 1329 q 163 1337 128 1337 q 265 1332 231 1337 q 318 1309 299 1328 q 338 1244 338 1289 l 338 1185 q 340 1133 340 1159 q 203 751 340 867 q 138 728 173 728 z "},"(":{"ha":531,"x_min":20,"x_max":511,"o":"m 300 -761 l 296 -761 q 41 -236 96 -761 q 20 199 20 -33 q 58 770 20 494 q 265 1357 119 1208 q 328 1388 296 1388 q 353 1383 341 1388 q 442 1320 397 1367 q 511 1210 511 1257 q 481 1147 511 1179 q 386 898 436 1105 q 323 311 336 691 q 320 163 320 237 q 413 -502 320 -307 q 437 -586 437 -549 q 403 -682 437 -625 q 362 -736 385 -713 q 300 -761 338 -758 z "},")":{"ha":500,"x_min":20,"x_max":480,"o":"m 229 -755 q 123 -726 172 -755 q 58 -660 68 -692 q 48 -612 48 -628 q 74 -543 48 -578 q 145 -270 111 -496 q 179 328 179 -43 l 179 342 q 134 948 174 711 q 45 1246 94 1185 q 20 1312 20 1278 q 26 1347 20 1329 q 95 1439 45 1398 q 169 1480 144 1479 q 195 1482 193 1482 q 278 1436 239 1482 q 444 907 396 1287 q 480 345 480 620 l 480 297 q 447 -281 480 -22 q 312 -727 398 -631 q 229 -755 286 -755 z "},"*":{"ha":919,"x_min":20,"x_max":899,"o":"m 425 -125 q 377 -120 399 -125 q 341 -100 355 -115 q 327 -60 328 -86 l 327 -20 q 330 179 327 50 q 233 96 272 130 q 189 58 200 66 q 159 40 171 44 q 127 35 147 35 q 94 47 111 35 q 20 143 20 101 q 42 191 20 166 q 288 403 68 220 q 42 694 42 644 q 94 768 42 730 q 167 800 134 800 q 216 772 194 800 q 348 624 262 711 q 371 873 358 808 q 448 933 385 933 q 480 930 463 933 q 547 895 522 920 q 566 848 566 876 q 564 830 566 840 q 546 616 555 783 q 732 777 709 753 q 789 804 759 804 q 811 802 792 804 q 860 771 829 800 q 899 694 899 734 q 876 640 899 665 q 586 392 831 595 q 810 195 758 233 q 842 140 842 172 q 841 121 842 139 q 816 70 840 104 l 807 56 q 785 27 796 39 q 753 15 773 15 q 696 33 724 15 q 528 176 649 67 q 525 -14 525 56 l 525 -54 q 505 -96 525 -81 q 460 -118 484 -112 q 425 -125 435 -125 z "},"+":{"ha":896,"x_min":20,"x_max":896,"o":"m 461 5 l 446 6 q 347 16 383 6 q 299 78 311 26 q 296 145 296 94 q 298 281 296 207 q 135 276 180 281 l 119 275 q 24 392 37 275 q 20 433 20 413 q 33 499 20 465 q 99 543 45 534 q 309 551 161 551 l 317 711 q 457 817 326 817 q 618 696 618 817 l 611 548 l 713 546 q 817 545 788 545 q 883 508 871 544 q 896 392 896 471 q 885 313 896 348 q 813 275 874 275 q 600 279 766 275 q 597 124 597 189 q 552 31 595 59 q 461 5 515 5 z "},",":{"ha":412,"x_min":20,"x_max":392,"o":"m 157 -783 q 119 -768 135 -783 q 79 -721 107 -756 q 45 -640 45 -680 q 82 -570 45 -601 q 143 -429 127 -532 q 79 -417 107 -427 q 36 -385 52 -408 q 20 -323 20 -363 l 20 -174 q 45 -104 20 -125 q 111 -79 70 -83 q 189 -75 146 -75 q 305 -81 265 -75 q 367 -109 345 -86 q 389 -182 389 -131 q 391 -252 389 -217 q 392 -307 392 -279 q 389 -385 392 -346 q 233 -756 373 -637 q 157 -783 197 -783 z "},"-":{"ha":1108,"x_min":20,"x_max":1088,"o":"m 993 255 q 528 259 883 259 q 124 256 213 259 l 113 255 q 33 337 48 255 q 20 456 20 398 q 32 530 20 496 q 101 572 43 565 q 527 576 163 576 q 1004 572 892 576 q 1076 525 1062 568 q 1088 443 1088 492 q 1069 302 1088 352 q 993 255 1050 255 z "},"­":{"ha":1108,"x_min":20,"x_max":1088,"o":"m 993 255 q 528 259 883 259 q 124 256 213 259 l 113 255 q 33 337 48 255 q 20 456 20 398 q 32 530 20 496 q 101 572 43 565 q 527 576 163 576 q 1004 572 892 576 q 1076 525 1062 568 q 1088 443 1088 492 q 1069 302 1088 352 q 993 255 1050 255 z "},".":{"ha":366,"x_min":20,"x_max":345,"o":"m 182 -484 q 101 -479 138 -484 q 42 -454 64 -474 q 20 -389 20 -434 l 20 -260 q 42 -199 20 -217 q 99 -177 64 -181 q 165 -174 130 -174 q 268 -178 233 -174 q 322 -202 303 -183 q 342 -267 342 -222 l 345 -407 q 323 -461 345 -446 q 264 -480 301 -477 q 182 -484 228 -484 z "},"/":{"ha":1023,"x_min":20,"x_max":1002,"o":"m 250 -647 q 148 -625 210 -647 l 113 -612 l 113 -612 q 56 -590 78 -601 q 20 -539 20 -573 q 31 -494 20 -521 q 110 -288 70 -391 l 691 1238 q 739 1329 709 1290 q 806 1360 764 1360 q 823 1359 814 1360 q 920 1332 874 1350 q 989 1275 966 1314 q 1002 1219 1002 1251 q 981 1126 1002 1179 q 319 -607 661 316 q 250 -647 304 -647 z "},":":{"ha":366,"x_min":20,"x_max":345,"o":"m 183 597 q 101 602 138 597 q 42 626 64 606 q 20 691 20 646 l 20 820 q 42 881 20 863 q 100 903 64 899 q 157 907 126 907 q 268 902 232 907 q 322 878 303 897 q 342 813 342 858 l 345 673 q 323 618 345 634 q 265 600 302 603 q 183 597 228 597 m 183 -47 q 101 -42 138 -47 q 42 -17 64 -37 q 20 47 20 3 l 20 177 q 42 238 20 220 q 100 260 64 256 q 166 263 130 263 q 269 259 234 263 q 322 235 303 254 q 342 170 342 215 l 345 30 q 323 -25 345 -9 q 265 -44 302 -41 q 183 -47 228 -47 z "},";":{"ha":412,"x_min":20,"x_max":391,"o":"m 182 597 q 100 602 137 597 q 42 626 64 606 q 20 691 20 646 l 20 820 q 42 881 20 863 q 99 903 63 899 q 157 907 125 907 q 267 902 231 907 q 322 878 302 897 q 341 813 341 858 l 345 673 q 323 618 345 634 q 264 600 301 603 q 182 597 227 597 m 157 -381 q 119 -366 135 -381 q 89 -332 103 -351 l 79 -319 q 45 -237 45 -279 q 82 -169 45 -199 q 143 -28 127 -130 q 79 -16 106 -26 q 36 16 52 -6 q 20 79 20 39 l 20 227 q 45 297 20 277 q 111 323 70 318 q 186 326 145 326 q 304 321 264 326 q 367 294 345 316 q 389 219 389 271 q 390 151 389 184 q 391 90 391 120 q 233 -355 391 -218 q 157 -381 197 -381 z "},"<":{"ha":838,"x_min":20,"x_max":838,"o":"m 736 28 q 617 47 719 28 q 414 87 530 62 q 125 175 208 130 q 28 295 43 219 q 20 354 20 326 q 22 380 20 368 q 64 449 28 420 q 201 545 112 483 q 601 829 385 668 q 661 852 633 852 q 686 848 673 852 q 760 786 725 833 q 801 712 796 739 q 806 677 806 684 q 769 608 806 639 q 433 367 595 477 q 759 303 590 332 q 826 260 814 293 q 838 197 838 227 q 819 91 838 144 q 736 28 795 28 z "},"=":{"ha":1088,"x_min":20,"x_max":1088,"o":"m 993 -48 q 528 -44 884 -44 q 125 -47 214 -44 l 113 -48 q 33 34 48 -48 q 20 152 20 95 q 32 227 20 192 q 102 269 43 262 q 528 273 158 273 q 1004 269 901 273 q 1077 222 1062 265 q 1088 140 1088 189 q 1069 -1 1088 46 q 993 -48 1051 -48 m 993 515 q 528 519 884 519 q 125 515 214 519 l 113 515 q 58 537 76 515 q 33 597 39 560 q 20 715 20 659 q 32 790 20 755 q 102 831 43 825 q 593 836 166 836 q 1004 831 885 836 q 1077 785 1062 828 q 1088 704 1088 751 q 1069 562 1088 610 q 993 515 1051 515 z "},">":{"ha":911,"x_min":20,"x_max":911,"o":"m 126 -60 q 80 -45 97 -60 q 53 -6 63 -31 q 34 48 43 18 l 33 51 q 20 122 20 90 q 23 150 20 136 q 85 211 32 193 q 513 357 316 283 q 254 517 375 441 q 122 600 165 573 q 79 667 79 627 q 114 769 79 713 q 215 852 161 852 q 265 837 238 852 l 401 753 q 852 480 709 559 q 902 426 892 457 q 911 365 911 394 q 857 224 911 276 q 743 152 813 182 q 275 -20 583 80 l 168 -54 q 126 -60 146 -60 z "},"?":{"ha":1204,"x_min":20,"x_max":1183,"o":"m 526 -374 l 507 -374 q 396 -350 437 -374 q 367 -307 370 -336 q 365 -247 365 -276 q 500 216 365 -16 q 640 434 566 328 q 748 598 696 515 q 839 817 825 728 q 852 943 852 906 q 821 1083 852 1025 q 677 1150 789 1147 q 435 1054 539 1150 q 374 963 396 1017 q 351 853 351 909 q 357 784 351 821 q 359 765 359 774 q 323 705 359 721 q 210 677 279 685 q 122 668 161 668 q 92 669 106 668 q 31 734 43 675 q 20 851 20 794 q 192 1257 20 1084 q 423 1406 296 1360 q 673 1452 550 1452 q 722 1450 697 1452 q 1113 1225 990 1426 q 1181 1034 1179 1109 q 1183 947 1183 960 q 1146 699 1183 823 q 1038 452 1106 564 q 922 276 981 360 q 803 92 857 182 q 723 -81 749 3 q 696 -249 696 -165 q 697 -287 696 -267 l 697 -296 q 662 -357 697 -344 q 564 -372 627 -371 l 526 -374 m 537 -750 q 447 -745 488 -750 q 383 -721 407 -741 q 359 -656 359 -701 l 359 -526 q 382 -466 359 -484 q 446 -444 406 -448 q 509 -440 475 -440 q 632 -445 591 -440 q 691 -469 669 -450 q 712 -534 712 -488 l 715 -673 q 692 -728 715 -712 q 627 -747 668 -744 q 537 -750 587 -750 z "},"@":{"ha":2083,"x_min":20,"x_max":2063,"o":"m 964 -699 q 801 -686 882 -699 q 490 -566 638 -661 q 228 -317 342 -470 q 20 315 20 -27 q 24 408 20 361 q 280 1101 64 828 q 775 1428 477 1345 q 1030 1461 905 1461 q 1691 1147 1458 1461 q 1828 798 1803 985 q 1838 654 1838 726 q 1806 398 1838 542 q 1693 115 1775 254 q 1318 -161 1531 -156 q 1101 -50 1184 -161 l 1099 -47 q 941 -186 1031 -147 q 753 -225 852 -225 q 587 -189 652 -225 q 491 -95 529 -156 q 400 238 400 45 q 452 558 400 383 q 709 1001 542 878 q 947 1082 825 1082 q 1193 977 1089 1082 q 1246 905 1224 943 q 1276 861 1260 882 q 1289 844 1282 853 l 1289 844 q 1324 796 1308 821 q 1353 692 1353 751 q 1343 610 1353 660 l 1339 581 q 1316 306 1316 433 q 1321 217 1316 262 q 1335 149 1326 171 q 1458 313 1395 188 q 1526 526 1505 410 q 1537 653 1537 590 q 1525 791 1537 706 q 1445 972 1512 876 q 1194 1137 1356 1092 q 1027 1160 1112 1160 q 854 1137 943 1160 q 491 878 627 1074 q 324 380 354 682 q 321 315 321 347 q 388 2 321 155 q 580 -258 455 -150 q 845 -389 705 -366 q 965 -397 905 -397 q 1313 -324 1148 -396 q 1598 -125 1478 -252 q 1769 168 1718 2 q 1841 233 1786 227 l 1848 233 q 1944 216 1893 233 q 2007 194 1977 208 q 2063 120 2063 170 q 2058 84 2063 104 q 1575 -526 1942 -298 q 964 -699 1289 -697 m 753 -35 q 828 4 792 -35 q 897 115 864 43 q 960 273 929 187 q 1028 525 998 378 q 1035 569 1034 555 q 1039 596 1036 583 q 1053 736 1053 667 q 1053 777 1053 739 q 1025 851 1053 815 q 982 869 1008 869 q 869 764 935 869 q 744 469 805 663 q 704 312 724 404 q 678 104 678 193 q 699 -5 678 36 q 753 -35 715 -35 z "},"A":{"ha":1274,"x_min":20,"x_max":1254,"o":"m 273 -404 q 182 -388 234 -404 l 153 -380 q 55 -342 95 -365 q 20 -282 20 -322 q 86 33 20 -252 q 223 562 140 271 q 393 1050 288 786 q 473 1184 429 1141 q 582 1237 517 1226 q 706 1246 633 1246 l 748 1245 q 941 1207 882 1245 q 1031 1063 1000 1168 q 1143 640 1103 845 q 1245 -167 1207 283 q 1250 -218 1247 -195 q 1254 -272 1254 -262 q 1215 -349 1254 -325 q 1101 -381 1175 -373 q 1028 -388 1062 -388 q 954 -378 996 -388 q 899 -299 912 -369 q 889 -199 894 -251 q 878 -79 885 -148 q 867 -68 878 -68 l 718 -64 q 515 -60 595 -60 q 458 -62 476 -60 l 443 -64 q 427 -77 431 -65 q 391 -244 406 -174 q 372 -336 380 -304 q 273 -404 353 -404 m 828 210 q 840 215 836 210 q 845 227 845 220 l 845 229 q 807 490 829 357 q 714 892 755 783 q 538 367 637 723 q 500 224 500 229 q 508 216 500 216 l 528 216 q 828 210 634 216 z "},"B":{"ha":1305,"x_min":20,"x_max":1285,"o":"m 462 -471 q 334 -465 398 -471 q 239 -453 286 -461 q 168 -431 201 -447 q 78 -315 98 -392 q 20 434 20 -72 q 61 1082 20 828 q 105 1219 73 1157 q 211 1310 137 1280 q 386 1345 275 1333 q 583 1358 476 1358 q 701 1354 618 1358 q 895 1298 783 1350 q 1069 1126 1006 1246 q 1107 960 1107 1044 q 1094 851 1107 927 q 994 678 1081 775 q 1162 553 1090 631 q 1265 371 1234 475 q 1285 224 1285 302 q 1241 -4 1285 113 q 1109 -223 1198 -121 q 840 -406 994 -349 q 462 -471 663 -471 m 431 730 q 505 741 467 730 q 636 790 574 762 q 755 865 698 819 q 800 924 785 890 q 807 958 807 941 q 799 992 807 975 q 627 1093 749 1084 q 556 1097 595 1097 l 526 1097 q 461 1081 500 1097 q 404 1025 422 1065 q 385 947 389 989 q 380 863 381 905 q 378 802 380 831 l 377 788 q 380 759 377 776 q 431 730 385 730 m 489 -176 q 576 -169 525 -176 q 833 -66 728 -154 q 968 146 932 21 q 979 220 979 183 q 964 308 979 264 q 773 442 920 417 q 591 457 688 457 q 517 454 562 457 q 414 435 472 451 q 379 408 385 426 q 376 380 376 396 l 380 249 q 387 23 387 138 l 387 8 q 399 -138 387 -66 q 438 -171 406 -163 q 489 -176 462 -176 z "},"C":{"ha":1226,"x_min":20,"x_max":1206,"o":"m 621 -450 q 477 -436 547 -450 q 344 -387 408 -422 q 226 -288 281 -351 q 48 83 97 -138 q 20 346 20 208 q 37 564 20 451 q 182 995 78 831 q 429 1230 287 1159 q 684 1292 552 1292 q 1161 1029 1053 1292 q 1206 796 1206 920 q 1202 730 1206 762 q 1144 650 1194 660 q 1091 645 1120 645 q 1021 650 1059 645 l 1003 652 q 915 665 954 656 q 837 752 837 683 q 838 769 837 760 q 839 791 839 779 q 793 949 839 894 q 722 975 773 975 q 685 970 703 975 q 477 774 555 933 q 385 355 385 583 q 439 58 385 200 q 585 -110 490 -77 q 629 -116 608 -116 q 701 -95 663 -116 q 769 -24 739 -74 q 809 79 800 26 q 880 171 824 153 q 949 181 911 181 q 1013 175 979 181 q 1173 43 1173 149 q 1133 -119 1173 -9 q 1033 -292 1102 -204 q 918 -389 981 -354 q 621 -450 804 -450 z "},"D":{"ha":1288,"x_min":20,"x_max":1268,"o":"m 279 -492 q 212 -489 255 -492 q 123 -452 170 -486 q 73 -378 89 -424 q 51 -290 58 -333 q 20 68 20 -113 q 47 552 20 271 q 97 964 64 759 q 155 1221 123 1129 q 357 1345 201 1336 q 414 1348 386 1348 q 484 1344 450 1348 q 828 1270 686 1329 q 1255 704 1185 1119 q 1268 543 1268 622 q 1155 81 1268 302 q 951 -193 1075 -70 q 674 -393 828 -315 q 347 -488 519 -471 q 279 -492 314 -492 m 408 -155 l 414 -155 q 719 26 576 -106 q 930 373 871 164 q 951 534 951 448 q 943 653 951 591 q 797 927 909 845 q 502 1022 684 1010 l 500 1022 q 477 1015 488 1022 q 416 658 454 997 q 380 83 380 337 q 398 -152 380 -140 q 408 -155 403 -155 z "},"E":{"ha":1006,"x_min":20,"x_max":985,"o":"m 534 -441 q 191 -409 362 -441 q 88 -337 123 -393 q 20 76 20 -227 q 25 278 20 177 q 109 1015 38 655 q 175 1208 132 1138 q 242 1260 201 1246 q 507 1282 305 1282 q 794 1267 652 1282 q 876 1254 833 1263 q 948 1221 918 1244 q 983 1156 978 1198 q 985 1101 985 1128 q 972 976 985 1038 q 922 928 960 937 q 860 921 890 921 q 688 926 762 921 q 511 932 626 929 q 473 927 492 932 q 447 894 453 922 l 439 851 q 389 482 412 707 q 388 470 388 475 q 389 458 388 465 q 410 439 392 442 q 448 435 422 435 q 701 422 594 433 q 772 380 760 414 q 781 319 781 355 q 779 292 781 307 l 779 279 q 683 119 771 125 q 635 117 676 117 l 595 117 q 504 120 513 119 l 473 121 q 434 123 453 123 q 380 119 406 123 q 367 53 372 103 q 363 -24 363 14 q 364 -64 363 -35 q 374 -107 364 -94 q 587 -128 474 -128 q 657 -127 593 -128 q 816 -113 720 -127 q 850 -109 834 -109 q 903 -123 878 -109 q 947 -185 928 -136 q 970 -291 970 -240 q 872 -410 970 -391 q 534 -441 703 -441 z "},"F":{"ha":1180,"x_min":20,"x_max":1160,"o":"m 172 -443 q 66 -414 101 -443 q 28 -303 32 -386 q 20 -41 20 -190 q 25 228 20 45 q 63 695 31 410 q 156 1211 95 980 l 157 1211 q 273 1332 179 1299 q 323 1344 283 1337 q 658 1360 416 1360 q 1083 1341 949 1360 q 1155 1293 1143 1333 q 1160 1253 1160 1276 q 1149 1167 1160 1218 q 1106 1059 1138 1084 q 981 1035 1074 1035 l 926 1035 q 475 1025 612 1032 q 392 389 418 760 q 679 400 544 400 q 755 398 730 400 q 835 342 824 391 q 841 281 841 315 q 837 220 841 253 l 837 214 l 836 210 q 825 122 833 161 q 738 42 810 42 l 726 43 q 675 44 707 44 q 377 31 541 44 l 376 -32 q 385 -277 376 -174 q 386 -307 386 -292 q 352 -402 386 -370 q 214 -441 319 -435 q 172 -443 191 -443 z "},"G":{"ha":1402,"x_min":20,"x_max":1382,"o":"m 709 -531 q 500 -491 603 -530 q 311 -374 397 -452 q 70 29 145 -220 q 20 387 20 197 q 35 604 20 492 q 109 884 58 764 q 223 1087 159 1004 q 347 1221 286 1170 q 743 1372 519 1372 q 827 1367 784 1372 q 1198 1168 1107 1333 q 1272 949 1257 1064 q 1280 833 1280 889 q 1270 707 1280 781 q 1154 504 1243 504 q 1126 504 1154 504 q 1028 536 1099 505 q 890 654 890 586 q 901 703 890 676 q 925 842 925 765 q 925 890 925 846 q 886 989 924 933 q 775 1038 847 1038 q 689 1019 731 1038 q 493 845 571 966 q 380 399 380 670 q 546 -111 380 84 q 675 -207 603 -180 q 736 -218 704 -218 q 899 -38 865 -218 q 911 111 911 31 q 911 153 911 140 q 756 145 825 151 q 666 140 699 140 q 601 166 619 142 q 576 239 582 191 q 572 282 572 262 q 579 334 572 304 q 633 372 586 363 q 925 383 720 383 q 1320 365 1215 383 q 1382 291 1382 353 q 1364 192 1382 251 q 1297 133 1346 133 q 1274 135 1286 133 l 1255 138 l 1255 120 q 1204 -165 1255 -20 q 1023 -425 1144 -328 q 709 -531 884 -531 z "},"H":{"ha":1322,"x_min":20,"x_max":1301,"o":"m 154 -480 q 93 -471 126 -480 q 46 -390 59 -463 q 20 83 20 -206 q 22 304 20 117 q 47 802 24 491 q 97 1240 69 1114 q 167 1328 115 1314 q 216 1334 189 1334 q 294 1323 251 1334 q 332 1315 314 1318 q 406 1296 374 1308 q 466 1202 466 1274 q 465 1174 466 1189 q 450 872 457 1094 q 437 536 446 720 q 444 519 437 526 q 460 512 451 512 l 463 512 q 711 517 568 516 q 902 519 774 517 q 920 527 913 519 q 927 545 927 534 l 928 1160 q 995 1258 928 1234 q 1130 1274 1041 1274 q 1255 1227 1208 1274 q 1301 1115 1300 1182 q 1295 -311 1301 81 q 1276 -361 1295 -342 q 1176 -409 1244 -395 q 1114 -416 1137 -416 l 1111 -416 q 1016 -410 1059 -416 q 947 -380 972 -404 q 922 -305 922 -356 q 926 178 924 -120 q 918 196 926 189 q 900 203 911 203 q 722 201 808 201 q 420 186 433 200 q 413 168 413 179 l 412 12 q 416 -333 412 -52 q 391 -424 416 -395 q 325 -461 366 -452 q 235 -473 284 -471 q 204 -476 230 -473 q 154 -480 178 -480 z "},"I":{"ha":892,"x_min":20,"x_max":871,"o":"m 154 -422 q 106 -418 128 -422 q 37 -299 37 -405 q 71 -151 37 -186 q 182 -117 104 -117 l 204 -117 q 242 -111 233 -117 q 248 -95 248 -107 l 248 -86 q 227 275 227 76 q 258 942 227 603 l 258 943 q 249 952 258 952 l 113 951 q 47 974 66 951 q 24 1031 28 996 q 20 1101 20 1065 q 22 1156 20 1128 q 32 1206 23 1183 q 113 1256 50 1256 q 234 1257 144 1256 q 768 1263 637 1263 q 838 1242 816 1263 q 865 1188 859 1221 q 871 1120 871 1155 q 859 1021 871 1060 q 768 958 837 958 l 631 957 q 616 943 617 956 q 610 863 616 904 q 604 816 606 840 q 585 297 585 557 q 596 -1 585 127 q 598 -22 597 -12 q 606 -91 602 -57 q 623 -108 609 -106 q 637 -109 630 -109 q 652 -107 644 -109 q 671 -106 659 -106 q 755 -126 728 -106 q 787 -175 781 -146 q 792 -229 792 -203 l 792 -262 q 774 -358 792 -315 q 691 -408 753 -405 q 468 -414 609 -412 q 191 -422 241 -417 l 171 -422 l 154 -422 z "},"J":{"ha":1165,"x_min":20,"x_max":1145,"o":"m 490 -494 q 304 -467 403 -494 q 122 -336 205 -440 q 20 -39 20 -200 q 86 209 20 87 q 178 274 124 274 q 295 235 231 274 q 382 166 361 201 q 391 125 391 150 q 378 54 391 95 q 361 -64 361 3 q 384 -162 361 -126 q 532 -224 435 -224 q 595 -215 565 -224 q 754 28 713 -175 q 783 339 781 159 l 783 395 q 747 841 783 601 l 738 911 q 714 1002 726 999 q 577 993 671 1000 q 415 983 448 983 q 354 1012 366 983 q 345 1089 345 1037 l 345 1109 q 345 1154 345 1135 l 344 1183 q 352 1263 344 1224 q 412 1312 361 1302 q 714 1329 472 1320 q 975 1334 900 1334 q 1086 1179 1044 1334 q 1135 831 1120 1048 q 1145 500 1145 671 q 1143 337 1145 395 q 1014 -258 1141 -21 q 490 -494 876 -494 z "},"K":{"ha":1272,"x_min":20,"x_max":1251,"o":"m 231 -431 l 203 -431 q 87 -415 137 -431 q 28 -333 37 -400 q 20 -79 20 -229 q 28 267 20 35 q 59 800 36 499 q 102 1217 81 1101 q 174 1308 118 1291 q 237 1316 203 1316 q 309 1308 270 1316 q 472 1177 472 1282 q 469 1147 472 1163 q 433 786 453 1054 q 1001 1271 661 985 q 1067 1301 1036 1301 q 1107 1288 1080 1301 q 1177 1221 1133 1275 q 1245 1116 1225 1168 q 1251 1086 1251 1100 q 1217 1019 1251 1050 l 1025 855 q 574 466 732 610 q 856 164 718 306 q 1098 -96 1001 16 q 1128 -169 1128 -134 q 1116 -215 1128 -184 q 1046 -288 1104 -246 q 939 -343 993 -330 q 915 -347 927 -347 q 844 -311 876 -347 q 616 -66 753 -207 q 399 163 511 41 q 394 -90 394 21 q 401 -299 394 -214 l 401 -312 q 353 -406 401 -381 q 231 -431 304 -431 z "},"L":{"ha":965,"x_min":20,"x_max":945,"o":"m 334 -406 q 247 -402 295 -406 q 153 -379 199 -399 q 54 -254 74 -340 q 20 262 20 -77 q 39 867 20 570 q 83 1285 57 1164 q 160 1370 101 1356 q 216 1377 186 1377 q 293 1367 252 1377 q 406 1322 367 1353 q 435 1251 435 1300 q 430 1206 435 1230 q 398 880 414 1118 q 376 252 376 554 q 389 -81 376 61 l 845 -81 q 909 -100 888 -81 q 945 -250 945 -135 q 925 -351 945 -311 q 659 -401 900 -401 l 616 -401 q 514 -403 566 -401 l 334 -406 z "},"M":{"ha":1754,"x_min":20,"x_max":1733,"o":"m 272 -414 q 216 -406 243 -414 q 60 -340 119 -382 q 20 -256 20 -313 q 72 161 20 -212 q 166 759 113 454 q 267 1213 219 1063 q 404 1293 296 1291 q 479 1289 446 1293 q 584 1225 551 1280 q 642 1084 616 1170 q 661 1025 650 1056 q 903 208 765 717 l 932 102 q 1116 798 972 244 q 1218 1183 1208 1147 q 1327 1284 1246 1276 q 1369 1286 1348 1286 q 1393 1285 1381 1286 q 1416 1284 1404 1284 l 1427 1284 q 1521 1267 1478 1284 q 1576 1180 1564 1249 q 1697 114 1632 808 q 1732 -218 1721 -129 q 1733 -243 1733 -231 q 1659 -334 1733 -314 q 1571 -350 1619 -345 q 1481 -359 1515 -359 q 1438 -355 1458 -359 q 1363 -270 1373 -341 q 1327 78 1352 -179 l 1301 342 q 1115 -187 1175 -45 q 977 -292 1080 -284 l 954 -295 q 874 -302 914 -302 q 831 -300 853 -302 q 769 -268 793 -292 q 685 -100 718 -220 q 631 83 669 -52 l 628 91 q 503 517 606 173 q 432 50 463 274 q 391 -281 401 -175 q 370 -352 388 -319 q 327 -400 352 -386 q 272 -414 302 -414 z "},"N":{"ha":1345,"x_min":20,"x_max":1325,"o":"m 990 -366 q 895 -315 934 -366 q 687 58 776 -137 q 604 222 647 141 q 491 454 544 336 l 408 643 q 377 -241 377 325 q 326 -337 375 -313 q 207 -360 277 -360 q 109 -351 149 -360 q 20 -241 22 -331 l 20 -132 q 38 618 20 297 q 113 1194 58 973 q 183 1269 133 1256 q 279 1282 233 1282 q 421 1258 372 1282 q 482 1202 459 1240 q 529 1102 505 1164 q 694 731 606 916 l 810 479 q 869 355 837 421 q 962 157 926 234 q 970 824 970 570 q 965 1208 970 1139 l 965 1217 q 1010 1301 965 1280 q 1135 1326 1059 1324 q 1187 1329 1162 1329 q 1262 1320 1230 1329 q 1321 1234 1314 1305 q 1325 1077 1325 1156 q 1322 932 1325 1005 q 1305 371 1317 733 q 1302 235 1303 303 q 1288 -113 1300 60 q 1272 -219 1284 -176 q 1222 -292 1259 -262 q 1105 -345 1185 -321 q 1020 -366 1048 -365 q 990 -366 991 -366 z "},"O":{"ha":1184,"x_min":20,"x_max":1164,"o":"m 576 -401 l 555 -401 q 277 -320 387 -401 q 121 -144 175 -242 q 45 81 66 -47 q 20 366 20 222 q 108 888 20 642 q 178 1046 139 979 q 285 1179 216 1114 q 451 1269 361 1250 q 625 1287 541 1287 q 669 1286 647 1287 q 866 1239 774 1282 q 1015 1114 958 1196 q 1164 498 1164 888 q 1118 103 1164 300 q 1024 -144 1087 -35 q 846 -336 960 -254 q 714 -389 785 -377 q 576 -401 644 -401 m 579 -165 q 626 -157 602 -165 q 705 -104 673 -140 q 789 113 769 -28 q 821 538 821 324 q 818 681 821 586 q 808 812 817 744 q 685 1023 789 974 q 640 1032 661 1032 q 607 1027 623 1032 q 541 984 570 1014 q 456 823 479 921 q 435 706 438 747 q 406 354 406 531 q 427 48 406 201 l 427 46 q 444 -43 432 1 q 532 -157 465 -129 q 579 -165 555 -165 z "},"P":{"ha":1214,"x_min":20,"x_max":1194,"o":"m 190 -425 q 88 -404 135 -425 q 31 -305 41 -383 q 20 3 20 -168 q 56 755 22 374 q 132 1219 73 989 q 174 1312 146 1277 q 252 1352 201 1346 q 491 1366 383 1366 q 968 1242 816 1366 q 1194 821 1191 1075 q 1074 420 1192 593 q 741 137 956 248 q 385 63 595 63 q 377 61 377 63 l 378 14 q 387 -274 378 -172 l 387 -292 q 298 -412 387 -386 q 190 -425 253 -425 m 406 331 q 517 355 452 334 q 756 509 653 399 q 876 821 873 633 q 785 1015 875 945 q 559 1079 700 1079 q 477 1074 519 1079 q 454 1054 459 1071 q 416 763 434 955 q 387 349 398 572 q 393 336 387 341 q 406 331 398 331 z "},"Q":{"ha":1259,"x_min":20,"x_max":1238,"o":"m 576 -401 l 555 -401 q 277 -320 387 -401 q 121 -144 175 -242 q 45 81 66 -47 q 20 366 20 222 q 30 562 20 427 q 108 888 40 696 q 178 1046 139 979 q 285 1179 216 1114 q 462 1271 361 1250 q 625 1287 541 1287 q 669 1286 647 1287 q 866 1239 774 1282 q 1015 1114 958 1196 q 1106 921 1074 1024 q 1151 711 1138 819 q 1164 498 1164 604 q 1118 103 1164 300 q 1064 -64 1097 14 q 1196 -159 1164 -137 q 1238 -217 1238 -189 q 1234 -241 1238 -222 q 1196 -290 1230 -260 q 1106 -337 1145 -337 q 1082 -330 1091 -337 q 955 -239 1053 -311 q 711 -390 842 -367 q 576 -401 644 -401 m 579 -165 q 638 -153 602 -165 q 728 -72 691 -134 q 566 54 608 18 q 543 103 543 77 q 548 132 543 111 q 584 186 553 154 q 656 229 621 229 q 704 208 680 229 q 792 138 726 189 q 821 535 821 336 q 819 644 821 590 q 808 812 815 758 q 685 1023 789 974 q 640 1032 662 1032 q 541 984 588 1032 q 456 823 479 921 q 435 706 438 747 q 406 354 406 531 q 427 48 406 201 l 427 46 q 444 -44 432 1 q 485 -124 455 -89 q 579 -165 523 -165 z "},"R":{"ha":1247,"x_min":20,"x_max":1227,"o":"m 990 -462 q 736 -363 933 -462 q 506 -237 618 -304 q 377 -154 432 -193 q 385 -296 379 -233 l 385 -306 q 334 -399 385 -372 q 204 -427 281 -427 l 180 -428 q 80 -411 123 -428 q 29 -327 37 -393 q 20 -20 20 -215 q 47 629 20 304 l 52 696 q 69 907 58 802 q 140 1223 91 1120 q 301 1350 188 1324 q 399 1365 351 1360 l 431 1369 q 570 1379 500 1379 q 683 1373 626 1379 q 1004 1245 861 1351 q 1227 785 1221 1072 q 1084 326 1226 529 q 789 66 969 164 q 685 32 734 36 q 890 -88 770 -45 q 973 -117 931 -103 l 1046 -142 q 1110 -254 1110 -167 q 1091 -355 1110 -304 q 1069 -410 1081 -386 q 990 -462 1044 -462 m 399 311 q 426 314 404 311 q 434 315 431 315 q 516 334 476 321 q 781 524 684 389 q 857 675 831 594 q 873 777 873 727 q 864 856 873 805 q 787 961 854 907 q 746 987 768 975 q 572 1021 668 1021 q 492 1019 532 1021 l 490 1019 q 443 979 450 1019 q 387 345 404 728 q 385 327 385 334 q 385 320 385 324 q 389 313 385 316 q 399 311 393 311 z "},"S":{"ha":1067,"x_min":20,"x_max":1047,"o":"m 486 -498 q 225 -430 347 -498 q 46 -241 106 -364 q 31 -178 31 -207 q 45 -125 31 -149 q 138 -44 72 -75 l 152 -38 q 241 -8 210 -8 q 283 -20 262 -8 q 355 -90 315 -37 q 417 -136 380 -123 q 487 -150 455 -150 q 557 -136 518 -150 q 650 -28 636 -110 l 651 -12 q 591 122 651 51 q 399 308 522 203 q 209 488 302 390 q 68 691 115 587 q 20 899 20 795 q 26 978 20 937 q 133 1235 51 1130 q 326 1390 215 1340 q 553 1440 437 1440 q 812 1379 686 1440 q 990 1219 924 1324 q 1047 1013 1047 1121 q 1003 813 1047 917 q 940 741 974 748 q 890 734 906 734 q 800 755 848 734 q 688 879 688 801 q 701 937 688 905 q 708 995 708 954 q 609 1132 708 1108 q 571 1136 590 1136 q 433 1068 484 1136 q 392 935 398 1022 l 391 922 q 446 764 391 843 q 629 569 504 677 q 814 393 723 489 q 952 196 906 298 q 999 -7 999 94 q 899 -295 999 -172 q 715 -442 824 -389 q 486 -498 607 -496 z "},"T":{"ha":1059,"x_min":20,"x_max":1039,"o":"m 469 -406 q 394 -396 435 -406 q 338 -326 353 -387 q 309 254 309 -168 q 334 1029 309 682 l 127 1030 q 61 1050 84 1030 q 29 1105 37 1070 q 20 1183 20 1139 q 29 1264 20 1227 q 61 1324 37 1301 q 127 1347 84 1347 q 355 1345 174 1347 q 712 1341 536 1344 q 944 1336 888 1339 q 1025 1284 1008 1330 q 1039 1202 1039 1249 q 1027 1093 1039 1141 q 935 1019 1008 1019 l 924 1019 q 691 1025 872 1022 q 668 272 668 732 q 671 5 668 172 q 689 -262 673 -162 q 690 -284 690 -274 q 644 -368 690 -339 q 524 -401 597 -396 q 469 -406 495 -406 z "},"U":{"ha":1178,"x_min":20,"x_max":1158,"o":"m 567 -408 l 532 -408 q 338 -374 431 -408 q 178 -245 243 -340 q 20 523 20 -3 q 47 975 20 747 q 91 1223 68 1152 q 149 1296 115 1291 q 195 1300 182 1300 q 298 1280 241 1300 q 402 1229 370 1259 q 434 1152 434 1198 q 430 1114 434 1135 q 402 928 421 1076 q 378 576 383 780 l 378 532 q 478 -53 378 107 q 520 -89 501 -86 q 544 -92 538 -92 q 597 -70 572 -92 q 649 0 617 -54 q 714 169 681 55 q 772 478 748 283 q 797 832 794 679 q 800 1078 800 986 l 800 1225 q 824 1298 800 1274 q 888 1329 848 1322 q 978 1337 928 1337 q 1066 1331 1027 1337 q 1129 1301 1105 1325 q 1156 1225 1153 1276 l 1156 1165 q 1158 1037 1158 1101 q 1145 614 1158 827 q 1059 71 1130 336 q 870 -301 995 -162 q 723 -390 802 -372 q 567 -408 644 -408 z "},"V":{"ha":1476,"x_min":20,"x_max":1455,"o":"m 649 -408 q 451 -372 546 -408 q 386 -323 411 -357 q 349 -241 366 -293 q 300 -98 322 -172 l 284 -48 q 237 111 260 18 q 205 219 223 165 q 86 703 136 477 q 20 1059 20 1000 q 175 1181 20 1164 q 232 1186 205 1186 q 308 1174 267 1186 q 367 1088 350 1162 q 425 826 384 1002 q 558 208 507 471 q 629 -119 597 2 q 633 -123 630 -123 q 638 -119 637 -123 q 787 305 707 58 q 848 487 821 406 q 1071 1106 1017 979 q 1126 1227 1087 1143 q 1236 1311 1166 1311 q 1349 1269 1286 1311 q 1442 1179 1415 1227 q 1455 1130 1455 1156 q 1438 1061 1455 1099 q 1305 743 1392 965 q 1126 277 1219 522 q 972 -120 1033 33 l 959 -153 q 915 -258 940 -205 q 854 -350 890 -311 q 768 -398 819 -389 q 649 -408 705 -408 z "},"W":{"ha":1827,"x_min":20,"x_max":1807,"o":"m 463 -402 q 402 -397 434 -402 q 295 -370 340 -391 q 235 -290 250 -349 q 144 262 197 -118 l 119 437 q 66 821 90 645 q 22 1128 38 1029 q 20 1154 20 1141 q 170 1284 20 1253 q 249 1295 213 1295 q 314 1285 275 1295 q 370 1206 353 1276 q 482 490 408 1020 l 508 311 l 523 344 q 640 593 585 482 q 696 698 675 663 q 758 764 722 738 q 868 800 800 790 q 921 804 895 804 q 1013 792 962 804 q 1089 730 1063 780 q 1135 619 1109 688 q 1224 374 1183 491 l 1244 319 q 1363 883 1302 612 q 1465 1272 1425 1155 q 1550 1348 1492 1339 q 1579 1350 1564 1350 q 1678 1331 1625 1350 q 1807 1195 1807 1286 q 1801 1150 1807 1174 q 1706 738 1769 1027 q 1584 153 1644 448 q 1497 -285 1523 -143 q 1434 -359 1485 -338 q 1322 -380 1383 -380 q 1158 -351 1225 -380 q 1111 -310 1127 -338 q 1086 -227 1096 -277 q 1064 -144 1078 -189 q 903 421 1001 58 q 888 473 890 470 l 886 466 q 707 -38 869 428 q 639 -233 644 -217 q 591 -342 623 -294 q 507 -399 554 -391 q 463 -402 486 -402 z "},"X":{"ha":1499,"x_min":20,"x_max":1479,"o":"m 1063 -448 q 1036 -446 1056 -448 q 981 -405 1015 -444 q 691 92 897 -296 q 335 -376 489 -166 q 246 -425 296 -425 q 207 -420 239 -425 q 115 -371 174 -416 q 29 -275 53 -328 q 20 -237 20 -257 q 47 -164 20 -202 q 510 439 248 107 q 168 1170 168 1110 q 195 1239 168 1202 q 293 1308 223 1276 q 400 1335 351 1335 q 440 1332 408 1335 q 504 1264 472 1329 q 754 747 621 1012 q 1170 1263 1099 1178 q 1272 1316 1215 1316 q 1308 1314 1276 1316 q 1399 1264 1341 1312 q 1475 1156 1458 1217 q 1479 1124 1479 1141 q 1447 1038 1479 1081 q 932 399 1282 839 q 1138 18 1050 173 q 1255 -176 1225 -137 q 1290 -255 1290 -219 q 1289 -279 1290 -258 q 1258 -331 1287 -300 q 1189 -390 1229 -363 q 1120 -433 1154 -415 q 1063 -448 1090 -448 z "},"Y":{"ha":1346,"x_min":20,"x_max":1326,"o":"m 1210 1364 q 1308 1293 1276 1336 q 1326 1240 1326 1270 q 1314 1187 1326 1215 q 1073 629 1251 1044 q 956 369 1017 498 q 919 296 939 332 q 857 165 883 232 q 844 98 846 132 q 842 57 842 77 q 843 29 842 43 l 843 -325 q 821 -395 843 -374 q 762 -419 800 -415 q 674 -422 724 -422 q 582 -419 625 -422 q 513 -395 539 -415 q 486 -325 486 -374 l 486 133 q 465 219 486 178 q 244 648 374 386 q 27 1122 115 911 q 20 1157 20 1140 q 56 1223 20 1192 q 153 1279 92 1255 q 254 1303 209 1303 q 281 1303 256 1303 q 330 1247 306 1302 q 484 876 401 1073 q 641 522 568 679 q 650 515 644 515 q 655 515 651 515 q 663 522 659 515 q 709 634 686 577 q 762 762 736 702 q 765 770 763 766 q 1004 1324 941 1181 q 1089 1390 1034 1386 q 1102 1391 1096 1391 q 1210 1364 1152 1391 z "},"Z":{"ha":1394,"x_min":20,"x_max":1373,"o":"m 311 -433 q 175 -431 233 -433 q 93 -396 123 -428 q 42 -315 63 -363 q 20 -216 20 -262 q 77 -61 20 -140 q 642 647 198 112 q 946 1019 814 855 q 779 1023 882 1023 q 353 1004 523 1019 q 271 1000 283 1000 q 177 1042 203 1000 q 152 1158 152 1085 l 151 1184 q 157 1247 151 1215 q 305 1334 172 1328 q 471 1343 389 1338 q 804 1356 685 1356 l 977 1352 q 1118 1342 1048 1350 q 1245 1302 1188 1333 q 1336 1201 1303 1270 q 1373 1065 1373 1124 q 1339 962 1373 1014 q 917 420 1227 800 q 508 -83 709 170 q 995 -90 854 -90 q 1071 -113 1044 -90 q 1118 -269 1118 -156 q 1108 -352 1118 -318 q 1072 -405 1098 -387 q 996 -422 1046 -422 q 702 -427 887 -422 q 311 -433 400 -433 z "},"[":{"ha":804,"x_min":20,"x_max":784,"o":"m 302 -810 q 115 -760 183 -810 q 31 -615 41 -705 q 20 -336 20 -505 q 68 687 20 75 q 129 1275 97 1062 q 216 1412 143 1358 q 512 1482 315 1481 q 643 1477 590 1482 q 699 1471 695 1472 q 784 1360 784 1457 q 779 1307 784 1336 q 670 1172 757 1172 q 649 1174 660 1172 q 527 1180 602 1180 q 418 1173 466 1180 q 345 322 376 842 q 322 -334 322 -63 q 325 -509 322 -428 q 524 -475 393 -505 q 570 -468 555 -468 q 688 -604 657 -468 q 694 -659 694 -634 q 609 -765 694 -747 q 589 -769 601 -767 q 302 -810 408 -810 z "},"\\":{"ha":962,"x_min":20,"x_max":942,"o":"m 937 -481 l 938 -480 l 942 -478 l 942 -479 l 937 -481 m 702 -654 q 679 -650 690 -654 q 640 -594 656 -639 l 41 1160 q 20 1263 20 1215 q 65 1337 20 1310 q 158 1379 111 1364 q 203 1387 182 1387 q 247 1379 226 1387 q 336 1260 305 1358 q 934 -496 608 432 q 937 -517 937 -507 q 814 -619 937 -574 l 779 -632 q 702 -654 724 -654 z "},"]":{"ha":791,"x_min":20,"x_max":770,"o":"m 229 -779 q 118 -774 146 -779 q 41 -720 58 -766 q 30 -653 30 -690 q 33 -610 30 -633 q 140 -475 46 -475 l 153 -475 q 226 -478 184 -478 q 429 -460 352 -478 q 469 385 469 -171 q 439 1237 469 905 q 389 1239 417 1239 q 153 1215 278 1239 q 127 1213 139 1213 q 28 1341 50 1213 q 20 1405 20 1375 q 28 1463 20 1429 q 95 1511 36 1497 q 161 1522 101 1512 q 387 1541 279 1541 q 644 1478 560 1541 q 731 1332 719 1422 q 766 755 755 1123 q 770 401 770 578 q 763 -68 770 211 q 719 -558 755 -347 q 661 -669 705 -627 q 453 -762 585 -741 q 229 -779 351 -779 z "},"^":{"ha":661,"x_min":20,"x_max":662,"o":"m 155 315 q 68 353 111 315 q 20 442 20 394 q 40 494 20 469 q 90 553 48 503 q 186 669 132 604 q 286 789 240 734 q 324 812 304 809 q 360 814 344 814 q 432 808 405 814 q 469 781 454 802 q 555 643 471 779 q 652 481 640 507 q 662 443 662 460 q 589 361 662 396 q 526 339 545 340 q 505 339 506 339 q 446 379 468 339 q 361 519 433 404 q 263 401 307 454 q 210 340 219 349 q 155 315 186 315 z "},"_":{"ha":1213,"x_min":20,"x_max":1193,"o":"m 1088 -500 q 578 -496 991 -496 q 135 -499 200 -496 l 123 -500 q 62 -477 82 -500 q 34 -417 42 -454 q 20 -299 20 -358 q 33 -225 20 -260 q 110 -183 46 -190 q 649 -179 181 -179 q 1100 -183 970 -179 q 1180 -229 1164 -186 q 1193 -310 1193 -263 q 1171 -453 1193 -403 q 1088 -500 1152 -500 z "},"a":{"ha":1194,"x_min":20,"x_max":1174,"o":"m 955 -397 q 887 -393 925 -397 q 825 -357 850 -389 q 806 -292 806 -335 q 809 -254 806 -274 q 816 -156 813 -223 q 429 -376 627 -376 q 347 -369 377 -376 q 109 -213 199 -336 q 20 66 20 -93 l 20 76 q 109 358 28 240 q 321 549 189 477 q 471 594 385 583 q 526 597 498 597 q 654 578 583 597 q 787 490 726 558 q 802 716 802 586 q 779 928 802 838 q 681 1048 749 1040 q 589 1005 629 1048 q 530 912 548 963 q 477 852 513 866 q 427 844 454 844 q 299 874 372 844 q 197 930 224 901 q 182 973 182 946 q 193 1027 182 996 q 394 1263 252 1187 q 655 1327 513 1327 q 895 1276 783 1327 q 1147 897 1103 1182 q 1166 690 1161 798 q 1174 149 1174 504 q 1161 -308 1174 -189 q 1063 -387 1154 -368 q 955 -397 1013 -397 m 442 -77 q 483 -75 454 -77 q 560 -41 511 -73 q 656 69 610 -9 q 734 292 703 148 l 732 294 q 675 326 722 304 q 586 342 638 342 q 534 340 574 342 q 416 269 494 337 q 321 65 328 186 l 321 62 q 345 -26 321 13 q 405 -73 368 -65 q 442 -77 420 -77 z "},"b":{"ha":1305,"x_min":20,"x_max":1285,"o":"m 455 -477 q 333 -471 394 -477 q 239 -459 281 -467 q 78 -321 109 -436 q 20 408 20 -75 q 28 742 20 572 q 61 1076 34 910 q 104 1213 72 1151 q 210 1304 137 1274 q 385 1339 277 1327 q 583 1352 475 1352 q 701 1348 618 1352 q 895 1292 783 1344 q 1069 1120 1006 1240 q 1107 954 1107 1040 q 1094 845 1107 922 q 994 672 1081 769 q 1162 547 1090 625 q 1285 218 1285 413 q 1241 -10 1285 107 q 1108 -229 1198 -127 q 840 -412 994 -355 q 455 -477 663 -477 m 432 724 q 505 735 465 724 q 636 784 574 755 q 755 859 698 812 q 800 918 785 884 q 807 951 807 935 q 799 986 807 968 q 627 1087 749 1076 q 545 1091 590 1091 q 403 1019 436 1090 q 380 857 380 962 q 378 796 380 825 q 377 781 377 789 q 379 752 377 769 q 432 724 383 724 m 489 -182 q 576 -175 525 -182 q 833 -72 728 -160 q 968 140 930 12 q 979 214 979 177 q 964 302 979 258 q 772 436 921 410 q 591 451 688 451 q 516 448 562 451 q 414 429 471 446 q 379 402 385 420 q 375 372 375 389 q 376 359 375 366 q 376 345 376 352 q 380 243 378 294 q 385 71 385 157 l 387 17 l 387 -3 q 399 -144 387 -75 q 489 -182 409 -182 z "},"c":{"ha":1220,"x_min":20,"x_max":1200,"o":"m 621 -505 l 614 -505 q 336 -431 443 -505 q 218 -322 269 -385 q 59 -2 97 -176 q 20 321 20 172 q 32 518 20 416 q 171 978 67 795 q 414 1246 275 1162 q 696 1330 553 1330 q 725 1329 711 1330 q 979 1237 880 1318 q 1114 1035 1077 1155 q 1151 792 1151 916 q 1147 707 1151 751 q 1095 625 1139 637 q 1008 613 1050 613 q 920 619 993 613 q 824 636 858 621 q 789 702 789 651 q 790 715 789 708 q 791 747 791 723 q 781 885 791 814 q 692 1034 760 1029 q 574 964 635 1034 q 467 768 514 895 q 401 471 420 642 q 395 353 395 412 q 409 167 395 260 q 484 -91 431 15 q 610 -210 536 -197 l 619 -210 q 701 -172 664 -210 q 773 -70 743 -132 q 822 52 803 -7 q 846 144 840 111 q 908 233 861 216 q 997 250 956 250 q 1055 244 1025 250 q 1164 198 1129 233 q 1200 114 1200 164 q 1151 -80 1200 52 q 1057 -266 1116 -174 q 729 -492 939 -442 q 621 -505 675 -505 z "},"d":{"ha":1288,"x_min":20,"x_max":1267,"o":"m 283 -498 q 213 -495 257 -498 q 123 -458 170 -492 q 73 -385 89 -430 q 51 -296 58 -339 q 20 62 20 -119 q 47 546 20 266 q 120 1088 73 849 q 155 1215 133 1154 q 357 1339 201 1330 q 414 1341 386 1341 q 484 1338 450 1341 q 828 1264 686 1322 q 1255 698 1184 1113 q 1267 536 1267 616 q 1154 75 1267 297 q 951 -199 1075 -76 q 673 -399 828 -321 q 347 -494 519 -477 q 283 -498 315 -498 m 408 -161 l 414 -161 q 719 20 575 -113 q 930 368 872 160 q 951 527 951 441 q 942 647 951 585 q 797 922 909 840 q 502 1016 684 1004 l 500 1016 q 477 1008 487 1016 q 416 652 453 990 q 380 74 380 326 q 389 -144 380 -45 q 408 -161 392 -161 z "},"e":{"ha":1225,"x_min":20,"x_max":1205,"o":"m 686 -505 q 474 -470 607 -505 q 215 -286 340 -435 q 82 -41 127 -176 q 20 355 20 142 q 30 516 20 437 q 182 996 62 800 q 579 1265 326 1229 q 656 1270 618 1270 q 1016 1128 869 1270 q 1158 740 1158 989 q 1142 553 1158 646 q 1054 321 1122 421 q 838 184 985 221 q 644 163 745 163 q 437 184 544 163 l 435 184 q 429 178 431 184 q 424 153 424 169 q 423 140 423 152 q 490 -58 423 31 q 633 -163 548 -134 q 703 -175 668 -175 q 808 -150 755 -175 q 949 32 913 -94 q 1015 104 971 104 q 1122 60 1055 104 q 1189 9 1167 35 q 1205 -47 1205 -11 q 1203 -74 1205 -60 q 1080 -342 1182 -227 q 898 -467 1004 -426 q 686 -505 793 -505 m 619 471 q 782 496 704 471 q 841 564 826 514 l 847 589 q 859 728 859 667 q 847 840 859 777 q 801 941 835 903 q 703 980 770 980 q 521 859 603 980 q 402 533 442 743 l 402 529 q 419 503 402 510 q 584 473 479 479 q 619 471 602 471 z "},"f":{"ha":1175,"x_min":20,"x_max":1155,"o":"m 191 -469 q 136 -461 170 -469 q 84 -370 101 -453 q 43 -98 63 -264 q 20 319 20 95 q 43 673 20 490 q 149 1039 66 857 q 295 1253 204 1158 q 504 1398 386 1348 q 707 1440 600 1440 q 1010 1331 886 1440 q 1151 1092 1114 1239 q 1155 1058 1155 1074 q 1118 990 1155 1015 q 1007 952 1081 966 q 900 935 941 935 q 842 948 869 935 q 804 1009 816 962 q 710 1084 787 1084 q 592 1044 656 1084 q 483 912 528 1004 q 382 448 398 725 q 583 443 459 448 q 723 439 673 439 q 825 361 802 439 q 836 272 836 323 q 813 169 836 212 q 726 122 790 125 q 572 126 658 122 q 382 131 471 130 q 433 -295 395 -127 q 435 -313 435 -303 q 430 -352 435 -328 q 392 -406 425 -376 q 288 -454 359 -436 q 191 -469 233 -469 z "},"g":{"ha":1308,"x_min":20,"x_max":1288,"o":"m 717 -532 q 515 -497 624 -532 q 311 -376 406 -463 q 71 26 145 -223 q 20 386 20 195 q 35 601 20 490 q 109 881 58 762 q 347 1218 198 1091 q 747 1361 514 1361 q 953 1328 851 1361 q 1168 1186 1082 1284 q 1279 963 1254 1089 q 1288 878 1288 920 q 1255 707 1288 793 q 1175 643 1227 643 q 1147 644 1174 643 q 1048 675 1120 644 q 909 793 909 726 q 921 842 909 815 q 937 912 937 881 q 910 981 937 945 q 814 1031 883 1018 q 766 1036 789 1036 q 681 1021 722 1036 q 488 846 562 971 q 380 396 380 665 q 546 -115 380 81 q 600 -166 566 -139 q 735 -221 666 -221 q 899 -41 866 -221 q 911 109 911 27 q 911 149 911 136 q 756 142 825 148 q 666 138 699 138 q 601 164 619 139 q 576 237 582 189 q 572 279 572 259 q 579 331 572 302 q 633 370 586 361 q 873 385 742 385 q 1012 380 932 385 q 1149 347 1092 374 q 1211 248 1197 318 q 1221 140 1221 196 q 1203 -45 1221 50 q 1146 -254 1186 -153 q 1023 -428 1105 -355 q 717 -532 894 -532 z "},"h":{"ha":1322,"x_min":20,"x_max":1302,"o":"m 154 -486 q 93 -477 126 -486 q 46 -396 59 -468 q 20 77 20 -212 q 23 298 20 111 q 47 796 25 485 q 97 1234 69 1107 q 167 1322 115 1308 q 216 1328 189 1328 q 294 1317 251 1328 q 332 1309 314 1312 q 407 1290 374 1301 q 467 1194 467 1267 q 465 1168 467 1182 q 451 866 457 1088 q 438 531 446 714 l 438 529 q 445 513 438 519 q 460 506 451 506 l 463 506 q 760 511 604 511 q 902 513 838 512 q 920 521 913 514 q 927 539 927 528 l 928 1154 q 995 1252 928 1228 q 1130 1268 1041 1268 q 1255 1221 1208 1268 q 1302 1109 1300 1176 q 1296 -317 1302 153 q 1276 -368 1295 -348 q 1176 -414 1243 -402 q 1112 -422 1135 -422 q 1016 -416 1059 -422 q 947 -386 973 -409 q 922 -311 922 -362 q 926 172 925 -126 q 918 190 926 183 q 900 197 911 197 l 722 195 q 420 180 433 194 q 413 162 413 173 l 412 6 q 416 -338 412 -60 q 391 -429 416 -400 q 325 -467 366 -458 q 235 -479 284 -477 q 204 -482 231 -479 q 154 -486 178 -486 z "},"i":{"ha":438,"x_min":20,"x_max":418,"o":"m 200 -460 q 133 -456 175 -460 q 50 -426 90 -453 q 22 -376 24 -407 q 20 -258 20 -324 q 31 288 20 -71 q 55 935 41 647 q 230 1055 64 1055 q 418 926 418 1055 l 417 914 q 391 231 403 637 q 382 -250 382 -69 q 384 -363 382 -314 l 384 -365 q 350 -436 384 -418 q 200 -460 304 -460 m 240 1131 q 160 1135 196 1131 q 103 1159 125 1140 q 82 1222 82 1179 l 82 1348 q 103 1407 82 1390 q 159 1428 124 1424 q 215 1432 184 1432 q 323 1427 287 1432 q 376 1404 357 1423 q 395 1341 395 1385 l 397 1204 q 376 1152 397 1167 q 319 1133 355 1136 q 240 1131 283 1131 z "},"j":{"ha":1010,"x_min":20,"x_max":989,"o":"m 445 -473 q 252 -437 334 -473 q 57 -223 122 -382 q 25 -103 30 -158 q 20 -26 20 -48 q 40 137 20 47 q 95 213 58 206 q 152 220 131 220 q 239 208 192 220 q 391 90 391 179 q 388 58 391 75 q 374 -54 374 -2 q 376 -98 374 -76 q 408 -159 382 -138 q 446 -171 426 -171 q 512 -147 480 -171 q 584 -39 564 -106 q 613 109 607 39 q 640 548 640 307 q 624 907 640 728 q 618 974 621 940 l 616 983 q 591 1175 609 1080 q 589 1200 589 1189 q 756 1327 589 1297 q 820 1335 791 1335 q 878 1325 852 1335 q 943 1236 927 1307 q 970 1020 956 1176 q 987 741 985 865 q 989 580 989 616 q 911 -121 989 121 q 790 -341 865 -259 q 533 -468 680 -454 q 445 -473 479 -473 z "},"k":{"ha":1272,"x_min":20,"x_max":1251,"o":"m 231 -437 l 208 -437 q 88 -421 139 -437 q 28 -339 37 -406 q 20 -85 20 -235 q 28 261 20 28 q 59 794 36 493 q 102 1211 81 1095 q 174 1302 118 1285 q 237 1311 203 1311 q 309 1302 271 1311 q 472 1171 472 1275 q 469 1142 472 1158 q 433 780 453 1048 q 810 1103 595 922 l 1001 1265 q 1066 1295 1036 1295 q 1106 1282 1080 1295 q 1177 1215 1133 1270 q 1246 1109 1225 1162 q 1251 1080 1251 1095 q 1217 1013 1251 1044 q 1025 850 1122 932 q 574 460 690 565 q 857 158 718 300 q 1098 -102 1001 9 q 1128 -175 1128 -140 q 1117 -221 1128 -190 q 1046 -294 1105 -252 q 939 -349 993 -336 q 915 -353 927 -353 q 844 -317 876 -353 q 616 -73 753 -213 q 399 157 511 36 q 394 -96 394 15 q 401 -305 394 -220 l 401 -319 q 353 -412 401 -387 q 231 -437 304 -437 z "},"l":{"ha":759,"x_min":20,"x_max":739,"o":"m 524 -420 l 473 -419 q 364 -418 438 -418 l 323 -419 q 244 -416 290 -419 q 153 -393 199 -413 q 54 -268 74 -354 q 20 248 20 -92 q 39 853 20 555 q 83 1272 57 1150 q 160 1356 101 1341 q 216 1363 186 1363 q 293 1353 252 1363 q 400 1303 366 1339 q 429 1205 429 1274 q 427 1176 429 1192 l 426 1158 q 381 338 391 711 q 378 177 378 254 q 389 -95 378 24 l 676 -95 q 734 -146 726 -96 q 739 -207 739 -173 q 718 -368 739 -316 q 650 -415 701 -409 q 524 -420 587 -420 z "},"m":{"ha":1754,"x_min":20,"x_max":1734,"o":"m 269 -420 q 216 -412 243 -420 q 60 -347 119 -388 q 20 -262 20 -319 q 72 155 20 -218 q 166 753 113 448 q 267 1206 219 1057 q 404 1286 296 1285 q 479 1282 446 1286 q 584 1219 551 1274 q 642 1078 617 1164 q 661 1019 650 1050 q 903 203 762 722 l 925 120 q 932 115 927 115 q 939 120 937 115 q 1116 792 983 282 q 1218 1177 1208 1141 q 1327 1278 1246 1270 q 1367 1280 1348 1280 q 1392 1279 1380 1280 q 1416 1278 1404 1278 l 1428 1278 q 1521 1261 1479 1278 q 1576 1175 1564 1243 q 1697 109 1630 821 q 1732 -224 1721 -134 q 1734 -249 1734 -237 q 1659 -340 1734 -320 q 1571 -356 1619 -350 q 1478 -365 1510 -365 q 1363 -275 1375 -365 q 1327 72 1352 -185 l 1302 323 q 1300 326 1302 326 q 1297 324 1297 326 q 1115 -193 1175 -51 q 977 -298 1080 -290 q 954 -301 965 -299 q 874 -308 914 -308 q 831 -306 853 -308 q 769 -274 793 -298 q 717 -196 736 -243 q 631 77 691 -133 l 614 135 q 505 498 509 496 q 502 497 503 498 q 500 494 500 496 q 431 36 461 255 q 391 -288 401 -183 q 370 -358 388 -325 q 326 -406 352 -392 q 269 -420 300 -420 z "},"n":{"ha":1345,"x_min":20,"x_max":1325,"o":"m 1019 -372 l 989 -372 q 895 -321 934 -372 q 687 52 776 -142 q 604 216 647 135 q 491 448 544 330 l 408 637 q 377 -247 377 319 q 326 -343 375 -319 q 207 -366 277 -366 q 109 -357 149 -366 q 20 -248 22 -337 l 20 -138 q 38 612 20 291 q 113 1187 58 967 q 182 1263 133 1250 q 277 1276 231 1276 q 421 1253 372 1276 q 482 1196 459 1234 q 528 1096 505 1158 q 694 725 606 910 l 768 564 q 868 349 784 527 q 962 151 926 229 q 970 819 970 564 q 965 1202 970 1133 l 965 1211 q 1010 1295 965 1275 q 1135 1320 1059 1318 q 1187 1323 1162 1323 q 1262 1314 1230 1323 q 1320 1228 1314 1299 q 1325 1065 1325 1147 q 1320 867 1325 987 q 1305 366 1314 616 l 1302 229 q 1288 -119 1300 54 q 1272 -225 1284 -182 q 1222 -298 1259 -268 q 1105 -351 1185 -328 q 1019 -372 1048 -371 z "},"o":{"ha":1185,"x_min":20,"x_max":1164,"o":"m 575 -407 l 555 -407 q 277 -326 387 -407 q 121 -151 175 -248 q 45 75 67 -53 q 20 360 20 216 q 109 882 20 636 q 178 1040 140 972 q 285 1173 216 1107 q 451 1263 361 1244 q 625 1281 541 1281 q 669 1280 647 1281 q 866 1233 774 1276 q 1015 1107 958 1190 q 1164 495 1164 881 q 1118 97 1164 295 q 1024 -150 1087 -41 q 846 -341 960 -260 q 714 -395 785 -383 q 575 -407 643 -407 m 580 -172 q 626 -163 603 -172 q 762 -7 722 -130 q 789 106 781 48 q 821 527 821 316 q 819 638 821 583 l 818 675 q 809 806 817 738 q 773 931 801 874 q 685 1017 745 988 q 640 1026 662 1026 q 607 1021 623 1026 q 492 913 538 996 q 456 817 468 867 q 437 715 445 767 l 435 701 q 406 345 406 523 q 427 42 406 192 q 427 40 427 41 q 444 -50 432 -5 q 532 -163 465 -136 q 580 -172 556 -172 z "},"p":{"ha":1214,"x_min":20,"x_max":1194,"o":"m 207 -430 l 193 -430 q 89 -410 136 -430 q 32 -311 41 -389 q 20 -33 20 -173 q 56 749 20 343 q 132 1213 73 983 q 174 1305 146 1271 q 252 1346 201 1340 q 492 1360 384 1360 q 968 1236 816 1360 q 1194 816 1191 1069 q 1074 414 1192 587 q 741 132 956 242 q 385 58 595 58 l 377 58 l 378 7 l 378 -32 q 387 -280 378 -176 l 388 -296 q 207 -430 388 -430 m 387 324 q 503 345 432 324 q 653 416 573 365 q 756 503 705 449 q 841 634 807 556 q 876 816 876 711 q 786 1009 875 939 q 561 1073 701 1073 q 459 1065 513 1073 q 417 768 437 972 q 387 324 398 564 z "},"q":{"ha":1258,"x_min":20,"x_max":1238,"o":"m 575 -407 l 555 -407 q 277 -326 387 -407 q 121 -151 175 -248 q 45 75 66 -53 q 20 360 20 216 q 30 556 20 421 q 108 882 39 690 q 178 1040 139 972 q 285 1173 216 1107 q 462 1265 361 1244 q 625 1281 541 1281 q 669 1280 647 1281 q 866 1233 774 1276 q 1015 1107 958 1190 q 1106 915 1074 1018 q 1151 706 1138 812 q 1164 492 1164 599 q 1118 97 1164 294 q 1064 -70 1097 7 q 1196 -165 1164 -143 q 1238 -224 1238 -195 q 1233 -247 1238 -228 q 1196 -296 1229 -265 q 1106 -342 1146 -342 q 1082 -336 1090 -342 q 954 -245 1053 -317 q 710 -395 842 -374 q 575 -407 643 -407 m 580 -172 q 728 -78 669 -172 q 566 48 608 12 q 543 97 543 71 q 548 126 543 104 q 584 180 553 148 q 656 223 621 223 q 704 201 680 223 q 792 132 725 182 q 821 529 821 330 q 819 638 821 584 q 808 806 815 751 q 685 1017 789 967 q 640 1026 661 1026 q 541 978 588 1026 q 456 817 479 916 q 437 715 444 767 q 406 350 406 545 q 427 42 406 194 l 427 40 q 444 -50 432 -5 q 485 -130 455 -95 q 580 -172 522 -172 z "},"r":{"ha":1248,"x_min":20,"x_max":1227,"o":"m 990 -468 q 736 -369 934 -468 q 378 -159 525 -263 q 385 -302 380 -239 l 385 -311 q 333 -406 385 -378 q 205 -433 281 -433 l 181 -434 q 81 -417 124 -434 q 30 -333 37 -399 q 20 -18 20 -218 q 47 623 20 302 q 70 901 56 762 q 104 1109 81 1006 q 212 1305 134 1247 q 301 1343 252 1333 q 400 1359 351 1354 l 431 1363 q 570 1373 500 1373 q 684 1367 627 1373 q 1004 1239 861 1345 q 1227 779 1222 1066 q 1084 320 1227 523 q 789 60 968 156 q 686 26 734 30 q 891 -94 768 -48 q 973 -123 932 -109 q 1046 -147 1010 -134 q 1111 -261 1111 -174 q 1069 -416 1111 -330 q 1039 -454 1057 -440 q 990 -468 1021 -468 m 401 305 q 427 309 411 305 l 435 309 q 517 328 476 315 q 781 518 684 383 q 857 669 831 588 q 873 773 873 722 q 864 851 873 800 q 787 956 855 902 q 746 981 769 969 q 593 1015 672 1014 q 493 1013 532 1015 q 443 972 450 1013 q 387 338 406 735 l 386 317 q 401 305 386 305 z "},"s":{"ha":1036,"x_min":20,"x_max":1015,"o":"m 486 -504 q 247 -448 358 -504 q 66 -281 134 -389 q 42 -222 42 -246 q 177 -67 42 -148 q 245 -42 208 -45 q 287 -53 269 -43 q 324 -79 305 -63 q 410 -134 366 -112 q 489 -155 450 -155 q 557 -142 519 -155 q 651 -34 636 -115 l 652 -18 q 591 116 652 44 q 399 302 522 197 q 210 482 303 384 q 68 685 116 581 q 20 895 20 790 q 26 972 20 932 q 134 1233 51 1124 q 329 1396 217 1342 q 558 1449 441 1449 q 815 1390 692 1449 q 1006 1226 928 1336 q 1015 1193 1015 1211 q 1005 1152 1015 1174 q 942 1069 985 1107 q 850 1016 900 1030 l 845 1015 q 785 1053 829 1015 q 709 1109 753 1082 q 600 1139 659 1139 q 435 1062 496 1139 q 393 928 399 1016 l 392 916 q 446 758 392 837 q 629 563 505 671 q 815 387 724 483 q 953 190 906 292 q 1000 -13 1000 88 q 900 -301 1000 -177 q 716 -448 825 -395 q 486 -504 607 -501 z "},"t":{"ha":1059,"x_min":20,"x_max":1039,"o":"m 944 1330 q 1026 1278 1008 1324 q 1039 1197 1039 1243 q 1038 1164 1039 1181 q 1027 1087 1036 1121 q 997 1033 1019 1053 q 935 1013 976 1013 q 924 1014 930 1013 q 691 1019 873 1017 q 671 574 677 840 q 668 266 668 415 q 671 -1 668 166 q 689 -269 673 -168 q 690 -290 690 -280 q 644 -373 690 -345 q 524 -408 597 -401 q 471 -411 496 -411 q 394 -402 436 -411 q 338 -332 353 -393 q 311 35 316 -212 q 309 243 309 137 q 314 612 309 395 q 334 1023 319 828 q 127 1024 175 1024 q 61 1044 84 1024 q 29 1099 38 1064 q 20 1177 20 1133 q 29 1258 20 1221 q 61 1318 38 1295 q 127 1341 84 1341 q 356 1339 175 1341 q 712 1336 536 1338 q 944 1330 888 1333 z "},"u":{"ha":1128,"x_min":20,"x_max":1107,"o":"m 888 -446 q 799 -433 837 -446 q 758 -355 760 -420 l 758 -92 q 671 -220 734 -171 q 477 -285 590 -285 q 317 -254 404 -285 q 170 -142 231 -222 q 20 527 20 70 q 46 924 20 728 q 87 1141 66 1078 q 168 1209 113 1205 l 186 1210 q 288 1192 235 1210 q 418 1077 418 1160 q 415 1044 418 1061 q 389 882 406 1010 q 366 536 366 717 q 460 30 366 168 q 521 -3 485 -3 q 569 16 547 -3 q 618 76 588 28 q 680 223 648 123 q 734 491 711 322 q 758 826 755 666 q 761 1013 761 933 q 760 1087 761 1054 l 760 1141 q 851 1236 760 1223 q 956 1242 893 1242 q 1033 1234 992 1242 q 1095 1184 1074 1225 q 1107 1115 1107 1156 q 1106 1084 1107 1099 q 1105 1053 1105 1069 q 1107 638 1107 953 q 1105 241 1107 439 q 1103 -354 1104 -162 q 1019 -435 1101 -416 q 940 -444 982 -444 l 930 -444 l 888 -446 z "},"v":{"ha":1476,"x_min":20,"x_max":1455,"o":"m 649 -414 q 451 -377 545 -414 q 387 -329 411 -362 q 349 -247 370 -307 q 300 -104 322 -178 l 284 -54 q 237 104 264 3 q 205 213 223 159 q 86 697 136 471 q 20 1053 20 994 q 63 1140 20 1112 q 175 1175 106 1167 q 233 1180 205 1180 q 309 1168 267 1180 q 367 1082 350 1156 q 425 820 384 996 q 558 203 507 462 q 629 -125 597 -3 q 633 -129 630 -129 q 638 -125 637 -129 q 787 300 707 52 q 848 481 821 399 q 1072 1101 1013 963 q 1126 1221 1099 1166 q 1236 1305 1166 1305 q 1349 1263 1286 1305 q 1442 1173 1415 1221 q 1455 1124 1455 1150 q 1438 1055 1455 1093 q 1305 738 1392 960 q 1126 271 1219 515 q 972 -126 1033 27 l 959 -159 q 915 -264 940 -212 q 855 -356 890 -317 q 768 -404 819 -395 q 649 -414 705 -414 z "},"w":{"ha":1826,"x_min":20,"x_max":1806,"o":"m 463 -408 q 401 -403 433 -408 q 295 -376 340 -397 q 235 -296 250 -355 q 144 256 194 -113 l 119 432 q 66 814 90 639 q 22 1122 38 1023 q 20 1149 20 1137 q 170 1278 20 1247 q 250 1289 213 1289 q 314 1279 275 1289 q 370 1200 353 1270 q 482 484 407 1014 q 508 320 506 321 q 513 319 509 319 q 515 323 514 320 q 590 567 544 404 q 677 856 633 721 q 747 1015 720 990 q 857 1052 789 1042 q 909 1055 884 1055 q 1001 1043 950 1055 q 1078 981 1053 1031 q 1108 879 1090 954 q 1146 705 1125 804 q 1224 368 1183 522 q 1243 324 1238 324 q 1247 328 1246 324 q 1364 884 1304 618 q 1465 1265 1425 1151 q 1549 1342 1491 1333 q 1579 1345 1564 1345 q 1678 1324 1625 1345 q 1806 1189 1806 1280 q 1800 1144 1806 1168 q 1706 732 1768 1021 q 1497 -290 1568 90 q 1314 -385 1474 -385 q 1221 -376 1259 -385 q 1110 -316 1137 -362 q 1085 -233 1095 -283 q 1064 -151 1078 -195 q 889 604 1005 45 q 877 661 878 657 l 877 660 q 794 302 877 627 q 650 -205 700 -60 l 639 -238 q 591 -349 623 -300 q 506 -405 553 -397 q 463 -408 485 -408 z "},"x":{"ha":1499,"x_min":20,"x_max":1479,"o":"m 1061 -454 q 1035 -452 1055 -454 q 981 -410 1015 -450 q 690 86 897 -302 q 334 -381 488 -172 q 245 -431 296 -431 q 206 -426 239 -431 q 115 -377 173 -422 q 29 -281 52 -334 q 20 -243 20 -262 q 47 -170 20 -208 q 496 416 241 93 q 503 437 503 426 q 499 453 503 445 q 167 1164 167 1107 q 195 1234 167 1196 q 292 1301 223 1271 q 399 1329 351 1329 q 439 1326 408 1329 q 504 1258 471 1323 q 746 757 617 1013 q 755 751 749 751 q 764 755 761 751 q 1170 1258 1083 1154 q 1272 1310 1215 1310 q 1308 1308 1276 1310 q 1399 1258 1340 1306 q 1474 1150 1457 1211 q 1479 1118 1479 1134 q 1446 1032 1479 1075 l 1293 844 q 937 390 937 404 q 940 377 937 384 q 1255 -182 1190 -100 q 1290 -262 1290 -226 q 1288 -285 1290 -264 q 1257 -337 1286 -306 q 1188 -396 1228 -369 q 1119 -439 1154 -421 q 1061 -454 1090 -454 z "},"y":{"ha":1394,"x_min":54,"x_max":1356,"o":"m 642 -500 q 515 -463 587 -500 l 481 -447 q 398 -366 398 -416 q 407 -321 398 -347 l 502 -64 q 534 31 534 24 q 530 47 534 39 l 66 1105 q 54 1154 54 1131 q 155 1263 54 1219 q 257 1289 214 1289 q 349 1230 322 1289 l 684 465 q 690 462 687 462 q 696 466 694 462 l 1019 1342 q 1149 1430 1053 1430 q 1232 1413 1188 1430 q 1339 1335 1309 1384 q 1356 1275 1356 1307 q 1346 1225 1356 1251 l 733 -441 q 642 -500 709 -500 z "},"z":{"ha":1394,"x_min":20,"x_max":1373,"o":"m 311 -439 q 176 -437 233 -439 q 93 -402 123 -434 q 43 -320 63 -370 q 20 -221 20 -267 q 78 -67 20 -144 q 642 641 186 91 q 946 1013 814 849 q 779 1017 882 1017 q 353 998 524 1013 q 271 994 283 994 q 177 1036 203 994 q 152 1152 152 1079 l 151 1175 q 157 1241 151 1208 q 306 1329 172 1322 q 471 1337 389 1332 q 802 1350 671 1350 q 926 1348 864 1350 q 977 1345 951 1346 q 1118 1336 1048 1345 q 1245 1296 1188 1327 q 1337 1195 1303 1264 q 1373 1059 1373 1120 q 1339 956 1373 1008 q 917 414 1227 793 q 508 -89 709 163 q 995 -96 854 -96 q 1071 -119 1044 -96 q 1118 -275 1118 -162 q 1108 -358 1118 -323 q 1072 -411 1098 -393 q 996 -429 1046 -429 q 702 -433 887 -429 q 311 -439 400 -439 z "},"{":{"ha":659,"x_min":20,"x_max":638,"o":"m 292 -733 q 308 -732 294 -733 q 349 -721 321 -732 q 395 -699 376 -711 q 481 -630 463 -661 q 493 -595 493 -612 q 488 -572 493 -583 q 444 -372 452 -475 q 432 -146 432 -260 q 432 -66 432 -135 q 443 126 433 2 l 443 136 q 351 294 443 222 q 340 319 340 304 l 340 327 q 353 345 340 335 q 446 424 410 384 q 487 516 481 463 q 551 1051 516 817 q 608 1285 585 1255 q 638 1350 638 1321 q 566 1454 638 1391 l 551 1468 q 470 1510 508 1510 q 422 1491 446 1510 q 336 1354 370 1449 q 274 1075 302 1258 q 216 588 247 892 l 149 542 q 51 447 75 492 q 20 301 20 391 q 41 204 20 250 q 125 115 61 159 l 162 89 q 155 -139 155 -32 q 256 -718 155 -578 q 292 -733 269 -733 z "},"}":{"ha":566,"x_min":20,"x_max":546,"o":"m 135 -699 q 189 -688 161 -699 q 299 -584 251 -665 q 379 -324 348 -503 q 418 172 410 -145 q 445 208 429 187 q 472 244 460 228 q 534 356 521 308 q 546 446 546 400 l 546 461 q 523 567 546 521 q 444 659 500 614 q 406 691 426 673 q 383 1135 403 975 q 333 1370 363 1295 q 268 1476 303 1445 q 161 1522 222 1522 l 144 1522 q 68 1499 93 1522 q 32 1401 44 1475 q 28 1365 28 1383 q 36 1314 28 1343 q 76 1267 43 1285 q 108 1101 90 1240 q 129 644 126 962 q 174 531 132 579 q 224 482 197 505 q 239 471 231 476 q 262 451 254 462 q 266 439 266 446 q 260 422 266 431 q 222 374 243 396 q 189 332 205 354 q 156 271 170 303 q 142 205 143 239 q 116 -200 134 -60 q 80 -393 97 -340 q 41 -458 68 -430 q 20 -513 20 -482 q 22 -538 20 -517 q 43 -600 24 -558 q 46 -608 44 -604 q 66 -653 56 -633 q 93 -686 77 -673 q 135 -699 109 -699 z "},"~":{"ha":934,"x_min":20,"x_max":934,"o":"m 587 273 q 391 288 507 273 q 245 301 291 301 q 175 292 204 301 q 136 286 154 286 q 86 302 107 286 q 33 384 52 328 q 20 455 20 421 q 24 488 20 472 q 87 555 34 536 q 238 578 161 578 q 425 564 319 578 q 557 550 517 551 q 600 550 598 550 q 734 585 679 550 q 792 605 764 605 q 824 598 808 605 q 899 531 866 580 q 933 458 932 483 q 934 431 934 433 q 890 355 934 387 q 587 273 764 273 z "},"À":{"ha":1274,"x_min":20,"x_max":1254,"o":"m 273 -404 q 182 -388 234 -404 l 153 -380 q 55 -342 95 -365 q 20 -282 20 -322 q 86 33 20 -252 q 223 562 140 271 q 393 1050 288 786 q 473 1184 429 1141 q 582 1237 517 1226 q 706 1246 633 1246 l 748 1245 q 941 1207 882 1245 q 1031 1063 1000 1168 q 1143 640 1103 845 q 1245 -167 1207 283 q 1250 -218 1247 -195 q 1254 -272 1254 -262 q 1215 -349 1254 -325 q 1101 -381 1175 -373 q 1028 -388 1062 -388 q 954 -378 996 -388 q 899 -299 912 -369 q 889 -199 894 -251 q 878 -79 885 -148 q 867 -68 878 -68 q 515 -60 598 -60 q 443 -64 472 -60 q 427 -77 431 -65 q 391 -244 406 -174 q 372 -336 380 -304 q 273 -404 353 -404 m 828 210 q 840 215 836 210 q 845 229 845 220 q 807 490 829 357 q 714 892 755 783 q 538 367 637 723 q 500 224 500 229 q 508 216 500 216 l 528 216 q 828 210 634 216 m 1094 1234 q 1054 1242 1076 1234 q 756 1364 903 1299 q 639 1415 707 1386 q 395 1530 416 1508 q 380 1572 380 1551 q 397 1635 380 1598 q 441 1712 416 1689 q 488 1733 464 1733 q 526 1725 505 1733 l 541 1719 q 703 1653 578 1707 q 1027 1511 865 1581 q 1083 1485 1050 1501 q 1142 1456 1116 1470 q 1173 1439 1168 1442 q 1194 1397 1192 1423 q 1179 1336 1193 1366 l 1173 1321 q 1135 1251 1155 1269 q 1094 1234 1116 1234 z "},"Á":{"ha":1274,"x_min":20,"x_max":1254,"o":"m 273 -404 q 182 -388 234 -404 l 153 -380 q 55 -342 95 -365 q 20 -282 20 -322 q 86 33 20 -252 q 223 562 140 271 q 393 1050 288 786 q 473 1184 429 1141 q 582 1237 517 1226 q 706 1246 633 1246 l 748 1245 q 941 1207 882 1245 q 1031 1063 1000 1168 q 1143 640 1103 845 q 1245 -167 1207 283 q 1250 -218 1247 -195 q 1254 -272 1254 -262 q 1215 -349 1254 -325 q 1101 -381 1175 -373 q 1028 -388 1062 -388 q 954 -378 996 -388 q 899 -299 912 -369 q 889 -199 894 -251 q 878 -79 885 -148 q 867 -68 878 -68 l 718 -64 q 515 -60 595 -60 q 458 -62 476 -60 l 443 -64 q 427 -77 431 -65 q 391 -244 406 -174 q 372 -336 380 -304 q 273 -404 353 -404 m 828 210 q 840 215 836 210 q 845 227 845 220 l 845 229 q 807 490 829 357 q 714 892 755 783 q 538 367 637 723 q 500 224 500 229 q 508 216 500 216 l 528 216 q 828 210 634 216 m 375 1246 q 337 1256 351 1246 q 314 1285 323 1267 q 297 1326 305 1303 l 291 1341 q 271 1423 271 1388 q 323 1487 271 1466 q 546 1561 431 1527 l 630 1588 q 918 1675 798 1642 q 1002 1692 982 1692 l 1006 1692 q 1052 1664 1038 1685 q 1077 1609 1065 1643 q 1095 1529 1095 1564 q 1040 1460 1095 1482 l 686 1344 q 424 1255 492 1280 q 375 1246 399 1246 z "},"Â":{"ha":1274,"x_min":20,"x_max":1254,"o":"m 273 -404 q 182 -388 234 -404 l 153 -380 q 55 -342 95 -365 q 20 -282 20 -322 q 86 33 20 -252 q 223 562 140 271 q 393 1050 288 786 q 473 1184 429 1141 q 582 1237 517 1226 q 706 1246 633 1246 l 748 1245 q 941 1207 882 1245 q 1031 1063 1000 1168 q 1143 640 1103 845 q 1245 -167 1207 283 q 1250 -218 1247 -195 q 1254 -272 1254 -262 q 1215 -349 1254 -325 q 1101 -381 1175 -373 q 1028 -388 1062 -388 q 954 -378 996 -388 q 899 -299 912 -369 q 889 -199 894 -251 q 878 -79 885 -148 q 867 -68 878 -68 l 718 -64 q 515 -60 595 -60 q 458 -62 476 -60 l 443 -64 q 427 -77 431 -65 q 391 -244 406 -174 q 372 -336 380 -304 q 273 -404 353 -404 m 828 210 q 840 215 836 210 q 845 227 845 220 l 845 229 q 807 490 829 357 q 714 892 755 783 q 538 367 637 723 q 500 224 500 229 q 508 216 500 216 l 528 216 q 828 210 634 216 m 531 1291 q 444 1329 486 1291 q 396 1418 396 1370 q 416 1469 396 1444 l 662 1765 q 700 1788 680 1785 q 736 1790 720 1790 q 808 1784 781 1790 q 845 1756 830 1778 q 931 1618 847 1754 q 1027 1457 1015 1482 q 1038 1417 1038 1436 q 964 1337 1038 1371 q 901 1315 921 1315 l 881 1315 q 822 1355 844 1315 l 736 1495 q 586 1315 602 1332 q 531 1291 562 1291 z "},"Ã":{"ha":1274,"x_min":20,"x_max":1254,"o":"m 273 -404 q 182 -388 234 -404 l 153 -380 q 55 -342 95 -365 q 20 -282 20 -322 q 86 33 20 -252 q 223 562 140 271 q 393 1050 288 786 q 473 1184 429 1141 q 582 1237 517 1226 q 706 1246 633 1246 l 748 1245 q 941 1207 882 1245 q 1031 1063 1000 1168 q 1143 640 1103 845 q 1245 -167 1207 283 q 1250 -218 1247 -195 q 1254 -272 1254 -262 q 1215 -349 1254 -325 q 1101 -381 1175 -373 q 1028 -388 1062 -388 q 954 -378 996 -388 q 899 -299 912 -369 q 889 -199 894 -251 q 878 -79 885 -148 q 867 -68 878 -68 l 718 -64 q 515 -60 595 -60 q 458 -62 476 -60 l 443 -64 q 427 -77 431 -65 q 391 -244 406 -174 q 372 -336 380 -304 q 273 -404 353 -404 m 828 210 q 840 215 836 210 q 845 227 845 220 l 845 229 q 807 490 829 357 q 714 892 755 783 q 538 367 637 723 q 500 224 500 229 q 508 216 500 216 l 528 216 q 828 210 634 216 m 427 1297 q 386 1315 401 1297 q 358 1358 371 1333 l 350 1373 q 326 1447 326 1412 q 368 1510 326 1485 q 556 1561 460 1561 q 741 1545 652 1561 q 876 1531 824 1531 q 961 1554 928 1531 q 1008 1571 986 1571 q 1031 1567 1020 1571 q 1093 1512 1064 1552 q 1126 1452 1122 1474 q 1129 1425 1129 1430 q 1098 1369 1129 1394 q 978 1313 1036 1324 q 872 1301 920 1301 q 707 1318 803 1301 q 570 1331 622 1331 q 486 1312 521 1331 q 427 1297 457 1297 z "},"Ä":{"ha":1274,"x_min":20,"x_max":1254,"o":"m 273 -404 q 182 -388 234 -404 l 153 -380 q 55 -342 95 -365 q 20 -282 20 -322 q 86 33 20 -252 q 223 562 140 271 q 393 1050 288 786 q 473 1184 429 1141 q 582 1237 517 1226 q 706 1246 633 1246 l 748 1245 q 941 1207 882 1245 q 1031 1063 1000 1168 q 1143 640 1103 845 q 1245 -167 1207 283 q 1250 -218 1247 -195 q 1254 -272 1254 -262 q 1215 -349 1254 -325 q 1101 -381 1175 -373 q 1028 -388 1062 -388 q 954 -378 996 -388 q 899 -299 912 -369 q 889 -199 894 -251 q 878 -79 885 -148 q 867 -68 878 -68 l 718 -64 q 515 -60 595 -60 q 458 -62 476 -60 l 443 -64 q 427 -77 431 -65 q 391 -244 406 -174 q 372 -336 380 -304 q 273 -404 353 -404 m 828 210 q 840 215 836 210 q 845 227 845 220 l 845 229 q 807 490 829 357 q 714 892 755 783 q 538 367 637 723 q 500 224 500 229 q 508 216 500 216 l 528 216 q 828 210 634 216 m 541 1323 q 469 1328 501 1323 q 417 1349 437 1332 q 398 1407 398 1367 l 398 1520 q 417 1574 398 1558 q 467 1593 436 1590 q 524 1596 493 1596 q 616 1592 585 1596 q 664 1571 646 1588 q 681 1514 681 1554 l 684 1391 q 664 1343 684 1357 q 613 1326 645 1329 q 541 1323 581 1323 m 903 1323 q 831 1328 864 1323 q 780 1349 799 1332 q 761 1407 761 1367 l 761 1520 q 780 1574 761 1558 q 830 1593 799 1590 q 887 1596 856 1596 q 979 1592 948 1596 q 1026 1571 1009 1588 q 1043 1514 1043 1554 l 1046 1391 q 1027 1343 1046 1357 q 976 1326 1008 1329 q 903 1323 943 1323 z "},"Å":{"ha":1274,"x_min":20,"x_max":1254,"o":"m 273 -404 q 182 -388 234 -404 l 153 -380 q 55 -342 95 -365 q 20 -282 20 -322 q 86 33 20 -252 q 223 562 140 271 q 393 1050 288 786 q 473 1184 429 1141 q 582 1237 517 1226 q 706 1246 633 1246 l 748 1245 q 941 1207 882 1245 q 1031 1063 1000 1168 q 1143 640 1103 845 q 1245 -167 1207 283 q 1250 -218 1247 -195 q 1254 -272 1254 -262 q 1215 -349 1254 -325 q 1101 -381 1175 -373 q 1028 -388 1062 -388 q 954 -378 996 -388 q 899 -299 912 -369 q 889 -199 894 -251 q 878 -79 885 -148 q 867 -68 878 -68 l 718 -64 q 515 -60 595 -60 q 458 -62 476 -60 l 443 -64 q 427 -77 431 -65 q 391 -244 406 -174 q 372 -336 380 -304 q 273 -404 353 -404 m 828 210 q 840 215 836 210 q 845 227 845 220 l 845 229 q 807 490 829 357 q 714 892 755 783 q 538 367 637 723 q 500 224 500 229 q 508 216 500 216 l 528 216 q 828 210 634 216 m 742 1327 q 642 1344 694 1327 q 569 1386 597 1359 q 500 1518 519 1444 q 488 1609 488 1563 l 489 1630 q 618 1868 503 1777 q 743 1906 675 1906 l 756 1906 q 880 1866 825 1906 q 964 1739 947 1815 q 975 1636 975 1700 q 888 1381 975 1477 q 742 1327 832 1327 m 730 1430 q 776 1459 753 1430 q 814 1539 798 1488 q 829 1655 829 1591 q 818 1728 829 1697 q 790 1777 806 1758 q 764 1796 775 1796 q 750 1797 752 1797 q 672 1718 709 1797 q 652 1622 653 1678 q 682 1464 652 1519 q 730 1430 701 1430 z "},"Æ":{"ha":2077,"x_min":20,"x_max":2057,"o":"m 1640 -446 q 1527 -443 1622 -446 q 1263 -418 1432 -441 l 1238 -416 q 1116 -405 1193 -414 q 899 -309 916 -380 q 895 -274 897 -296 q 889 -208 893 -251 l 878 -89 q 874 -81 878 -84 q 856 -77 870 -77 l 717 -73 q 515 -70 595 -70 q 458 -72 475 -70 l 442 -74 q 427 -86 430 -75 q 391 -254 405 -184 q 372 -345 379 -313 q 273 -414 353 -414 q 182 -397 233 -414 l 153 -389 q 55 -351 94 -374 q 20 -292 20 -332 q 85 24 20 -262 q 222 553 140 261 q 393 1040 294 797 q 473 1174 429 1132 q 581 1227 517 1217 q 706 1236 633 1236 l 748 1236 q 941 1197 882 1236 q 1031 1053 1000 1159 q 1130 694 1095 863 q 1180 1006 1153 867 q 1246 1199 1203 1128 q 1314 1251 1273 1236 q 1577 1272 1377 1272 q 1865 1257 1723 1272 q 1947 1244 1904 1254 q 2019 1212 1989 1234 q 2054 1146 2049 1189 q 2057 1093 2057 1119 q 2043 966 2057 1029 q 1993 919 2031 928 q 1931 911 1962 911 l 1918 912 l 1871 913 q 1760 916 1815 913 q 1594 922 1677 922 l 1583 922 q 1544 917 1564 922 q 1518 884 1525 912 l 1511 842 q 1461 473 1483 698 q 1459 458 1459 463 q 1481 429 1459 434 q 1519 426 1494 426 q 1772 412 1666 424 q 1843 370 1831 405 q 1851 313 1851 347 q 1850 283 1851 298 l 1850 270 q 1754 110 1843 116 q 1716 108 1748 108 q 1544 112 1643 108 q 1506 114 1524 114 q 1451 109 1477 114 q 1438 43 1443 94 q 1434 -43 1434 0 q 1435 -76 1434 -49 q 1446 -117 1436 -104 q 1658 -138 1546 -138 q 1728 -137 1665 -138 q 1887 -122 1791 -136 q 1921 -119 1906 -119 q 1975 -132 1950 -119 q 2019 -195 2000 -146 q 2041 -300 2041 -250 q 2021 -373 2041 -340 q 1943 -419 1998 -409 q 1640 -446 1794 -446 m 827 201 q 840 206 836 201 q 844 218 844 211 l 844 220 q 807 481 829 348 q 713 883 755 773 q 538 357 638 718 q 500 214 500 222 q 507 207 500 207 l 543 207 q 827 201 646 207 z "},"Ç":{"ha":1226,"x_min":20,"x_max":1206,"o":"m 649 -859 q 610 -855 629 -859 q 572 -803 572 -849 q 574 -784 572 -794 q 620 -729 581 -729 l 627 -730 q 651 -732 640 -732 q 723 -711 689 -732 q 748 -684 738 -701 q 757 -655 757 -670 l 756 -649 q 703 -610 749 -610 q 631 -643 660 -610 q 614 -650 624 -650 q 573 -632 599 -650 q 542 -585 542 -612 l 542 -456 q 226 -298 349 -439 q 48 73 97 -147 q 20 336 20 198 q 37 555 20 441 q 182 986 78 822 q 429 1221 287 1149 q 684 1282 552 1282 q 918 1246 806 1282 q 1161 1020 1090 1191 q 1206 787 1206 910 q 1202 721 1206 752 q 1144 640 1194 650 q 1090 635 1120 635 q 1003 643 1057 635 q 915 656 954 647 q 837 743 837 673 q 838 760 837 750 q 839 782 839 770 q 793 940 839 883 q 722 965 773 965 q 685 960 703 965 q 561 885 612 940 q 477 764 509 829 q 425 629 445 699 q 385 345 385 490 q 439 50 385 191 q 585 -119 490 -87 q 629 -125 608 -125 q 701 -104 663 -125 q 769 -34 739 -83 q 809 70 800 16 q 880 161 824 143 q 949 172 911 172 q 1013 165 979 172 q 1173 34 1173 140 q 1133 -129 1173 -19 q 1033 -301 1102 -214 q 870 -420 962 -385 q 669 -459 779 -456 l 669 -500 q 712 -497 690 -497 q 747 -498 724 -497 q 802 -516 770 -500 q 880 -625 862 -545 q 883 -660 883 -643 q 831 -785 883 -728 q 750 -839 798 -820 q 649 -859 702 -859 z "},"È":{"ha":1006,"x_min":20,"x_max":1041,"o":"m 534 -441 q 191 -409 362 -441 q 88 -337 123 -393 q 20 76 20 -227 q 109 1015 20 562 q 175 1208 132 1138 q 242 1260 201 1246 q 507 1282 305 1282 q 794 1267 652 1282 q 876 1254 833 1263 q 948 1221 918 1244 q 983 1156 978 1198 q 985 1101 985 1128 q 972 976 985 1038 q 922 928 960 937 q 860 921 890 921 q 688 926 762 921 q 511 932 626 929 q 473 927 492 932 q 447 894 453 922 l 439 851 q 389 482 412 707 q 388 470 388 475 q 410 439 388 444 q 448 435 422 435 q 701 422 594 433 q 772 380 760 414 q 781 319 781 355 l 779 279 q 683 119 771 125 q 615 117 676 117 q 488 121 513 119 q 434 123 453 123 q 380 119 406 123 q 367 53 372 103 q 363 -24 363 14 q 364 -64 363 -35 q 374 -107 364 -94 q 587 -128 474 -128 q 657 -127 593 -128 q 816 -113 720 -127 q 850 -109 834 -109 q 903 -123 878 -109 q 947 -185 928 -136 q 970 -291 970 -240 q 872 -410 970 -391 q 534 -441 703 -441 m 941 1299 q 901 1308 923 1299 q 603 1430 749 1364 q 486 1480 553 1452 q 242 1596 262 1574 q 227 1638 227 1617 q 244 1701 227 1664 q 288 1778 262 1755 q 334 1799 311 1799 q 373 1790 351 1799 l 388 1785 q 550 1718 425 1773 q 874 1577 712 1647 q 930 1551 897 1567 q 989 1522 962 1535 q 1019 1505 1015 1508 q 1041 1463 1038 1489 q 1025 1402 1040 1432 l 1019 1387 q 982 1317 1002 1335 q 941 1299 962 1299 z "},"É":{"ha":1006,"x_min":20,"x_max":985,"o":"m 534 -441 q 191 -409 362 -441 q 88 -337 123 -393 q 20 76 20 -227 q 25 278 20 177 q 109 1015 38 655 q 175 1208 132 1138 q 242 1260 201 1246 q 507 1282 305 1282 q 794 1267 652 1282 q 876 1254 833 1263 q 948 1221 918 1244 q 983 1156 978 1198 q 985 1101 985 1128 q 972 976 985 1038 q 922 928 960 937 q 860 921 890 921 q 688 926 762 921 q 511 932 626 929 q 473 927 492 932 q 447 894 453 922 l 439 851 q 389 482 412 707 q 388 470 388 475 q 389 458 388 465 q 410 439 392 442 q 448 435 422 435 q 701 422 594 433 q 772 380 760 414 q 781 319 781 355 q 779 292 781 307 l 779 279 q 683 119 771 125 q 635 117 676 117 l 595 117 q 504 120 513 119 l 473 121 q 434 123 453 123 q 380 119 406 123 q 367 53 372 103 q 363 -24 363 14 q 364 -64 363 -35 q 374 -107 364 -94 q 587 -128 474 -128 q 657 -127 593 -128 q 816 -113 720 -127 q 850 -109 834 -109 q 903 -123 878 -109 q 947 -185 928 -136 q 970 -291 970 -240 q 872 -410 970 -391 q 534 -441 703 -441 m 258 1315 q 221 1325 235 1315 q 198 1354 207 1336 q 180 1395 189 1372 l 174 1410 q 155 1492 155 1457 q 206 1556 155 1535 q 429 1630 314 1596 l 513 1657 q 802 1744 681 1711 q 886 1761 865 1761 l 890 1761 q 935 1733 922 1754 q 960 1678 949 1712 q 978 1598 978 1633 q 923 1529 978 1551 l 570 1413 q 307 1324 376 1350 q 258 1315 283 1315 z "},"Ê":{"ha":1006,"x_min":20,"x_max":985,"o":"m 534 -441 q 191 -409 362 -441 q 88 -337 123 -393 q 20 76 20 -227 q 25 278 20 177 q 109 1015 38 655 q 175 1208 132 1138 q 242 1260 201 1246 q 507 1282 305 1282 q 794 1267 652 1282 q 876 1254 833 1263 q 948 1221 918 1244 q 983 1156 978 1198 q 985 1101 985 1128 q 972 976 985 1038 q 922 928 960 937 q 860 921 890 921 q 688 926 762 921 q 511 932 626 929 q 473 927 492 932 q 447 894 453 922 l 439 851 q 389 482 412 707 q 388 470 388 475 q 389 458 388 465 q 410 439 392 442 q 448 435 422 435 q 701 422 594 433 q 772 380 760 414 q 781 319 781 355 q 779 292 781 307 l 779 279 q 683 119 771 125 q 635 117 676 117 l 595 117 q 504 120 513 119 l 473 121 q 434 123 453 123 q 380 119 406 123 q 367 53 372 103 q 363 -24 363 14 q 364 -64 363 -35 q 374 -107 364 -94 q 587 -128 474 -128 q 657 -127 593 -128 q 816 -113 720 -127 q 850 -109 834 -109 q 903 -123 878 -109 q 947 -185 928 -136 q 970 -291 970 -240 q 872 -410 970 -391 q 534 -441 703 -441 m 426 1324 q 338 1362 381 1324 q 289 1453 289 1404 q 309 1505 289 1480 l 559 1806 q 597 1829 577 1826 q 634 1832 618 1832 q 707 1825 680 1832 q 745 1797 730 1819 q 832 1657 747 1795 q 930 1493 918 1518 q 941 1453 941 1471 q 866 1371 941 1406 q 802 1349 822 1349 l 782 1349 q 722 1390 744 1349 l 635 1532 q 481 1349 498 1366 q 426 1324 458 1324 z "},"Ë":{"ha":1006,"x_min":20,"x_max":985,"o":"m 534 -441 q 191 -409 362 -441 q 88 -337 123 -393 q 20 76 20 -227 q 25 278 20 177 q 109 1015 38 655 q 175 1208 132 1138 q 242 1260 201 1246 q 507 1282 305 1282 q 794 1267 652 1282 q 876 1254 833 1263 q 948 1221 918 1244 q 983 1156 978 1198 q 985 1101 985 1128 q 972 976 985 1038 q 922 928 960 937 q 860 921 890 921 q 688 926 762 921 q 511 932 626 929 q 473 927 492 932 q 447 894 453 922 l 439 851 q 389 482 412 707 q 388 470 388 475 q 389 458 388 465 q 410 439 392 442 q 448 435 422 435 q 701 422 594 433 q 772 380 760 414 q 781 319 781 355 q 779 292 781 307 l 779 279 q 683 119 771 125 q 635 117 676 117 l 595 117 q 504 120 513 119 l 473 121 q 434 123 453 123 q 380 119 406 123 q 367 53 372 103 q 363 -24 363 14 q 364 -64 363 -35 q 374 -107 364 -94 q 587 -128 474 -128 q 657 -127 593 -128 q 816 -113 720 -127 q 850 -109 834 -109 q 903 -123 878 -109 q 947 -185 928 -136 q 970 -291 970 -240 q 872 -410 970 -391 q 534 -441 703 -441 m 412 1329 q 341 1334 373 1329 q 289 1355 309 1338 q 270 1413 270 1373 l 270 1526 q 289 1580 270 1564 q 339 1599 308 1596 q 396 1602 365 1602 q 488 1598 457 1602 q 535 1577 518 1594 q 553 1520 553 1560 l 555 1397 q 536 1349 555 1363 q 485 1332 517 1335 q 412 1329 452 1329 m 775 1329 q 703 1334 736 1329 q 652 1355 671 1338 q 633 1413 633 1373 l 633 1526 q 652 1580 633 1564 q 702 1599 671 1596 q 759 1602 728 1602 q 850 1598 820 1602 q 898 1577 881 1594 q 915 1520 915 1560 l 918 1397 q 899 1349 918 1363 q 847 1332 880 1335 q 775 1329 815 1329 z "},"Ì":{"ha":892,"x_min":20,"x_max":900,"o":"m 154 -422 q 106 -418 128 -422 q 37 -299 37 -405 q 71 -151 37 -186 q 182 -117 104 -117 l 204 -117 q 242 -111 233 -117 q 248 -95 248 -107 l 248 -86 q 227 275 227 76 q 258 943 227 603 q 249 952 258 952 l 113 951 q 47 974 66 951 q 24 1031 28 996 q 20 1101 20 1065 q 22 1156 20 1128 q 113 1256 26 1256 q 234 1257 144 1256 q 768 1263 637 1263 q 838 1242 816 1263 q 865 1188 859 1221 q 871 1120 871 1155 q 859 1021 871 1060 q 768 958 837 958 q 631 957 700 958 q 616 943 617 956 q 610 863 616 904 q 604 816 606 840 q 585 297 585 557 q 596 -1 585 127 q 598 -22 597 -12 q 606 -91 602 -57 q 623 -108 609 -106 q 637 -109 630 -109 q 652 -107 644 -109 q 671 -106 659 -106 q 755 -126 728 -106 q 787 -175 781 -146 q 792 -229 792 -203 l 792 -262 q 774 -358 792 -315 q 691 -408 753 -405 q 468 -414 609 -412 q 191 -422 241 -417 l 154 -422 m 800 1309 q 760 1318 782 1309 q 462 1440 608 1374 q 345 1490 412 1461 q 101 1605 121 1584 q 86 1647 86 1626 q 103 1710 86 1673 q 147 1788 121 1765 q 193 1808 170 1808 q 232 1800 210 1808 l 247 1794 q 409 1728 283 1782 q 733 1586 571 1656 q 789 1560 756 1576 q 848 1531 821 1545 q 878 1514 874 1518 q 900 1472 897 1499 q 884 1411 899 1441 l 878 1396 q 841 1326 861 1344 q 800 1309 821 1309 z "},"Í":{"ha":892,"x_min":17,"x_max":871,"o":"m 154 -422 q 106 -418 128 -422 q 37 -299 37 -405 q 71 -151 37 -186 q 182 -117 104 -117 l 204 -117 q 242 -111 233 -117 q 248 -95 248 -107 l 248 -86 q 227 275 227 76 q 258 942 227 603 l 258 943 q 249 952 258 952 l 113 951 q 47 974 66 951 q 24 1031 28 996 q 20 1101 20 1065 q 22 1156 20 1128 q 32 1206 23 1183 q 113 1256 50 1256 q 234 1257 144 1256 q 768 1263 637 1263 q 838 1242 816 1263 q 865 1188 859 1221 q 871 1120 871 1155 q 859 1021 871 1060 q 768 958 837 958 l 631 957 q 616 943 617 956 q 610 863 616 904 q 604 816 606 840 q 585 297 585 557 q 596 -1 585 127 q 598 -22 597 -12 q 606 -91 602 -57 q 623 -108 609 -106 q 637 -109 630 -109 q 652 -107 644 -109 q 671 -106 659 -106 q 755 -126 728 -106 q 787 -175 781 -146 q 792 -229 792 -203 l 792 -262 q 774 -358 792 -315 q 691 -408 753 -405 q 468 -414 609 -412 q 191 -422 241 -417 l 171 -422 l 154 -422 m 121 1309 q 83 1319 97 1309 q 60 1348 69 1330 q 43 1389 51 1366 l 37 1404 q 17 1486 17 1451 q 68 1550 17 1529 q 292 1624 176 1590 l 376 1651 q 664 1738 543 1705 q 748 1755 728 1755 l 752 1755 q 798 1727 784 1748 q 823 1672 811 1706 q 840 1592 840 1627 q 785 1523 840 1545 l 432 1407 q 170 1318 238 1343 q 121 1309 145 1309 z "},"Î":{"ha":892,"x_min":20,"x_max":871,"o":"m 154 -422 q 106 -418 128 -422 q 37 -299 37 -405 q 71 -151 37 -186 q 182 -117 104 -117 l 204 -117 q 242 -111 233 -117 q 248 -95 248 -107 l 248 -86 q 227 275 227 76 q 258 942 227 603 l 258 943 q 249 952 258 952 l 113 951 q 47 974 66 951 q 24 1031 28 996 q 20 1101 20 1065 q 22 1156 20 1128 q 32 1206 23 1183 q 113 1256 50 1256 q 234 1257 144 1256 q 768 1263 637 1263 q 838 1242 816 1263 q 865 1188 859 1221 q 871 1120 871 1155 q 859 1021 871 1060 q 768 958 837 958 l 631 957 q 616 943 617 956 q 610 863 616 904 q 604 816 606 840 q 585 297 585 557 q 596 -1 585 127 q 598 -22 597 -12 q 606 -91 602 -57 q 623 -108 609 -106 q 637 -109 630 -109 q 652 -107 644 -109 q 671 -106 659 -106 q 755 -126 728 -106 q 787 -175 781 -146 q 792 -229 792 -203 l 792 -262 q 774 -358 792 -315 q 691 -408 753 -405 q 468 -414 609 -412 q 191 -422 241 -417 l 171 -422 l 154 -422 m 256 1320 q 170 1358 212 1320 q 121 1447 121 1399 q 141 1498 121 1474 l 387 1794 q 425 1817 405 1814 q 461 1820 445 1820 q 533 1813 506 1820 q 570 1786 555 1807 q 656 1648 572 1784 q 753 1487 741 1512 q 763 1447 763 1465 q 690 1367 763 1400 q 627 1344 646 1344 l 606 1344 q 547 1384 569 1344 l 462 1525 q 311 1344 327 1361 q 256 1320 288 1320 z "},"Ï":{"ha":892,"x_min":20,"x_max":871,"o":"m 154 -422 q 106 -418 128 -422 q 37 -299 37 -405 q 71 -151 37 -186 q 182 -117 104 -117 l 204 -117 q 242 -111 233 -117 q 248 -95 248 -107 l 248 -86 q 227 275 227 76 q 258 942 227 603 l 258 943 q 249 952 258 952 l 113 951 q 47 974 66 951 q 24 1031 28 996 q 20 1101 20 1065 q 22 1156 20 1128 q 32 1206 23 1183 q 113 1256 50 1256 q 234 1257 144 1256 q 768 1263 637 1263 q 838 1242 816 1263 q 865 1188 859 1221 q 871 1120 871 1155 q 859 1021 871 1060 q 768 958 837 958 l 631 957 q 616 943 617 956 q 610 863 616 904 q 604 816 606 840 q 585 297 585 557 q 596 -1 585 127 q 598 -22 597 -12 q 606 -91 602 -57 q 623 -108 609 -106 q 637 -109 630 -109 q 652 -107 644 -109 q 671 -106 659 -106 q 755 -126 728 -106 q 787 -175 781 -146 q 792 -229 792 -203 l 792 -262 q 774 -358 792 -315 q 691 -408 753 -405 q 468 -414 609 -412 q 191 -422 241 -417 l 171 -422 l 154 -422 m 269 1320 q 197 1325 229 1320 q 145 1347 165 1329 q 126 1404 126 1364 l 126 1517 q 145 1571 126 1555 q 195 1590 164 1587 q 252 1593 221 1593 q 344 1589 313 1593 q 392 1568 374 1585 q 409 1511 409 1551 l 412 1388 q 392 1340 412 1354 q 341 1323 373 1326 q 269 1320 309 1320 m 631 1320 q 559 1325 592 1320 q 508 1347 527 1329 q 489 1404 489 1364 l 489 1517 q 508 1571 489 1555 q 558 1590 527 1587 q 615 1593 584 1593 q 707 1589 676 1593 q 754 1568 737 1585 q 771 1511 771 1551 l 774 1388 q 755 1340 774 1354 q 704 1323 736 1326 q 631 1320 671 1320 z "},"Ð":{"ha":1510,"x_min":20,"x_max":1491,"o":"m 502 -501 q 435 -498 478 -501 q 346 -462 393 -495 q 296 -388 311 -433 q 273 -300 280 -342 q 244 73 244 -132 q 250 286 244 179 q 119 283 148 284 l 113 283 q 41 321 58 283 q 20 460 20 367 q 32 540 20 501 q 102 583 43 578 q 274 587 130 585 q 320 954 291 772 q 378 1212 344 1116 q 579 1336 423 1326 q 636 1338 608 1338 q 706 1335 672 1338 q 1050 1261 909 1319 q 1478 694 1407 1109 q 1491 533 1491 612 q 1377 72 1491 293 q 1174 -202 1298 -79 q 896 -402 1050 -325 q 570 -498 742 -480 q 502 -501 536 -501 m 631 -165 l 637 -164 q 941 17 798 -116 q 1154 364 1094 155 q 1175 524 1175 438 q 1165 644 1175 581 q 1020 918 1133 836 q 724 1013 907 1000 l 722 1013 q 700 1005 710 1013 q 687 984 690 998 q 633 589 657 831 q 851 582 791 589 q 929 526 911 571 q 940 462 940 498 q 920 350 940 406 q 829 282 895 282 q 807 283 819 282 q 610 288 762 288 q 603 70 603 172 q 621 -161 603 -151 q 631 -165 625 -165 z "},"Ñ":{"ha":1345,"x_min":20,"x_max":1325,"o":"m 990 -366 q 895 -315 934 -366 q 687 58 776 -137 q 604 222 647 141 q 491 454 544 336 l 408 643 q 377 -241 377 325 q 326 -337 375 -313 q 207 -360 277 -360 q 109 -351 149 -360 q 20 -241 22 -331 l 20 -132 q 38 618 20 297 q 113 1194 58 973 q 183 1269 133 1256 q 279 1282 233 1282 q 421 1258 372 1282 q 482 1202 459 1240 q 529 1102 505 1164 q 694 731 606 916 l 810 479 q 869 355 837 421 q 962 157 926 234 q 970 824 970 570 q 965 1208 970 1139 l 965 1217 q 1010 1301 965 1280 q 1135 1326 1059 1324 q 1187 1329 1162 1329 q 1262 1320 1230 1329 q 1321 1234 1314 1305 q 1325 1077 1325 1156 q 1322 932 1325 1005 q 1305 371 1317 733 q 1302 235 1303 303 q 1288 -113 1300 60 q 1272 -219 1284 -176 q 1222 -292 1259 -262 q 1105 -345 1185 -321 q 1020 -366 1048 -365 q 990 -366 991 -366 m 412 1325 q 371 1343 386 1325 q 342 1387 355 1362 l 334 1401 q 311 1475 311 1440 q 353 1539 311 1513 q 541 1590 445 1590 q 725 1573 636 1590 q 861 1559 808 1559 q 945 1582 912 1559 q 993 1600 970 1600 q 1016 1595 1004 1600 q 1077 1541 1048 1581 q 1110 1480 1107 1502 q 1114 1453 1114 1459 q 1082 1398 1114 1422 q 962 1341 1020 1353 q 857 1330 904 1330 q 691 1346 787 1330 q 554 1360 606 1360 q 470 1341 505 1360 q 412 1325 441 1325 z "},"Ò":{"ha":1184,"x_min":20,"x_max":1164,"o":"m 576 -401 l 555 -401 q 277 -320 387 -401 q 121 -144 175 -242 q 45 81 66 -47 q 20 366 20 222 q 108 888 20 642 q 178 1046 139 979 q 285 1179 216 1114 q 451 1269 361 1250 q 625 1287 541 1287 q 669 1286 647 1287 q 866 1239 774 1282 q 1015 1114 958 1196 q 1164 498 1164 888 q 1118 103 1164 300 q 1024 -144 1087 -35 q 846 -336 960 -254 q 714 -389 785 -377 q 576 -401 644 -401 m 579 -165 q 626 -157 602 -165 q 705 -104 673 -140 q 789 113 769 -28 q 821 538 821 324 q 808 812 821 704 q 685 1023 789 974 q 640 1032 661 1032 q 607 1027 623 1032 q 541 984 570 1014 q 435 706 450 892 q 406 354 406 531 q 427 47 406 201 q 444 -43 432 1 q 532 -157 465 -129 q 579 -165 555 -165 m 1006 1304 q 966 1313 988 1304 q 668 1435 814 1369 q 551 1485 618 1457 q 307 1600 328 1579 q 292 1643 292 1622 q 309 1706 292 1668 q 353 1783 328 1760 q 399 1803 376 1803 q 438 1795 416 1803 l 453 1790 q 615 1723 490 1777 q 939 1581 777 1651 q 995 1556 962 1571 q 1054 1527 1027 1540 q 1084 1510 1080 1513 q 1106 1468 1103 1494 q 1090 1407 1105 1436 l 1084 1392 q 1047 1322 1067 1339 q 1006 1304 1027 1304 z "},"Ó":{"ha":1184,"x_min":20,"x_max":1164,"o":"m 576 -401 l 555 -401 q 277 -320 387 -401 q 121 -144 175 -242 q 45 81 66 -47 q 20 366 20 222 q 108 888 20 642 q 178 1046 139 979 q 285 1179 216 1114 q 451 1269 361 1250 q 625 1287 541 1287 q 669 1286 647 1287 q 866 1239 774 1282 q 1015 1114 958 1196 q 1164 498 1164 888 q 1118 103 1164 300 q 1024 -144 1087 -35 q 846 -336 960 -254 q 714 -389 785 -377 q 576 -401 644 -401 m 579 -165 q 626 -157 602 -165 q 705 -104 673 -140 q 789 113 769 -28 q 821 538 821 324 q 818 681 821 586 q 808 812 817 744 q 685 1023 789 974 q 640 1032 661 1032 q 607 1027 623 1032 q 541 984 570 1014 q 456 823 479 921 q 435 706 438 747 q 406 354 406 531 q 427 48 406 201 l 427 46 q 444 -43 432 1 q 532 -157 465 -129 q 579 -165 555 -165 m 283 1298 q 246 1309 260 1298 q 223 1337 232 1319 q 205 1378 214 1355 l 199 1393 q 180 1475 180 1440 q 231 1539 180 1518 q 454 1613 339 1579 l 538 1640 q 827 1727 706 1694 q 911 1744 890 1744 l 915 1744 q 960 1716 947 1737 q 985 1661 974 1695 q 1003 1581 1003 1616 q 948 1512 1003 1534 l 595 1396 q 332 1308 401 1333 q 283 1298 308 1298 z "},"Ô":{"ha":1184,"x_min":20,"x_max":1164,"o":"m 576 -401 l 555 -401 q 277 -320 387 -401 q 121 -144 175 -242 q 45 81 66 -47 q 20 366 20 222 q 108 888 20 642 q 178 1046 139 979 q 285 1179 216 1114 q 451 1269 361 1250 q 625 1287 541 1287 q 669 1286 647 1287 q 866 1239 774 1282 q 1015 1114 958 1196 q 1164 498 1164 888 q 1118 103 1164 300 q 1024 -144 1087 -35 q 846 -336 960 -254 q 714 -389 785 -377 q 576 -401 644 -401 m 579 -165 q 626 -157 602 -165 q 705 -104 673 -140 q 789 113 769 -28 q 821 538 821 324 q 818 681 821 586 q 808 812 817 744 q 685 1023 789 974 q 640 1032 661 1032 q 607 1027 623 1032 q 541 984 570 1014 q 456 823 479 921 q 435 706 438 747 q 406 354 406 531 q 427 48 406 201 l 427 46 q 444 -43 432 1 q 532 -157 465 -129 q 579 -165 555 -165 m 444 1327 q 357 1365 399 1327 q 309 1455 309 1407 q 328 1506 309 1481 l 574 1802 q 612 1824 592 1822 q 648 1827 632 1827 q 720 1820 693 1827 q 758 1793 743 1815 q 844 1655 760 1791 q 940 1494 928 1519 q 950 1454 950 1472 q 877 1374 950 1408 q 814 1352 833 1352 l 793 1352 q 734 1392 756 1352 l 649 1532 q 498 1352 514 1369 q 444 1327 475 1327 z "},"Õ":{"ha":1184,"x_min":20,"x_max":1164,"o":"m 576 -401 l 555 -401 q 277 -320 387 -401 q 121 -144 175 -242 q 45 81 66 -47 q 20 366 20 222 q 108 888 20 642 q 178 1046 139 979 q 285 1179 216 1114 q 451 1269 361 1250 q 625 1287 541 1287 q 669 1286 647 1287 q 866 1239 774 1282 q 1015 1114 958 1196 q 1164 498 1164 888 q 1118 103 1164 300 q 1024 -144 1087 -35 q 846 -336 960 -254 q 714 -389 785 -377 q 576 -401 644 -401 m 579 -165 q 626 -157 602 -165 q 705 -104 673 -140 q 789 113 769 -28 q 821 538 821 324 q 818 681 821 586 q 808 812 817 744 q 685 1023 789 974 q 640 1032 661 1032 q 607 1027 623 1032 q 541 984 570 1014 q 456 823 479 921 q 435 706 438 747 q 406 354 406 531 q 427 48 406 201 l 427 46 q 444 -43 432 1 q 532 -157 465 -129 q 579 -165 555 -165 m 316 1352 q 275 1371 290 1352 q 247 1414 260 1389 l 239 1428 q 215 1502 215 1468 q 257 1566 215 1540 q 445 1617 349 1617 q 629 1600 541 1617 q 765 1586 713 1586 q 850 1609 817 1586 q 897 1627 875 1627 q 920 1622 909 1627 q 981 1568 953 1608 q 1015 1508 1011 1529 q 1018 1480 1018 1486 q 987 1425 1018 1449 q 866 1369 924 1380 q 761 1357 808 1357 q 595 1373 692 1357 q 458 1387 511 1387 q 374 1368 410 1387 q 316 1352 346 1352 z "},"Ö":{"ha":1184,"x_min":28,"x_max":1171,"o":"m 583 -401 l 563 -401 q 285 -320 395 -401 q 128 -144 182 -242 q 53 81 74 -47 q 28 366 28 222 q 115 888 28 642 q 185 1046 146 979 q 292 1179 224 1114 q 458 1269 369 1250 q 632 1287 548 1287 q 677 1286 654 1287 q 873 1239 781 1282 q 1023 1114 966 1196 q 1171 498 1171 888 q 1125 103 1171 300 q 1031 -144 1095 -35 q 854 -336 968 -254 q 722 -389 792 -377 q 583 -401 651 -401 m 587 -165 q 633 -157 610 -165 q 712 -104 681 -140 q 796 113 777 -28 q 829 538 829 324 q 825 681 829 586 q 816 812 824 744 q 692 1023 797 974 q 647 1032 669 1032 q 614 1027 630 1032 q 548 984 577 1014 q 464 823 487 921 q 442 706 446 747 q 413 354 413 531 q 434 48 413 201 l 434 46 q 451 -43 439 1 q 540 -157 473 -129 q 587 -165 563 -165 m 476 1341 q 405 1345 437 1341 q 353 1367 372 1350 q 334 1424 334 1384 l 334 1537 q 353 1591 334 1575 q 403 1611 372 1607 q 460 1613 429 1613 q 551 1609 521 1613 q 599 1588 582 1605 q 616 1531 616 1571 l 619 1409 q 600 1360 619 1375 q 548 1343 581 1346 q 476 1341 516 1341 m 839 1341 q 767 1345 800 1341 q 715 1367 734 1350 q 696 1424 696 1384 l 696 1537 q 715 1591 696 1575 q 766 1611 734 1607 q 823 1613 791 1613 q 914 1609 884 1613 q 962 1588 945 1605 q 979 1531 979 1571 l 982 1409 q 963 1360 982 1375 q 911 1343 943 1346 q 839 1341 879 1341 z "},"Ø":{"ha":1223,"x_min":20,"x_max":1203,"o":"m 245 -481 q 212 -477 237 -481 q 136 -448 186 -473 q 62 -384 85 -424 q 52 -347 52 -366 q 67 -299 52 -324 q 136 -180 79 -279 q 20 357 20 4 q 30 552 20 418 q 108 879 39 687 q 178 1037 139 969 q 285 1170 216 1104 q 462 1261 361 1240 q 625 1278 541 1278 q 669 1276 647 1278 q 930 1192 815 1271 q 965 1248 960 1240 q 1023 1283 991 1283 q 1057 1274 1033 1283 q 1136 1213 1078 1265 q 1203 1125 1203 1162 q 1190 1085 1203 1107 q 1099 931 1174 1059 q 1164 489 1164 737 q 1118 94 1164 290 q 1024 -154 1087 -44 q 846 -345 960 -263 q 710 -399 785 -387 q 576 -410 644 -410 l 551 -410 q 347 -370 444 -410 l 309 -436 l 295 -458 q 245 -481 278 -481 m 407 287 q 774 924 469 397 q 685 1013 747 983 q 640 1023 661 1023 q 541 975 588 1023 q 456 814 479 911 q 437 712 444 763 q 406 346 406 544 q 407 287 406 316 m 578 -175 q 638 -162 602 -175 q 705 -113 673 -150 q 789 103 769 -36 q 821 449 814 275 q 484 -133 701 241 q 485 -134 485 -133 q 578 -175 523 -175 z "},"Ù":{"ha":1178,"x_min":20,"x_max":1158,"o":"m 567 -408 l 532 -408 q 338 -374 431 -408 q 178 -245 243 -340 q 20 523 20 -3 q 47 975 20 747 q 91 1223 68 1152 q 149 1296 115 1291 q 195 1300 182 1300 q 298 1280 241 1300 q 402 1229 370 1259 q 434 1152 434 1198 q 430 1114 434 1135 q 402 928 421 1076 q 378 532 378 745 q 478 -53 378 107 q 520 -89 501 -86 q 544 -92 538 -92 q 597 -70 572 -92 q 649 0 617 -54 q 714 169 681 55 q 772 478 748 283 q 797 832 794 679 q 800 1078 800 986 l 800 1225 q 824 1298 800 1274 q 888 1329 848 1322 q 978 1337 928 1337 q 1066 1331 1027 1337 q 1129 1301 1105 1325 q 1156 1225 1153 1276 l 1156 1165 q 1158 1037 1158 1101 q 1145 614 1158 827 q 1059 71 1130 336 q 870 -301 995 -162 q 723 -390 802 -372 q 567 -408 644 -408 m 870 1411 q 830 1419 852 1411 q 532 1541 679 1476 q 415 1592 482 1564 q 172 1708 192 1686 q 156 1751 156 1729 q 174 1813 156 1773 q 217 1889 191 1866 q 263 1910 239 1910 q 317 1896 281 1910 q 479 1830 354 1884 q 804 1689 641 1758 q 918 1633 858 1664 q 949 1617 945 1619 q 970 1575 968 1601 q 952 1506 969 1543 q 911 1429 930 1446 q 870 1411 892 1411 z "},"Ú":{"ha":1178,"x_min":20,"x_max":1158,"o":"m 567 -408 l 532 -408 q 338 -374 431 -408 q 178 -245 243 -340 q 20 523 20 -3 q 47 975 20 747 q 91 1223 68 1152 q 149 1296 115 1291 q 195 1300 182 1300 q 298 1280 241 1300 q 402 1229 370 1259 q 434 1152 434 1198 q 430 1114 434 1135 q 402 928 421 1076 q 378 576 383 780 l 378 532 q 478 -53 378 107 q 520 -89 501 -86 q 544 -92 538 -92 q 597 -70 572 -92 q 649 0 617 -54 q 714 169 681 55 q 772 478 748 283 q 797 832 794 679 q 800 1078 800 986 l 800 1225 q 824 1298 800 1274 q 888 1329 848 1322 q 978 1337 928 1337 q 1066 1331 1027 1337 q 1129 1301 1105 1325 q 1156 1225 1153 1276 l 1156 1165 q 1158 1037 1158 1101 q 1145 614 1158 827 q 1059 71 1130 336 q 870 -301 995 -162 q 723 -390 802 -372 q 567 -408 644 -408 m 321 1331 q 284 1341 298 1331 q 261 1369 270 1352 q 241 1418 252 1387 q 218 1508 218 1472 q 269 1571 218 1550 q 534 1659 376 1611 q 949 1777 903 1777 l 953 1777 q 998 1748 984 1770 q 1023 1693 1013 1727 q 1040 1616 1040 1650 l 1040 1603 q 986 1545 1036 1564 q 633 1428 954 1533 q 370 1339 401 1352 q 321 1331 346 1331 z "},"Û":{"ha":1178,"x_min":20,"x_max":1158,"o":"m 567 -408 l 532 -408 q 338 -374 431 -408 q 178 -245 243 -340 q 20 523 20 -3 q 47 975 20 747 q 91 1223 68 1152 q 149 1296 115 1291 q 195 1300 182 1300 q 298 1280 241 1300 q 402 1229 370 1259 q 434 1152 434 1198 q 430 1114 434 1135 q 402 928 421 1076 q 378 576 383 780 l 378 532 q 478 -53 378 107 q 520 -89 501 -86 q 544 -92 538 -92 q 597 -70 572 -92 q 649 0 617 -54 q 714 169 681 55 q 772 478 748 283 q 797 832 794 679 q 800 1078 800 986 l 800 1225 q 824 1298 800 1274 q 888 1329 848 1322 q 978 1337 928 1337 q 1066 1331 1027 1337 q 1129 1301 1105 1325 q 1156 1225 1153 1276 l 1156 1165 q 1158 1037 1158 1101 q 1145 614 1158 827 q 1059 71 1130 336 q 870 -301 995 -162 q 723 -390 802 -372 q 567 -408 644 -408 m 431 1378 q 345 1416 387 1378 q 297 1507 297 1457 q 317 1557 297 1533 l 563 1853 q 600 1875 580 1873 q 637 1878 621 1878 q 708 1872 682 1878 q 746 1845 730 1866 q 832 1706 750 1839 q 928 1545 917 1569 q 939 1506 939 1524 q 865 1426 939 1459 q 802 1403 822 1403 q 782 1402 783 1402 q 723 1442 744 1402 q 637 1584 715 1456 q 487 1403 504 1421 q 431 1378 462 1378 z "},"Ü":{"ha":1178,"x_min":20,"x_max":1158,"o":"m 567 -408 l 532 -408 q 338 -374 431 -408 q 178 -245 243 -340 q 20 523 20 -3 q 47 975 20 747 q 91 1223 68 1152 q 149 1296 115 1291 q 195 1300 182 1300 q 298 1280 241 1300 q 402 1229 370 1259 q 434 1152 434 1198 q 430 1114 434 1135 q 402 928 421 1076 q 378 576 383 780 l 378 532 q 478 -53 378 107 q 520 -89 501 -86 q 544 -92 538 -92 q 597 -70 572 -92 q 649 0 617 -54 q 714 169 681 55 q 772 478 748 283 q 797 832 794 679 q 800 1078 800 986 l 800 1225 q 824 1298 800 1274 q 888 1329 848 1322 q 978 1337 928 1337 q 1066 1331 1027 1337 q 1129 1301 1105 1325 q 1156 1225 1153 1276 l 1156 1165 q 1158 1037 1158 1101 q 1145 614 1158 827 q 1059 71 1130 336 q 870 -301 995 -162 q 723 -390 802 -372 q 567 -408 644 -408 m 426 1417 q 354 1421 387 1417 q 302 1443 321 1426 q 283 1499 283 1460 l 283 1613 q 302 1667 283 1651 q 353 1687 321 1683 q 401 1689 375 1689 q 502 1685 468 1689 q 549 1664 532 1681 q 566 1607 566 1647 l 569 1484 q 550 1436 569 1450 q 498 1419 530 1422 q 426 1417 466 1417 m 789 1417 q 716 1421 749 1417 q 665 1443 684 1426 q 646 1499 646 1460 l 646 1613 q 665 1667 646 1651 q 715 1687 684 1683 q 764 1689 738 1689 q 865 1685 831 1689 q 911 1664 895 1681 q 928 1607 928 1647 l 931 1484 q 912 1436 931 1450 q 861 1419 893 1422 q 789 1417 828 1417 z "},"Ý":{"ha":1346,"x_min":20,"x_max":1326,"o":"m 1210 1364 q 1308 1293 1276 1336 q 1326 1240 1326 1270 q 1314 1187 1326 1215 q 1073 629 1251 1044 q 956 369 1017 498 q 919 296 939 332 q 857 165 883 232 q 844 98 846 132 q 842 57 842 77 q 843 29 842 43 l 843 -325 q 821 -395 843 -374 q 762 -419 800 -415 q 674 -422 724 -422 q 582 -419 625 -422 q 513 -395 539 -415 q 486 -325 486 -374 l 486 133 q 465 219 486 178 q 244 648 374 386 q 27 1122 115 911 q 20 1157 20 1140 q 56 1223 20 1192 q 153 1279 92 1255 q 254 1303 209 1303 q 281 1303 256 1303 q 330 1247 306 1302 q 484 876 401 1073 q 641 522 568 679 q 650 515 644 515 q 655 515 651 515 q 663 522 659 515 q 709 634 686 577 q 762 762 736 702 q 765 770 763 766 q 1004 1324 941 1181 q 1089 1390 1034 1386 q 1102 1391 1096 1391 q 1210 1364 1152 1391 m 401 1324 q 364 1335 378 1324 q 341 1363 350 1345 q 323 1404 332 1381 l 317 1419 q 298 1501 298 1466 q 349 1565 298 1544 q 572 1640 457 1606 l 656 1666 q 945 1754 824 1721 q 1029 1771 1008 1771 l 1033 1771 q 1078 1743 1065 1764 q 1103 1687 1092 1722 q 1121 1608 1121 1643 q 1066 1539 1121 1560 l 713 1423 q 450 1334 519 1359 q 401 1324 426 1324 z "},"à":{"ha":1194,"x_min":20,"x_max":1174,"o":"m 955 -397 q 887 -393 925 -397 q 825 -357 850 -389 q 806 -292 806 -335 q 809 -254 806 -274 q 816 -156 813 -223 q 429 -376 627 -376 q 347 -369 377 -376 q 109 -213 199 -336 q 20 66 20 -93 l 20 76 q 109 358 28 240 q 321 549 189 477 q 471 594 385 583 q 526 597 498 597 q 654 578 583 597 q 787 490 726 558 q 802 716 802 586 q 779 928 802 838 q 681 1048 749 1040 q 589 1005 629 1048 q 530 912 548 963 q 477 852 513 866 q 427 844 454 844 q 299 874 372 844 q 197 930 224 901 q 182 973 182 946 q 193 1027 182 996 q 394 1263 252 1187 q 655 1327 513 1327 q 895 1276 783 1327 q 1147 897 1103 1182 q 1166 690 1161 798 q 1174 149 1174 504 q 1161 -308 1174 -189 q 955 -397 1150 -397 m 442 -77 q 483 -75 454 -77 q 560 -41 511 -73 q 656 69 610 -9 q 734 292 703 148 q 675 326 723 304 q 586 342 638 342 q 534 340 574 342 q 416 269 494 337 q 321 64 328 186 q 345 -26 321 13 q 405 -73 368 -65 q 442 -77 420 -77 m 958 1345 q 918 1354 940 1345 q 620 1476 766 1411 q 503 1527 570 1498 q 259 1642 279 1620 q 243 1685 243 1664 q 261 1747 243 1709 q 304 1824 279 1801 q 351 1845 328 1845 q 389 1836 368 1845 q 405 1831 394 1834 q 567 1765 441 1819 q 891 1623 728 1693 q 946 1597 913 1613 q 1006 1568 979 1581 q 1036 1551 1032 1554 q 1057 1509 1055 1535 q 1042 1448 1057 1478 l 1036 1433 q 999 1363 1019 1381 q 958 1345 979 1345 z "},"á":{"ha":1194,"x_min":20,"x_max":1174,"o":"m 955 -397 q 887 -393 925 -397 q 825 -357 850 -389 q 806 -292 806 -335 q 809 -254 806 -274 q 816 -156 813 -223 q 429 -376 627 -376 q 347 -369 377 -376 q 109 -213 199 -336 q 20 66 20 -93 l 20 76 q 109 358 28 240 q 321 549 189 477 q 471 594 385 583 q 526 597 498 597 q 654 578 583 597 q 787 490 726 558 q 802 716 802 586 q 779 928 802 838 q 681 1048 749 1040 q 589 1005 629 1048 q 530 912 548 963 q 477 852 513 866 q 427 844 454 844 q 299 874 372 844 q 197 930 224 901 q 182 973 182 946 q 193 1027 182 996 q 394 1263 252 1187 q 655 1327 513 1327 q 895 1276 783 1327 q 1147 897 1103 1182 q 1166 690 1161 798 q 1174 149 1174 504 q 1161 -308 1174 -189 q 1063 -387 1154 -368 q 955 -397 1013 -397 m 442 -77 q 483 -75 454 -77 q 560 -41 511 -73 q 656 69 610 -9 q 734 292 703 148 l 732 294 q 675 326 722 304 q 586 342 638 342 q 534 340 574 342 q 416 269 494 337 q 321 65 328 186 l 321 62 q 345 -26 321 13 q 405 -73 368 -65 q 442 -77 420 -77 m 304 1336 q 267 1347 281 1336 q 244 1375 253 1357 q 227 1416 235 1393 l 220 1431 q 201 1513 201 1478 q 252 1577 201 1556 q 475 1651 360 1617 l 559 1678 q 848 1765 734 1735 q 932 1782 911 1782 l 936 1782 q 981 1754 967 1775 q 1006 1699 995 1733 q 1023 1622 1023 1655 l 1023 1608 q 969 1550 1019 1570 l 616 1434 q 353 1345 422 1371 q 304 1336 329 1336 z "},"â":{"ha":1194,"x_min":20,"x_max":1174,"o":"m 955 -397 q 887 -393 925 -397 q 825 -357 850 -389 q 806 -292 806 -335 q 809 -254 806 -274 q 816 -156 813 -223 q 429 -376 627 -376 q 347 -369 377 -376 q 109 -213 199 -336 q 20 66 20 -93 l 20 76 q 109 358 28 240 q 321 549 189 477 q 471 594 385 583 q 526 597 498 597 q 654 578 583 597 q 787 490 726 558 q 802 716 802 586 q 779 928 802 838 q 681 1048 749 1040 q 589 1005 629 1048 q 530 912 548 963 q 477 852 513 866 q 427 844 454 844 q 299 874 372 844 q 197 930 224 901 q 182 973 182 946 q 193 1027 182 996 q 394 1263 252 1187 q 655 1327 513 1327 q 895 1276 783 1327 q 1147 897 1103 1182 q 1166 690 1161 798 q 1174 149 1174 504 q 1161 -308 1174 -189 q 1063 -387 1154 -368 q 955 -397 1013 -397 m 442 -77 q 483 -75 454 -77 q 560 -41 511 -73 q 656 69 610 -9 q 734 292 703 148 l 732 294 q 675 326 722 304 q 586 342 638 342 q 534 340 574 342 q 416 269 494 337 q 321 65 328 186 l 321 62 q 345 -26 321 13 q 405 -73 368 -65 q 442 -77 420 -77 m 481 1368 q 394 1406 436 1368 q 346 1496 346 1447 q 366 1546 346 1522 l 612 1843 q 649 1865 629 1862 q 686 1868 669 1868 q 757 1861 730 1868 q 795 1834 779 1855 q 881 1696 797 1832 q 977 1535 965 1560 q 987 1495 987 1514 q 914 1415 987 1449 q 851 1392 871 1392 l 831 1392 q 772 1432 793 1392 l 686 1573 q 536 1392 583 1447 q 481 1368 512 1368 z "},"ã":{"ha":1194,"x_min":20,"x_max":1174,"o":"m 955 -397 q 887 -393 925 -397 q 825 -357 850 -389 q 806 -292 806 -335 q 809 -254 806 -274 q 816 -156 813 -223 q 429 -376 627 -376 q 347 -369 377 -376 q 109 -213 199 -336 q 20 66 20 -93 l 20 76 q 109 358 28 240 q 321 549 189 477 q 471 594 385 583 q 526 597 498 597 q 654 578 583 597 q 787 490 726 558 q 802 716 802 586 q 779 928 802 838 q 681 1048 749 1040 q 589 1005 629 1048 q 530 912 548 963 q 477 852 513 866 q 427 844 454 844 q 299 874 372 844 q 197 930 224 901 q 182 973 182 946 q 193 1027 182 996 q 394 1263 252 1187 q 655 1327 513 1327 q 895 1276 783 1327 q 1147 897 1103 1182 q 1166 690 1161 798 q 1174 149 1174 504 q 1161 -308 1174 -189 q 1063 -387 1154 -368 q 955 -397 1013 -397 m 442 -77 q 483 -75 454 -77 q 560 -41 511 -73 q 656 69 610 -9 q 734 292 703 148 l 732 294 q 675 326 722 304 q 586 342 638 342 q 534 340 574 342 q 416 269 494 337 q 321 65 328 186 l 321 62 q 345 -26 321 13 q 405 -73 368 -65 q 442 -77 420 -77 m 351 1377 q 310 1395 326 1377 q 282 1438 295 1413 q 273 1453 278 1446 q 250 1525 250 1491 q 292 1590 250 1565 q 480 1641 385 1641 q 665 1625 575 1641 q 800 1611 748 1611 q 885 1634 852 1611 q 932 1651 910 1651 q 956 1647 944 1651 q 1017 1592 988 1632 q 1050 1532 1046 1554 q 1053 1505 1053 1510 q 1022 1449 1053 1474 q 902 1393 960 1404 q 795 1381 844 1381 q 630 1398 728 1381 q 493 1411 546 1411 q 409 1392 444 1411 q 351 1377 380 1377 z "},"ä":{"ha":1194,"x_min":20,"x_max":1174,"o":"m 955 -397 q 887 -393 925 -397 q 825 -357 850 -389 q 806 -292 806 -335 q 809 -254 806 -274 q 816 -156 813 -223 q 429 -376 627 -376 q 347 -369 377 -376 q 109 -213 199 -336 q 20 66 20 -93 l 20 76 q 109 358 28 240 q 321 549 189 477 q 471 594 385 583 q 526 597 498 597 q 654 578 583 597 q 787 490 726 558 q 802 716 802 586 q 779 928 802 838 q 681 1048 749 1040 q 589 1005 629 1048 q 530 912 548 963 q 477 852 513 866 q 427 844 454 844 q 299 874 372 844 q 197 930 224 901 q 182 973 182 946 q 193 1027 182 996 q 394 1263 252 1187 q 655 1327 513 1327 q 895 1276 783 1327 q 1147 897 1103 1182 q 1166 690 1161 798 q 1174 149 1174 504 q 1161 -308 1174 -189 q 1063 -387 1154 -368 q 955 -397 1013 -397 m 442 -77 q 483 -75 454 -77 q 560 -41 511 -73 q 656 69 610 -9 q 734 292 703 148 l 732 294 q 675 326 722 304 q 586 342 638 342 q 534 340 574 342 q 416 269 494 337 q 321 65 328 186 l 321 62 q 345 -26 321 13 q 405 -73 368 -65 q 442 -77 420 -77 m 462 1407 q 390 1411 422 1407 q 338 1433 357 1415 q 319 1490 319 1451 l 319 1603 q 338 1657 319 1641 q 389 1676 357 1673 q 446 1679 414 1679 q 537 1675 507 1679 q 585 1654 568 1671 q 602 1597 602 1637 l 605 1474 q 586 1426 605 1440 q 534 1410 566 1412 q 462 1407 502 1407 m 825 1407 q 752 1411 785 1407 q 701 1433 720 1415 q 682 1490 682 1451 l 682 1603 q 701 1657 682 1641 q 751 1676 720 1673 q 808 1679 777 1679 q 900 1675 869 1679 q 947 1654 930 1671 q 964 1597 964 1637 l 967 1474 q 948 1426 967 1440 q 897 1410 929 1412 q 825 1407 864 1407 z "},"å":{"ha":1194,"x_min":20,"x_max":1174,"o":"m 955 -397 q 887 -393 925 -397 q 825 -357 850 -389 q 806 -292 806 -335 q 809 -254 806 -274 q 816 -156 813 -223 q 429 -376 627 -376 q 347 -369 377 -376 q 109 -213 199 -336 q 20 66 20 -93 l 20 76 q 109 358 28 240 q 321 549 189 477 q 471 594 385 583 q 526 597 498 597 q 654 578 583 597 q 787 490 726 558 q 802 716 802 586 q 779 928 802 838 q 681 1048 749 1040 q 589 1005 629 1048 q 530 912 548 963 q 477 852 513 866 q 427 844 454 844 q 299 874 372 844 q 197 930 224 901 q 182 973 182 946 q 193 1027 182 996 q 394 1263 252 1187 q 655 1327 513 1327 q 895 1276 783 1327 q 1147 897 1103 1182 q 1166 690 1161 798 q 1174 149 1174 504 q 1161 -308 1174 -189 q 1063 -387 1154 -368 q 955 -397 1013 -397 m 442 -77 q 483 -75 454 -77 q 560 -41 511 -73 q 656 69 610 -9 q 734 292 703 148 l 732 294 q 675 326 722 304 q 586 342 638 342 q 534 340 574 342 q 416 269 494 337 q 321 65 328 186 l 321 62 q 345 -26 321 13 q 405 -73 368 -65 q 442 -77 420 -77 m 703 1381 q 604 1398 654 1381 q 530 1440 558 1413 q 462 1571 480 1497 q 450 1663 450 1617 l 450 1684 q 579 1921 464 1830 q 704 1960 635 1960 l 718 1959 q 841 1920 786 1959 q 918 1815 894 1879 q 937 1690 937 1771 q 849 1435 937 1531 q 703 1381 793 1381 m 692 1484 q 736 1513 713 1484 q 775 1593 759 1541 q 791 1709 791 1645 q 779 1781 791 1750 q 751 1831 767 1812 q 724 1850 736 1849 q 711 1851 713 1851 q 633 1772 670 1851 q 613 1669 613 1729 q 644 1518 613 1573 q 692 1484 663 1484 z "},"æ":{"ha":2197,"x_min":20,"x_max":2177,"o":"m 1658 -509 q 1446 -473 1579 -509 q 1187 -289 1313 -438 q 1164 -259 1175 -275 l 1161 -311 q 954 -401 1149 -401 q 887 -396 924 -401 q 824 -361 850 -392 q 806 -294 806 -338 q 808 -256 806 -277 q 815 -159 813 -227 q 428 -379 625 -379 q 347 -372 378 -379 q 108 -216 198 -340 q 20 61 20 -98 l 20 73 q 108 355 28 237 q 321 545 188 473 q 470 591 385 580 q 525 594 497 594 q 654 574 583 594 q 787 487 725 555 q 801 713 801 583 q 778 924 801 836 q 680 1044 748 1037 q 588 1002 629 1044 q 530 909 547 960 q 476 849 513 863 q 426 841 453 841 q 298 871 372 841 q 196 927 224 897 q 181 970 181 943 q 192 1023 181 992 q 393 1260 251 1184 q 654 1324 513 1324 q 882 1279 774 1324 q 1135 959 1074 1198 q 1302 1159 1199 1078 q 1551 1262 1405 1240 q 1628 1267 1590 1267 q 1988 1125 1842 1267 q 2131 737 2129 987 q 2115 550 2131 642 q 2026 318 2094 418 q 1811 180 1957 218 q 1616 159 1716 159 q 1409 180 1516 159 l 1407 180 q 1400 175 1402 180 q 1396 149 1396 165 l 1396 135 q 1462 -62 1396 26 q 1605 -167 1520 -138 q 1675 -178 1640 -178 q 1781 -153 1727 -178 q 1921 28 1885 -98 q 1986 101 1943 101 q 2082 64 2024 101 l 2094 57 q 2161 5 2139 32 q 2177 -50 2177 -14 q 2175 -77 2177 -63 q 2053 -345 2155 -230 q 1870 -470 1976 -429 q 1658 -509 1765 -509 m 441 -81 q 482 -78 454 -81 q 559 -44 510 -76 q 655 66 609 -13 q 734 289 702 144 l 732 291 q 675 322 721 301 q 586 339 637 339 q 533 336 574 339 q 416 266 493 334 q 321 62 328 182 l 321 59 q 344 -30 321 9 q 405 -77 368 -68 q 441 -81 419 -81 m 1592 468 q 1754 493 1676 468 q 1813 560 1798 510 l 1819 586 q 1832 726 1832 665 q 1820 837 1832 774 q 1675 977 1792 977 q 1493 856 1575 977 q 1375 530 1415 739 l 1374 524 q 1391 500 1374 507 q 1556 469 1452 475 q 1592 468 1574 468 z "},"ç":{"ha":1220,"x_min":20,"x_max":1200,"o":"m 587 -996 q 488 -977 534 -996 q 460 -935 460 -962 q 471 -887 460 -912 q 522 -840 492 -840 q 546 -846 533 -840 q 587 -853 564 -853 q 694 -814 645 -853 q 756 -707 756 -764 q 741 -662 756 -682 q 711 -644 727 -644 q 662 -669 687 -644 q 624 -735 637 -694 q 592 -779 612 -771 q 574 -782 583 -782 q 549 -777 564 -782 q 526 -764 535 -771 q 476 -725 485 -741 q 469 -691 469 -713 q 486 -496 469 -648 q 336 -435 404 -481 q 218 -326 270 -388 q 50 36 97 -179 q 20 316 20 168 q 33 515 20 412 q 171 975 67 792 q 420 1246 275 1158 q 696 1326 553 1326 q 725 1326 711 1326 q 979 1234 880 1316 q 1120 1015 1078 1152 q 1151 789 1151 913 q 1147 704 1151 748 q 1084 618 1139 633 q 1008 610 1050 610 q 920 616 996 610 q 822 633 859 617 q 789 699 789 648 q 790 712 789 705 q 791 744 791 720 q 781 882 791 810 q 692 1031 762 1026 q 574 961 635 1030 q 467 765 514 891 q 401 468 420 638 q 395 347 395 407 q 413 133 395 255 q 484 -95 431 12 q 610 -213 536 -201 l 619 -214 q 703 -174 664 -214 q 773 -73 743 -135 q 822 48 804 -11 q 846 141 840 108 q 920 234 861 212 q 997 246 956 246 q 1055 241 1025 246 q 1169 191 1129 229 q 1200 110 1200 160 q 1151 -83 1200 50 q 1057 -269 1116 -177 q 730 -496 939 -446 q 627 -508 679 -507 l 623 -551 q 703 -536 664 -536 l 715 -536 q 874 -669 843 -548 q 880 -728 880 -700 q 785 -924 880 -843 q 587 -996 694 -995 z "},"è":{"ha":1225,"x_min":20,"x_max":1205,"o":"m 686 -505 q 474 -470 607 -505 q 215 -286 340 -435 q 82 -41 127 -176 q 20 355 20 142 q 30 516 20 437 q 182 996 62 800 q 579 1265 326 1229 q 656 1270 618 1270 q 1016 1128 869 1270 q 1158 740 1158 989 q 1142 553 1158 646 q 1054 321 1122 421 q 838 184 985 221 q 644 163 745 163 q 436 184 544 163 q 429 178 431 184 q 424 153 424 169 q 423 140 423 152 q 490 -58 423 31 q 633 -163 548 -134 q 703 -175 668 -175 q 808 -150 755 -175 q 949 32 913 -94 q 1015 104 971 104 q 1122 60 1055 104 q 1189 9 1167 35 q 1205 -47 1205 -11 q 1203 -74 1205 -60 q 1080 -342 1182 -227 q 898 -467 1004 -426 q 686 -505 793 -505 m 619 471 q 782 496 704 471 q 841 564 826 514 q 859 728 859 641 q 847 840 859 777 q 801 941 835 903 q 703 980 770 980 q 521 859 603 980 q 402 533 442 743 l 402 529 q 419 503 402 510 q 584 473 479 479 q 619 471 602 471 m 985 1321 q 945 1329 967 1321 q 646 1451 793 1386 q 530 1502 597 1474 q 286 1617 306 1596 q 271 1661 271 1639 q 288 1723 271 1685 l 290 1727 q 378 1820 325 1820 q 416 1812 395 1820 l 431 1806 q 593 1740 469 1794 q 918 1598 755 1668 q 974 1572 941 1588 q 1033 1543 1006 1556 q 1063 1527 1059 1530 q 1084 1485 1082 1511 q 1069 1423 1084 1453 l 1063 1409 q 1025 1338 1045 1356 q 985 1321 1006 1321 z "},"é":{"ha":1225,"x_min":20,"x_max":1205,"o":"m 686 -505 q 474 -470 607 -505 q 215 -286 340 -435 q 82 -41 127 -176 q 20 355 20 142 q 30 516 20 437 q 182 996 62 800 q 579 1265 326 1229 q 656 1270 618 1270 q 1016 1128 869 1270 q 1158 740 1158 989 q 1142 553 1158 646 q 1054 321 1122 421 q 838 184 985 221 q 644 163 745 163 q 437 184 544 163 l 435 184 q 429 178 431 184 q 424 153 424 169 q 423 140 423 152 q 490 -58 423 31 q 633 -163 548 -134 q 703 -175 668 -175 q 808 -150 755 -175 q 949 32 913 -94 q 1015 104 971 104 q 1122 60 1055 104 q 1189 9 1167 35 q 1205 -47 1205 -11 q 1203 -74 1205 -60 q 1080 -342 1182 -227 q 898 -467 1004 -426 q 686 -505 793 -505 m 619 471 q 782 496 704 471 q 841 564 826 514 l 847 589 q 859 728 859 667 q 847 840 859 777 q 801 941 835 903 q 703 980 770 980 q 521 859 603 980 q 402 533 442 743 l 402 529 q 419 503 402 510 q 584 473 479 479 q 619 471 602 471 m 312 1301 q 251 1340 271 1301 q 228 1396 239 1364 q 208 1476 208 1442 l 208 1485 q 260 1542 210 1522 q 483 1617 367 1582 l 566 1643 q 939 1748 893 1748 l 943 1748 q 988 1719 975 1741 q 1013 1664 1002 1697 q 1031 1586 1031 1620 l 1030 1573 q 977 1516 1026 1535 q 623 1399 937 1502 q 360 1310 397 1324 q 312 1301 336 1301 z "},"ê":{"ha":1225,"x_min":20,"x_max":1205,"o":"m 686 -505 q 474 -470 607 -505 q 215 -286 340 -435 q 82 -41 127 -176 q 20 355 20 142 q 30 516 20 437 q 182 996 62 800 q 579 1265 326 1229 q 656 1270 618 1270 q 1016 1128 869 1270 q 1158 740 1158 989 q 1142 553 1158 646 q 1054 321 1122 421 q 838 184 985 221 q 644 163 745 163 q 437 184 544 163 l 435 184 q 429 178 431 184 q 424 153 424 169 q 423 140 423 152 q 490 -58 423 31 q 633 -163 548 -134 q 703 -175 668 -175 q 808 -150 755 -175 q 949 32 913 -94 q 1015 104 971 104 q 1122 60 1055 104 q 1189 9 1167 35 q 1205 -47 1205 -11 q 1203 -74 1205 -60 q 1080 -342 1182 -227 q 898 -467 1004 -426 q 686 -505 793 -505 m 619 471 q 782 496 704 471 q 841 564 826 514 l 847 589 q 859 728 859 667 q 847 840 859 777 q 801 941 835 903 q 703 980 770 980 q 521 859 603 980 q 402 533 442 743 l 402 529 q 419 503 402 510 q 584 473 479 479 q 619 471 602 471 m 477 1284 q 465 1286 471 1284 q 391 1322 425 1293 q 351 1377 358 1352 q 343 1413 343 1402 q 363 1463 343 1439 q 413 1524 372 1474 q 509 1639 455 1573 q 609 1760 564 1704 q 647 1782 627 1780 q 684 1784 667 1784 q 755 1778 730 1784 q 793 1751 777 1773 l 819 1708 q 975 1451 961 1478 q 985 1413 985 1430 q 975 1381 985 1395 q 911 1332 956 1352 q 829 1310 868 1310 q 769 1349 791 1310 q 684 1490 755 1375 q 586 1371 629 1424 q 534 1310 542 1318 q 477 1284 509 1284 z "},"ë":{"ha":1225,"x_min":20,"x_max":1205,"o":"m 686 -505 q 474 -470 607 -505 q 215 -286 340 -435 q 82 -41 127 -176 q 20 355 20 142 q 30 516 20 437 q 182 996 62 800 q 579 1265 326 1229 q 656 1270 618 1270 q 1016 1128 869 1270 q 1158 740 1158 989 q 1142 553 1158 646 q 1054 321 1122 421 q 838 184 985 221 q 644 163 745 163 q 437 184 544 163 l 435 184 q 429 178 431 184 q 424 153 424 169 q 423 140 423 152 q 490 -58 423 31 q 633 -163 548 -134 q 703 -175 668 -175 q 808 -150 755 -175 q 949 32 913 -94 q 1015 104 971 104 q 1122 60 1055 104 q 1189 9 1167 35 q 1205 -47 1205 -11 q 1203 -74 1205 -60 q 1080 -342 1182 -227 q 898 -467 1004 -426 q 686 -505 793 -505 m 619 471 q 782 496 704 471 q 841 564 826 514 l 847 589 q 859 728 859 667 q 847 840 859 777 q 801 941 835 903 q 703 980 770 980 q 521 859 603 980 q 402 533 442 743 l 402 529 q 419 503 402 510 q 584 473 479 479 q 619 471 602 471 m 491 1333 q 419 1337 451 1333 q 367 1359 387 1341 q 348 1415 348 1376 l 348 1529 q 367 1583 348 1567 q 418 1603 386 1598 q 475 1605 444 1605 q 566 1601 536 1605 q 614 1580 597 1597 q 631 1523 631 1563 l 633 1400 q 614 1352 633 1366 q 563 1335 595 1338 q 491 1333 530 1333 m 853 1333 q 782 1337 814 1333 q 730 1359 749 1341 q 711 1415 711 1376 l 711 1529 q 730 1583 711 1567 q 780 1603 749 1598 q 837 1605 806 1605 q 928 1601 898 1605 q 976 1580 959 1597 q 994 1523 994 1563 l 996 1400 q 977 1352 996 1366 q 925 1335 958 1338 q 853 1333 893 1333 z "},"ì":{"ha":438,"x_min":-147,"x_max":667,"o":"m 200 -460 q 133 -456 175 -460 q 50 -426 90 -453 q 22 -376 24 -407 q 20 -258 20 -324 q 31 288 20 -71 q 55 935 41 647 q 230 1055 64 1055 q 418 926 418 1055 l 417 914 q 391 231 403 637 q 382 -250 382 -69 q 384 -364 382 -314 q 350 -436 384 -418 q 200 -460 304 -460 m 567 1090 q 527 1099 549 1090 q 229 1221 376 1156 q 112 1272 179 1243 q -132 1387 -112 1365 q -147 1430 -147 1409 q -130 1492 -147 1454 l -128 1496 q -40 1590 -93 1590 q -1 1581 -22 1590 l 14 1575 q 176 1510 51 1563 q 500 1368 338 1438 q 556 1342 523 1358 q 615 1313 589 1326 q 645 1296 642 1299 q 667 1254 664 1280 q 651 1193 666 1222 l 646 1178 q 608 1108 627 1125 q 567 1090 588 1090 z "},"í":{"ha":438,"x_min":-234,"x_max":589,"o":"m 200 -460 q 133 -456 175 -460 q 50 -426 90 -453 q 22 -376 24 -407 q 20 -258 20 -324 q 31 288 20 -71 q 55 935 41 647 q 230 1055 64 1055 q 418 926 418 1055 l 417 914 q 391 231 403 637 q 382 -250 382 -69 q 384 -363 382 -314 l 384 -365 q 350 -436 384 -418 q 200 -460 304 -460 m -130 1078 q -191 1116 -172 1078 q -214 1173 -203 1140 q -234 1253 -234 1219 l -234 1261 q -182 1318 -232 1298 q 41 1393 -75 1358 l 124 1419 q 496 1524 451 1524 l 500 1524 q 546 1495 532 1517 q 571 1440 560 1474 q 589 1362 589 1396 l 588 1350 q 534 1292 584 1311 q 180 1175 494 1278 q -82 1086 -45 1101 q -130 1078 -106 1078 z "},"î":{"ha":438,"x_min":-87,"x_max":555,"o":"m 200 -460 q 133 -456 175 -460 q 50 -426 90 -453 q 22 -376 24 -407 q 20 -258 20 -324 q 31 288 20 -71 q 55 935 41 647 q 230 1055 64 1055 q 418 926 418 1055 l 417 914 q 391 231 403 637 q 382 -250 382 -69 q 384 -363 382 -314 l 384 -365 q 350 -436 384 -418 q 200 -460 304 -460 m 47 1101 q 35 1102 41 1101 q -39 1139 -5 1109 q -79 1193 -72 1168 q -87 1229 -87 1218 q -67 1280 -87 1255 q -17 1340 -58 1290 q 79 1455 25 1390 q 179 1576 134 1520 q 217 1598 197 1596 q 254 1600 237 1600 q 325 1594 300 1600 q 363 1567 347 1589 l 389 1525 q 545 1267 531 1295 q 555 1229 555 1246 q 545 1197 555 1211 q 481 1148 526 1168 q 399 1126 438 1126 q 339 1165 361 1126 q 254 1306 325 1191 q 156 1187 199 1240 q 104 1126 112 1135 q 47 1101 79 1101 z "},"ï":{"ha":444,"x_min":-70,"x_max":578,"o":"m 200 -460 q 133 -456 175 -460 q 50 -426 90 -453 q 22 -376 24 -407 q 20 -258 20 -324 q 31 288 20 -71 q 55 935 41 647 q 230 1055 64 1055 q 418 926 418 1055 l 417 914 q 391 231 403 637 q 382 -250 382 -69 q 384 -363 382 -314 l 384 -365 q 350 -436 384 -418 q 200 -460 304 -460 m 73 1127 q 1 1132 33 1127 q -51 1153 -31 1136 q -70 1210 -70 1171 l -70 1324 q -51 1377 -70 1362 q 0 1397 -32 1393 q 57 1400 26 1400 q 149 1396 118 1400 q 196 1374 179 1392 q 213 1318 213 1357 l 216 1194 q 197 1146 216 1160 q 145 1130 178 1133 q 73 1127 113 1127 m 435 1127 q 364 1132 396 1127 q 312 1153 332 1136 q 293 1210 293 1171 l 293 1324 q 312 1377 293 1362 q 362 1397 331 1393 q 419 1400 388 1400 q 511 1396 480 1400 q 558 1374 541 1392 q 576 1318 576 1357 l 578 1194 q 559 1146 578 1160 q 508 1130 540 1133 q 435 1127 475 1127 z "},"ð":{"ha":1510,"x_min":20,"x_max":1491,"o":"m 502 -501 q 435 -498 478 -501 q 346 -462 393 -495 q 296 -388 311 -433 q 273 -300 280 -342 q 244 73 244 -132 q 250 286 244 179 q 119 283 148 284 l 113 283 q 41 321 58 283 q 20 460 20 367 q 32 540 20 501 q 102 583 43 578 q 274 587 130 585 q 320 954 291 772 q 378 1212 344 1116 q 579 1336 423 1326 q 636 1338 608 1338 q 706 1335 672 1338 q 1050 1261 909 1319 q 1478 694 1407 1109 q 1491 533 1491 612 q 1377 72 1491 293 q 1174 -202 1298 -79 q 896 -402 1050 -325 q 570 -498 742 -480 q 502 -501 536 -501 m 631 -165 l 637 -164 q 941 17 798 -116 q 1154 364 1094 155 q 1175 524 1175 438 q 1165 644 1175 581 q 1020 918 1133 836 q 724 1013 907 1000 l 722 1013 q 700 1005 710 1013 q 687 984 690 998 q 633 589 657 831 q 851 582 791 589 q 929 526 911 571 q 940 462 940 498 q 920 350 940 406 q 829 282 895 282 q 807 283 819 282 q 610 288 762 288 q 603 70 603 172 q 621 -161 603 -151 q 631 -165 625 -165 z "},"ñ":{"ha":1345,"x_min":20,"x_max":1325,"o":"m 990 -366 q 895 -315 934 -366 q 687 58 776 -137 q 604 222 647 141 q 491 454 544 336 l 408 643 q 377 -241 377 325 q 326 -337 375 -313 q 207 -360 277 -360 q 109 -351 149 -360 q 20 -241 22 -331 l 20 -132 q 38 618 20 297 q 113 1194 58 973 q 183 1269 133 1256 q 279 1282 233 1282 q 421 1258 372 1282 q 482 1202 459 1240 q 529 1102 505 1164 q 694 731 606 916 l 810 479 q 869 355 837 421 q 962 157 926 234 q 970 824 970 570 q 965 1208 970 1139 l 965 1217 q 1010 1301 965 1280 q 1135 1326 1059 1324 q 1187 1329 1162 1329 q 1262 1320 1230 1329 q 1321 1234 1314 1305 q 1325 1077 1325 1156 q 1322 932 1325 1005 q 1305 371 1317 733 q 1302 235 1303 303 q 1288 -113 1300 60 q 1272 -219 1284 -176 q 1222 -292 1259 -262 q 1105 -345 1185 -321 q 1020 -366 1048 -365 q 990 -366 991 -366 m 412 1325 q 371 1343 386 1325 q 342 1387 355 1362 l 334 1401 q 311 1475 311 1440 q 353 1539 311 1513 q 541 1590 445 1590 q 725 1573 636 1590 q 861 1559 808 1559 q 945 1582 912 1559 q 993 1600 970 1600 q 1016 1595 1004 1600 q 1077 1541 1048 1581 q 1110 1480 1107 1502 q 1114 1453 1114 1459 q 1082 1398 1114 1422 q 962 1341 1020 1353 q 857 1330 904 1330 q 691 1346 787 1330 q 554 1360 606 1360 q 470 1341 505 1360 q 412 1325 441 1325 z "},"ò":{"ha":1184,"x_min":20,"x_max":1164,"o":"m 576 -401 l 555 -401 q 277 -320 387 -401 q 121 -144 175 -242 q 45 81 66 -47 q 20 366 20 222 q 108 888 20 642 q 178 1046 139 979 q 285 1179 216 1114 q 451 1269 361 1250 q 625 1287 541 1287 q 669 1286 647 1287 q 866 1239 774 1282 q 1015 1114 958 1196 q 1164 498 1164 888 q 1118 103 1164 300 q 1024 -144 1087 -35 q 846 -336 960 -254 q 714 -389 785 -377 q 576 -401 644 -401 m 579 -165 q 626 -157 602 -165 q 705 -104 673 -140 q 789 113 769 -28 q 821 538 821 324 q 808 812 821 704 q 685 1023 789 974 q 640 1032 661 1032 q 607 1027 623 1032 q 541 984 570 1014 q 435 706 450 892 q 406 354 406 531 q 427 47 406 201 q 444 -43 432 1 q 532 -157 465 -129 q 579 -165 555 -165 m 1006 1304 q 966 1313 988 1304 q 668 1435 814 1369 q 551 1485 618 1457 q 307 1600 328 1579 q 292 1643 292 1622 q 309 1706 292 1668 q 353 1783 328 1760 q 399 1803 376 1803 q 438 1795 416 1803 l 453 1790 q 615 1723 490 1777 q 939 1581 777 1651 q 995 1556 962 1571 q 1054 1527 1027 1540 q 1084 1510 1080 1513 q 1106 1468 1103 1494 q 1090 1407 1105 1436 l 1084 1392 q 1047 1322 1067 1339 q 1006 1304 1027 1304 z "},"ó":{"ha":1184,"x_min":20,"x_max":1164,"o":"m 576 -401 l 555 -401 q 277 -320 387 -401 q 121 -144 175 -242 q 45 81 66 -47 q 20 366 20 222 q 108 888 20 642 q 178 1046 139 979 q 285 1179 216 1114 q 451 1269 361 1250 q 625 1287 541 1287 q 669 1286 647 1287 q 866 1239 774 1282 q 1015 1114 958 1196 q 1164 498 1164 888 q 1118 103 1164 300 q 1024 -144 1087 -35 q 846 -336 960 -254 q 714 -389 785 -377 q 576 -401 644 -401 m 579 -165 q 626 -157 602 -165 q 705 -104 673 -140 q 789 113 769 -28 q 821 538 821 324 q 818 681 821 586 q 808 812 817 744 q 685 1023 789 974 q 640 1032 661 1032 q 607 1027 623 1032 q 541 984 570 1014 q 456 823 479 921 q 435 706 438 747 q 406 354 406 531 q 427 48 406 201 l 427 46 q 444 -43 432 1 q 532 -157 465 -129 q 579 -165 555 -165 m 283 1298 q 246 1309 260 1298 q 223 1337 232 1319 q 205 1378 214 1355 l 199 1393 q 180 1475 180 1440 q 231 1539 180 1518 q 454 1613 339 1579 l 538 1640 q 827 1727 706 1694 q 911 1744 890 1744 l 915 1744 q 960 1716 947 1737 q 985 1661 974 1695 q 1003 1581 1003 1616 q 948 1512 1003 1534 l 595 1396 q 332 1308 401 1333 q 283 1298 308 1298 z "},"ô":{"ha":1184,"x_min":20,"x_max":1164,"o":"m 576 -401 l 555 -401 q 277 -320 387 -401 q 121 -144 175 -242 q 45 81 66 -47 q 20 366 20 222 q 108 888 20 642 q 178 1046 139 979 q 285 1179 216 1114 q 451 1269 361 1250 q 625 1287 541 1287 q 669 1286 647 1287 q 866 1239 774 1282 q 1015 1114 958 1196 q 1164 498 1164 888 q 1118 103 1164 300 q 1024 -144 1087 -35 q 846 -336 960 -254 q 714 -389 785 -377 q 576 -401 644 -401 m 579 -165 q 626 -157 602 -165 q 705 -104 673 -140 q 789 113 769 -28 q 821 538 821 324 q 818 681 821 586 q 808 812 817 744 q 685 1023 789 974 q 640 1032 661 1032 q 607 1027 623 1032 q 541 984 570 1014 q 456 823 479 921 q 435 706 438 747 q 406 354 406 531 q 427 48 406 201 l 427 46 q 444 -43 432 1 q 532 -157 465 -129 q 579 -165 555 -165 m 444 1327 q 357 1365 399 1327 q 309 1455 309 1407 q 328 1506 309 1481 l 574 1802 q 612 1824 592 1822 q 648 1827 632 1827 q 720 1820 693 1827 q 758 1793 743 1815 q 844 1655 760 1791 q 940 1494 928 1519 q 950 1454 950 1472 q 877 1374 950 1408 q 814 1352 833 1352 l 793 1352 q 734 1392 756 1352 l 649 1532 q 498 1352 514 1369 q 444 1327 475 1327 z "},"õ":{"ha":1184,"x_min":20,"x_max":1164,"o":"m 576 -401 l 555 -401 q 277 -320 387 -401 q 121 -144 175 -242 q 45 81 66 -47 q 20 366 20 222 q 108 888 20 642 q 178 1046 139 979 q 285 1179 216 1114 q 451 1269 361 1250 q 625 1287 541 1287 q 669 1286 647 1287 q 866 1239 774 1282 q 1015 1114 958 1196 q 1164 498 1164 888 q 1118 103 1164 300 q 1024 -144 1087 -35 q 846 -336 960 -254 q 714 -389 785 -377 q 576 -401 644 -401 m 579 -165 q 626 -157 602 -165 q 705 -104 673 -140 q 789 113 769 -28 q 821 538 821 324 q 818 681 821 586 q 808 812 817 744 q 685 1023 789 974 q 640 1032 661 1032 q 607 1027 623 1032 q 541 984 570 1014 q 456 823 479 921 q 435 706 438 747 q 406 354 406 531 q 427 48 406 201 l 427 46 q 444 -43 432 1 q 532 -157 465 -129 q 579 -165 555 -165 m 316 1352 q 275 1371 290 1352 q 247 1414 260 1389 l 239 1428 q 215 1502 215 1468 q 257 1566 215 1540 q 445 1617 349 1617 q 629 1600 541 1617 q 765 1586 713 1586 q 850 1609 817 1586 q 897 1627 875 1627 q 920 1622 909 1627 q 981 1568 953 1608 q 1015 1508 1011 1529 q 1018 1480 1018 1486 q 987 1425 1018 1449 q 866 1369 924 1380 q 761 1357 808 1357 q 595 1373 692 1357 q 458 1387 511 1387 q 374 1368 410 1387 q 316 1352 346 1352 z "},"ö":{"ha":1184,"x_min":20,"x_max":1164,"o":"m 576 -401 l 555 -401 q 277 -320 387 -401 q 121 -144 175 -242 q 45 81 66 -47 q 20 366 20 222 q 108 888 20 642 q 178 1046 139 979 q 285 1179 216 1114 q 451 1269 361 1250 q 625 1287 541 1287 q 669 1286 647 1287 q 866 1239 774 1282 q 1015 1114 958 1196 q 1164 498 1164 888 q 1118 103 1164 300 q 1024 -144 1087 -35 q 846 -336 960 -254 q 714 -389 785 -377 q 576 -401 644 -401 m 579 -165 q 626 -157 602 -165 q 705 -104 673 -140 q 789 113 769 -28 q 821 538 821 324 q 818 681 821 586 q 808 812 817 744 q 685 1023 789 974 q 640 1032 661 1032 q 607 1027 623 1032 q 541 984 570 1014 q 456 823 479 921 q 435 706 438 747 q 406 354 406 531 q 427 48 406 201 l 427 46 q 444 -43 432 1 q 532 -157 465 -129 q 579 -165 555 -165 m 469 1341 q 397 1345 429 1341 q 346 1367 365 1350 q 326 1424 326 1384 l 326 1537 q 345 1591 326 1575 q 395 1611 364 1607 q 452 1613 421 1613 q 544 1609 513 1613 q 592 1588 574 1605 q 609 1531 609 1571 l 612 1409 q 592 1360 612 1375 q 541 1343 573 1346 q 469 1341 509 1341 m 831 1341 q 760 1345 792 1341 q 708 1367 727 1350 q 689 1424 689 1384 l 689 1537 q 708 1591 689 1575 q 758 1611 727 1607 q 815 1613 784 1613 q 907 1609 876 1613 q 954 1588 937 1605 q 971 1531 971 1571 l 975 1409 q 955 1360 975 1375 q 904 1343 936 1346 q 831 1341 871 1341 z "},"ø":{"ha":1223,"x_min":20,"x_max":1203,"o":"m 245 -481 q 212 -477 237 -481 q 136 -448 186 -473 q 62 -384 85 -424 q 52 -347 52 -366 q 67 -299 52 -324 q 136 -180 79 -279 q 20 357 20 4 q 30 552 20 418 q 108 879 39 687 q 178 1037 139 969 q 285 1170 216 1104 q 462 1261 361 1240 q 625 1278 541 1278 q 669 1276 647 1278 q 930 1192 815 1271 q 965 1248 960 1240 q 1023 1283 991 1283 q 1057 1274 1033 1283 q 1136 1213 1078 1265 q 1203 1125 1203 1162 q 1190 1085 1203 1107 q 1099 931 1174 1059 q 1164 489 1164 737 q 1118 94 1164 290 q 1024 -154 1087 -44 q 846 -345 960 -263 q 710 -399 785 -387 q 576 -410 644 -410 l 551 -410 q 347 -370 444 -410 l 309 -436 l 295 -458 q 245 -481 278 -481 m 407 287 q 774 924 469 397 q 685 1013 747 983 q 640 1023 661 1023 q 541 975 588 1023 q 456 814 479 911 q 437 712 444 763 q 406 346 406 544 q 407 287 406 316 m 578 -175 q 638 -162 602 -175 q 705 -113 673 -150 q 789 103 769 -36 q 821 449 814 275 q 484 -133 701 241 q 485 -134 485 -133 q 578 -175 523 -175 z "},"ù":{"ha":1128,"x_min":8,"x_max":1107,"o":"m 888 -446 q 799 -433 837 -446 q 758 -355 760 -420 l 758 -92 q 671 -220 734 -171 q 477 -285 590 -285 q 317 -254 404 -285 q 170 -142 231 -222 q 20 527 20 70 q 46 924 20 728 q 87 1141 66 1078 q 168 1209 113 1205 l 186 1210 q 288 1192 235 1210 q 418 1077 418 1160 q 415 1044 418 1061 q 389 882 406 1010 q 366 536 366 717 q 460 30 366 168 q 521 -3 485 -3 q 569 16 547 -3 q 618 76 588 28 q 680 223 648 123 q 734 491 711 322 q 758 826 755 666 q 761 1013 761 933 q 760 1087 761 1054 l 760 1141 q 851 1236 760 1223 q 956 1242 893 1242 q 1033 1234 992 1242 q 1107 1115 1107 1219 q 1106 1084 1107 1099 q 1105 1053 1105 1069 q 1107 638 1107 953 q 1103 -354 1107 224 q 1019 -435 1101 -416 q 940 -444 982 -444 l 888 -446 m 722 1289 q 682 1297 705 1289 q 384 1419 531 1354 q 267 1470 334 1442 q 24 1586 43 1564 q 8 1629 8 1607 q 25 1691 8 1653 l 27 1695 q 115 1788 62 1788 q 154 1780 133 1788 l 169 1774 q 331 1708 206 1762 q 655 1567 493 1636 q 711 1540 678 1556 q 770 1511 744 1525 q 800 1495 797 1498 q 822 1453 819 1479 q 806 1392 821 1421 l 801 1377 q 763 1306 783 1324 q 722 1289 743 1289 z "},"ú":{"ha":1128,"x_min":20,"x_max":1107,"o":"m 888 -446 q 799 -433 837 -446 q 758 -355 760 -420 l 758 -92 q 671 -220 734 -171 q 477 -285 590 -285 q 317 -254 404 -285 q 170 -142 231 -222 q 20 527 20 70 q 46 924 20 728 q 87 1141 66 1078 q 168 1209 113 1205 l 186 1210 q 288 1192 235 1210 q 418 1077 418 1160 q 415 1044 418 1061 q 389 882 406 1010 q 366 536 366 717 q 460 30 366 168 q 521 -3 485 -3 q 569 16 547 -3 q 618 76 588 28 q 680 223 648 123 q 734 491 711 322 q 758 826 755 666 q 761 1013 761 933 q 760 1087 761 1054 l 760 1141 q 851 1236 760 1223 q 956 1242 893 1242 q 1033 1234 992 1242 q 1107 1115 1107 1219 q 1106 1084 1107 1099 q 1105 1053 1105 1069 q 1107 638 1107 953 q 1103 -354 1107 224 q 1019 -435 1101 -416 q 940 -444 982 -444 l 888 -446 m 311 1234 q 250 1272 269 1234 q 227 1329 237 1296 q 207 1409 207 1375 l 207 1417 q 258 1474 209 1454 q 481 1549 366 1514 l 565 1575 q 937 1680 892 1680 l 941 1680 q 987 1651 973 1673 q 1012 1596 1001 1630 q 1029 1518 1029 1552 l 1029 1506 q 975 1448 1025 1467 q 621 1331 935 1434 q 359 1242 395 1257 q 311 1234 334 1234 z "},"û":{"ha":1128,"x_min":20,"x_max":1107,"o":"m 888 -446 q 799 -433 837 -446 q 758 -355 760 -420 l 758 -92 q 671 -220 734 -171 q 477 -285 590 -285 q 317 -254 404 -285 q 170 -142 231 -222 q 20 527 20 70 q 46 924 20 728 q 87 1141 66 1078 q 168 1209 113 1205 l 186 1210 q 288 1192 235 1210 q 418 1077 418 1160 q 415 1044 418 1061 q 389 882 406 1010 q 366 536 366 717 q 460 30 366 168 q 521 -3 485 -3 q 569 16 547 -3 q 618 76 588 28 q 680 223 648 123 q 734 491 711 322 q 758 826 755 666 q 761 1013 761 933 q 760 1087 761 1054 l 760 1141 q 851 1236 760 1223 q 956 1242 893 1242 q 1033 1234 992 1242 q 1095 1184 1074 1225 q 1107 1115 1107 1156 q 1106 1084 1107 1099 q 1105 1053 1105 1069 q 1107 638 1107 953 q 1105 241 1107 439 q 1103 -354 1104 -162 q 1019 -435 1101 -416 q 940 -444 982 -444 l 930 -444 l 888 -446 m 382 1237 q 370 1238 376 1237 q 296 1275 330 1245 q 256 1330 263 1305 q 248 1365 248 1354 q 268 1416 248 1392 q 318 1476 277 1426 q 414 1591 360 1526 q 514 1712 469 1657 q 552 1734 532 1732 q 589 1737 572 1737 q 660 1731 635 1737 q 698 1704 682 1725 l 724 1661 q 880 1404 866 1431 q 890 1365 890 1383 q 880 1333 890 1348 q 817 1284 861 1305 q 734 1262 773 1262 q 674 1301 696 1262 q 589 1442 660 1327 q 491 1324 534 1377 q 439 1262 447 1271 q 382 1237 414 1237 z "},"ü":{"ha":1128,"x_min":20,"x_max":1107,"o":"m 888 -446 q 799 -433 837 -446 q 758 -355 760 -420 l 758 -92 q 671 -220 734 -171 q 477 -285 590 -285 q 317 -254 404 -285 q 170 -142 231 -222 q 20 527 20 70 q 46 924 20 728 q 87 1141 66 1078 q 168 1209 113 1205 l 186 1210 q 288 1192 235 1210 q 418 1077 418 1160 q 415 1044 418 1061 q 389 882 406 1010 q 366 536 366 717 q 460 30 366 168 q 521 -3 485 -3 q 569 16 547 -3 q 618 76 588 28 q 680 223 648 123 q 734 491 711 322 q 758 826 755 666 q 761 1013 761 933 q 760 1087 761 1054 l 760 1141 q 851 1236 760 1223 q 956 1242 893 1242 q 1033 1234 992 1242 q 1095 1184 1074 1225 q 1107 1115 1107 1156 q 1106 1084 1107 1099 q 1105 1053 1105 1069 q 1107 638 1107 953 q 1105 241 1107 439 q 1103 -354 1104 -162 q 1019 -435 1101 -416 q 940 -444 982 -444 l 930 -444 l 888 -446 m 384 1289 q 312 1293 344 1289 q 260 1315 279 1297 q 241 1371 241 1332 l 241 1485 q 260 1539 241 1523 q 311 1558 279 1554 q 368 1561 336 1561 q 459 1557 429 1561 q 507 1536 490 1553 q 524 1479 524 1518 l 526 1356 q 507 1308 526 1322 q 456 1291 488 1294 q 384 1289 423 1289 m 746 1289 q 674 1293 707 1289 q 623 1315 642 1297 q 604 1371 604 1332 l 604 1485 q 623 1539 604 1523 q 673 1558 642 1554 q 730 1561 699 1561 q 821 1557 791 1561 q 869 1536 852 1553 q 886 1479 886 1518 l 889 1356 q 870 1308 889 1322 q 818 1291 850 1294 q 746 1289 786 1289 z "},"ý":{"ha":1394,"x_min":54,"x_max":1356,"o":"m 642 -500 q 515 -463 587 -500 l 481 -447 q 398 -366 398 -416 q 407 -321 398 -347 l 502 -64 q 534 31 534 24 q 530 47 534 39 l 66 1105 q 54 1154 54 1131 q 155 1263 54 1219 q 257 1289 214 1289 q 349 1230 322 1289 l 684 465 q 690 462 687 462 q 696 466 694 462 l 1019 1342 q 1149 1430 1053 1430 q 1232 1413 1188 1430 q 1339 1335 1309 1384 q 1356 1275 1356 1307 q 1346 1225 1356 1251 l 733 -441 q 642 -500 709 -500 m 397 1333 q 336 1372 356 1333 q 313 1428 324 1396 q 294 1508 294 1474 l 294 1516 q 345 1574 296 1554 q 568 1649 452 1614 l 652 1674 q 1024 1780 979 1780 l 1028 1780 q 1074 1751 1060 1773 q 1099 1696 1088 1729 q 1116 1618 1116 1652 l 1116 1605 q 1062 1548 1112 1567 q 708 1431 1022 1534 q 446 1342 482 1356 q 397 1333 421 1333 z "},"ÿ":{"ha":1394,"x_min":54,"x_max":1356,"o":"m 642 -500 q 515 -463 587 -500 l 481 -447 q 398 -366 398 -416 q 407 -321 398 -347 l 502 -64 q 534 31 534 24 q 530 47 534 39 l 66 1105 q 54 1154 54 1131 q 155 1263 54 1219 q 257 1289 214 1289 q 349 1230 322 1289 l 684 465 q 690 462 687 462 q 696 466 694 462 l 1019 1342 q 1149 1430 1053 1430 q 1232 1413 1188 1430 q 1339 1335 1309 1384 q 1356 1275 1356 1307 q 1346 1225 1356 1251 l 733 -441 q 642 -500 709 -500 m 471 1375 q 398 1380 431 1375 q 347 1401 366 1384 q 328 1458 328 1419 l 328 1572 q 347 1626 328 1610 q 397 1645 366 1641 q 454 1648 423 1648 q 546 1644 515 1648 q 593 1623 576 1640 q 610 1566 610 1605 l 613 1442 q 594 1395 613 1409 q 543 1378 575 1381 q 471 1375 510 1375 m 833 1375 q 761 1380 793 1375 q 710 1401 729 1384 q 690 1458 690 1419 l 690 1572 q 709 1626 690 1610 q 760 1645 728 1641 q 817 1648 785 1648 q 908 1644 878 1648 q 956 1623 939 1640 q 973 1566 973 1605 l 976 1442 q 957 1395 976 1409 q 905 1378 937 1381 q 833 1375 873 1375 z "}}}
